  0
SECTION
  2
HEADER
  9
$ACADVER
  1
AC1014
  9
$HANDSEED
  5
FFFF
  9
$INSUNITS
 70
     4
  9
$MEASUREMENT
 70
     1
  0
ENDSEC
  0
SECTION
  2
TABLES
  0
TABLE
  2
VPORT
  5
8
330
0
100
AcDbSymbolTable
 70
     4
  0
VPORT
  5
2E
330
8
100
AcDbSymbolTableRecord
100
AcDbViewportTableRecord
  2
*ACTIVE
 70
     0
 10
0.0
 20
0.0
 11
1.0
 21
1.0
 12
210.0
 22
148.5
 13
0.0
 23
0.0
 14
10.0
 24
10.0
 15
10.0
 25
10.0
 16
0.0
 26
0.0
 36
1.0
 17
0.0
 27
0.0
 37
0.0
 40
341.0
 41
1.24
 42
50.0
 43
0.0
 44
0.0
 50
0.0
 51
0.0
 71
     0
 72
   100
 73
     1
 74
     3
 75
     0
 76
     0
 77
     0
 78
     0
  0
ENDTAB
  0
TABLE
  2
LTYPE
  5
5
330
0
100
AcDbSymbolTable
 70
     1
  0
LTYPE
  5
14
330
5
100
AcDbSymbolTableRecord
100
AcDbLinetypeTableRecord
  2
BYBLOCK
 70
     0
  3

 72
    65
 73
     0
 40
0.0
  0
LTYPE
  5
15
330
5
100
AcDbSymbolTableRecord
100
AcDbLinetypeTableRecord
  2
BYLAYER
 70
     0
  3

 72
    65
 73
     0
 40
0.0
  0
LTYPE
  5
16
330
5
100
AcDbSymbolTableRecord
100
AcDbLinetypeTableRecord
  2
CONTINUOUS
 70
     0
  3
Solid line
 72
    65
 73
     0
 40
0.0
  0
ENDTAB
  0
TABLE
  2
LAYER
  5
2
100
AcDbSymbolTable
 70
2
  0
LAYER
  5
50
100
AcDbSymbolTableRecord
100
AcDbLayerTableRecord
  2
0
 70
0
  6
CONTINUOUS
  0
LAYER
  5
51
100
AcDbSymbolTableRecord
100
AcDbLayerTableRecord
  2
Layer_1
 70
0
  6
CONTINUOUS
  0
ENDTAB
  0
TABLE
  2
STYLE
  5
3
330
0
100
AcDbSymbolTable
 70
     1
  0
STYLE
  5
11
330
3
100
AcDbSymbolTableRecord
100
AcDbTextStyleTableRecord
  2
STANDARD
 70
     0
 40
0.0
 41
1.0
 50
0.0
 71
     0
 42
2.5
  3
txt
  4

  0
ENDTAB
  0
TABLE
  2
VIEW
  5
6
330
0
100
AcDbSymbolTable
 70
     0
  0
ENDTAB
  0
TABLE
  2
UCS
  5
7
330
0
100
AcDbSymbolTable
 70
     0
  0
ENDTAB
  0
TABLE
  2
APPID
  5
9
330
0
100
AcDbSymbolTable
 70
     2
  0
APPID
  5
12
330
9
100
AcDbSymbolTableRecord
100
AcDbRegAppTableRecord
  2
ACAD
 70
     0
  0
ENDTAB
  0
TABLE
  2
DIMSTYLE
  5
A
330
0
100
AcDbSymbolTable
 70
     1
  0
DIMSTYLE
105
27
330
A
100
AcDbSymbolTableRecord
100
AcDbDimStyleTableRecord
  2
ISO-25
 70
     0
  3

  4

  5

  6

  7

 40
1.0
 41
2.5
 42
0.625
 43
3.75
 44
1.25
 45
0.0
 46
0.0
 47
0.0
 48
0.0
140
2.5
141
2.5
142
0.0
143
0.03937007874016
144
1.0
145
0.0
146
1.0
147
0.625
 71
     0
 72
     0
 73
     0
 74
     0
 75
     0
 76
     0
 77
     1
 78
     8
170
     0
171
     3
172
     1
173
     0
174
     0
175
     0
176
     0
177
     0
178
     0
270
     2
271
     2
272
     2
273
     2
274
     3
340
11
275
     0
280
     0
281
     0
282
     0
283
     0
284
     8
285
     0
286
     0
287
     3
288
     0
  0
ENDTAB
  0
TABLE
  2
BLOCK_RECORD
  5
1
330
0
100
AcDbSymbolTable
 70
     1
  0
BLOCK_RECORD
  5
1F
330
1
100
AcDbSymbolTableRecord
100
AcDbBlockTableRecord
  2
*MODEL_SPACE
  0
BLOCK_RECORD
  5
1B
330
1
100
AcDbSymbolTableRecord
100
AcDbBlockTableRecord
  2
*PAPER_SPACE
  0
ENDTAB
  0
ENDSEC
  0
SECTION
  2
BLOCKS
  0
BLOCK
  5
20
330
1F
100
AcDbEntity
  8
0
100
AcDbBlockBegin
  2
*MODEL_SPACE
 70
     0
 10
0.0
 20
0.0
 30
0.0
  3
*MODEL_SPACE
  1

  0
ENDBLK
  5
21
330
1F
100
AcDbEntity
  8
0
100
AcDbBlockEnd
  0
BLOCK
  5
1C
330
1B
100
AcDbEntity
 67
     1
  8
0
100
AcDbBlockBegin
  2
*PAPER_SPACE
  1

  0
ENDBLK
  5
1D
330
1B
100
AcDbEntity
 67
     1
  8
0
100
AcDbBlockEnd
  0
ENDSEC
  0
SECTION
  2
ENTITIES
  0
SPLINE
  5
100
100
AcDbEntity
  8
Layer_1
 62
7
100
AcDbSpline
 70
8
 71
3
 72
8
 73
4
 74
0
 40
0
 40
0
 40
0
 40
0
 40
1
 40
1
 40
1
 40
1
 10
4.661967
 20
183.606490
 30
0.0
 10
4.661952
 20
183.976343
 30
0.0
 10
4.808839
 20
184.331053
 30
0.0
 10
5.070310
 20
184.592578
 30
0.0
  0
SPLINE
  5
101
100
AcDbEntity
  8
Layer_1
 62
7
100
AcDbSpline
 70
8
 71
3
 72
8
 73
4
 74
0
 40
0
 40
0
 40
0
 40
0
 40
1
 40
1
 40
1
 40
1
 10
5.070310
 20
184.592578
 30
0.0
 10
5.331782
 20
184.854103
 30
0.0
 10
5.686418
 20
185.001020
 30
0.0
 10
6.056194
 20
185.001004
 30
0.0
  0
SPLINE
  5
102
100
AcDbEntity
  8
Layer_1
 62
7
100
AcDbSpline
 70
8
 71
3
 72
8
 73
4
 74
0
 40
0
 40
0
 40
0
 40
0
 40
1
 40
1
 40
1
 40
1
 10
6.056194
 20
185.001004
 30
0.0
 10
6.425970
 20
185.001020
 30
0.0
 10
6.780606
 20
184.854103
 30
0.0
 10
7.042078
 20
184.592578
 30
0.0
  0
SPLINE
  5
103
100
AcDbEntity
  8
Layer_1
 62
7
100
AcDbSpline
 70
8
 71
3
 72
8
 73
4
 74
0
 40
0
 40
0
 40
0
 40
0
 40
1
 40
1
 40
1
 40
1
 10
7.042078
 20
184.592578
 30
0.0
 10
7.303549
 20
184.331053
 30
0.0
 10
7.450436
 20
183.976343
 30
0.0
 10
7.450421
 20
183.606490
 30
0.0
  0
SPLINE
  5
104
100
AcDbEntity
  8
Layer_1
 62
7
100
AcDbSpline
 70
8
 71
3
 72
8
 73
4
 74
0
 40
0
 40
0
 40
0
 40
0
 40
1
 40
1
 40
1
 40
1
 10
7.450421
 20
183.606490
 30
0.0
 10
7.450136
 20
182.836532
 30
0.0
 10
6.825993
 20
182.212517
 30
0.0
 10
6.056194
 20
182.212549
 30
0.0
  0
SPLINE
  5
105
100
AcDbEntity
  8
Layer_1
 62
7
100
AcDbSpline
 70
8
 71
3
 72
8
 73
4
 74
0
 40
0
 40
0
 40
0
 40
0
 40
1
 40
1
 40
1
 40
1
 10
6.056194
 20
182.212549
 30
0.0
 10
5.286395
 20
182.212517
 30
0.0
 10
4.662252
 20
182.836532
 30
0.0
 10
4.661967
 20
183.606490
 30
0.0
  0
LINE
  5
106
100
AcDbEntity
  8
Layer_1
 62
7
100
AcDbLine
 10
4.661967
 20
183.606490
 30
0.0
 11
4.661967
 21
183.606490
 31
0.0
  0
SPLINE
  5
107
100
AcDbEntity
  8
Layer_1
 62
7
100
AcDbSpline
 70
8
 71
3
 72
8
 73
4
 74
0
 40
0
 40
0
 40
0
 40
0
 40
1
 40
1
 40
1
 40
1
 10
38.922925
 20
183.606490
 30
0.0
 10
38.922910
 20
183.976343
 30
0.0
 10
39.069797
 20
184.331053
 30
0.0
 10
39.331268
 20
184.592578
 30
0.0
  0
SPLINE
  5
108
100
AcDbEntity
  8
Layer_1
 62
7
100
AcDbSpline
 70
8
 71
3
 72
8
 73
4
 74
0
 40
0
 40
0
 40
0
 40
0
 40
1
 40
1
 40
1
 40
1
 10
39.331268
 20
184.592578
 30
0.0
 10
39.592740
 20
184.854103
 30
0.0
 10
39.947376
 20
185.001020
 30
0.0
 10
40.317152
 20
185.001004
 30
0.0
  0
SPLINE
  5
109
100
AcDbEntity
  8
Layer_1
 62
7
100
AcDbSpline
 70
8
 71
3
 72
8
 73
4
 74
0
 40
0
 40
0
 40
0
 40
0
 40
1
 40
1
 40
1
 40
1
 10
40.317152
 20
185.001004
 30
0.0
 10
40.686928
 20
185.001020
 30
0.0
 10
41.041564
 20
184.854103
 30
0.0
 10
41.303036
 20
184.592578
 30
0.0
  0
SPLINE
  5
10a
100
AcDbEntity
  8
Layer_1
 62
7
100
AcDbSpline
 70
8
 71
3
 72
8
 73
4
 74
0
 40
0
 40
0
 40
0
 40
0
 40
1
 40
1
 40
1
 40
1
 10
41.303036
 20
184.592578
 30
0.0
 10
41.564507
 20
184.331053
 30
0.0
 10
41.711394
 20
183.976343
 30
0.0
 10
41.711379
 20
183.606490
 30
0.0
  0
SPLINE
  5
10b
100
AcDbEntity
  8
Layer_1
 62
7
100
AcDbSpline
 70
8
 71
3
 72
8
 73
4
 74
0
 40
0
 40
0
 40
0
 40
0
 40
1
 40
1
 40
1
 40
1
 10
41.711379
 20
183.606490
 30
0.0
 10
41.711094
 20
182.836532
 30
0.0
 10
41.086951
 20
182.212517
 30
0.0
 10
40.317152
 20
182.212549
 30
0.0
  0
SPLINE
  5
10c
100
AcDbEntity
  8
Layer_1
 62
7
100
AcDbSpline
 70
8
 71
3
 72
8
 73
4
 74
0
 40
0
 40
0
 40
0
 40
0
 40
1
 40
1
 40
1
 40
1
 10
40.317152
 20
182.212549
 30
0.0
 10
39.547353
 20
182.212517
 30
0.0
 10
38.923210
 20
182.836532
 30
0.0
 10
38.922925
 20
183.606490
 30
0.0
  0
LINE
  5
10d
100
AcDbEntity
  8
Layer_1
 62
7
100
AcDbLine
 10
38.922925
 20
183.606490
 30
0.0
 11
38.922925
 21
183.606490
 31
0.0
  0
SPLINE
  5
10e
100
AcDbEntity
  8
Layer_1
 62
7
100
AcDbSpline
 70
8
 71
3
 72
8
 73
4
 74
0
 40
0
 40
0
 40
0
 40
0
 40
1
 40
1
 40
1
 40
1
 10
2.311720
 20
156.410764
 30
0.0
 10
2.311720
 20
155.856764
 30
0.0
 10
2.757659
 20
155.410825
 30
0.0
 10
3.311659
 20
155.410825
 30
0.0
  0
LINE
  5
10f
100
AcDbEntity
  8
Layer_1
 62
7
100
AcDbLine
 10
3.311659
 20
155.410825
 30
0.0
 11
43.061687
 21
155.410825
 31
0.0
  0
SPLINE
  5
110
100
AcDbEntity
  8
Layer_1
 62
7
100
AcDbSpline
 70
8
 71
3
 72
8
 73
4
 74
0
 40
0
 40
0
 40
0
 40
0
 40
1
 40
1
 40
1
 40
1
 10
43.061687
 20
155.410825
 30
0.0
 10
43.615687
 20
155.410825
 30
0.0
 10
44.061626
 20
155.856764
 30
0.0
 10
44.061626
 20
156.410764
 30
0.0
  0
LINE
  5
111
100
AcDbEntity
  8
Layer_1
 62
7
100
AcDbLine
 10
44.061626
 20
156.410764
 30
0.0
 11
44.061626
 21
186.399113
 31
0.0
  0
SPLINE
  5
112
100
AcDbEntity
  8
Layer_1
 62
7
100
AcDbSpline
 70
8
 71
3
 72
8
 73
4
 74
0
 40
0
 40
0
 40
0
 40
0
 40
1
 40
1
 40
1
 40
1
 10
44.061626
 20
186.399113
 30
0.0
 10
44.061626
 20
186.953112
 30
0.0
 10
43.615687
 20
187.399052
 30
0.0
 10
43.061687
 20
187.399052
 30
0.0
  0
LINE
  5
113
100
AcDbEntity
  8
Layer_1
 62
7
100
AcDbLine
 10
43.061687
 20
187.399052
 30
0.0
 11
3.311659
 21
187.399052
 31
0.0
  0
SPLINE
  5
114
100
AcDbEntity
  8
Layer_1
 62
7
100
AcDbSpline
 70
8
 71
3
 72
8
 73
4
 74
0
 40
0
 40
0
 40
0
 40
0
 40
1
 40
1
 40
1
 40
1
 10
3.311659
 20
187.399052
 30
0.0
 10
2.757659
 20
187.399052
 30
0.0
 10
2.311720
 20
186.953112
 30
0.0
 10
2.311720
 20
186.399113
 30
0.0
  0
LINE
  5
115
100
AcDbEntity
  8
Layer_1
 62
7
100
AcDbLine
 10
2.311720
 20
186.399113
 30
0.0
 11
2.311720
 21
156.410764
 31
0.0
  0
SPLINE
  5
116
100
AcDbEntity
  8
Layer_1
 62
1
100
AcDbSpline
 70
8
 71
3
 72
8
 73
4
 74
0
 40
0
 40
0
 40
0
 40
0
 40
1
 40
1
 40
1
 40
1
 10
12.054588
 20
160.085804
 30
0.0
 10
11.793158
 20
160.216403
 30
0.0
 10
11.629064
 20
160.399896
 30
0.0
 10
11.539912
 20
160.661327
 30
0.0
  0
SPLINE
  5
117
100
AcDbEntity
  8
Layer_1
 62
1
100
AcDbSpline
 70
8
 71
3
 72
8
 73
4
 74
0
 40
0
 40
0
 40
0
 40
0
 40
1
 40
1
 40
1
 40
1
 10
11.539912
 20
160.661327
 30
0.0
 10
11.442302
 20
160.947545
 30
0.0
 10
11.407458
 20
163.687531
 30
0.0
 10
11.402842
 20
171.438535
 30
0.0
  0
SPLINE
  5
118
100
AcDbEntity
  8
Layer_1
 62
1
100
AcDbSpline
 70
8
 71
3
 72
8
 73
4
 74
0
 40
0
 40
0
 40
0
 40
0
 40
1
 40
1
 40
1
 40
1
 10
11.402842
 20
171.438535
 30
0.0
 10
11.395942
 20
182.979025
 30
0.0
 10
11.363452
 20
182.452360
 30
0.0
 10
12.101948
 20
182.760923
 30
0.0
  0
SPLINE
  5
119
100
AcDbEntity
  8
Layer_1
 62
1
100
AcDbSpline
 70
8
 71
3
 72
8
 73
4
 74
0
 40
0
 40
0
 40
0
 40
0
 40
1
 40
1
 40
1
 40
1
 10
12.101948
 20
182.760923
 30
0.0
 10
12.430700
 20
182.898285
 30
0.0
 10
14.026173
 20
182.920567
 30
0.0
 10
23.153720
 20
182.915272
 30
0.0
  0
SPLINE
  5
11a
100
AcDbEntity
  8
Layer_1
 62
1
100
AcDbSpline
 70
8
 71
3
 72
8
 73
4
 74
0
 40
0
 40
0
 40
0
 40
0
 40
1
 40
1
 40
1
 40
1
 10
23.153720
 20
182.915272
 30
0.0
 10
31.117135
 20
182.910672
 30
0.0
 10
33.918561
 20
182.875902
 30
0.0
 10
34.205067
 20
182.778202
 30
0.0
  0
SPLINE
  5
11b
100
AcDbEntity
  8
Layer_1
 62
1
100
AcDbSpline
 70
8
 71
3
 72
8
 73
4
 74
0
 40
0
 40
0
 40
0
 40
0
 40
1
 40
1
 40
1
 40
1
 10
34.205067
 20
182.778202
 30
0.0
 10
34.466498
 20
182.689053
 30
0.0
 10
34.649990
 20
182.524957
 30
0.0
 10
34.780591
 20
182.263527
 30
0.0
  0
SPLINE
  5
11c
100
AcDbEntity
  8
Layer_1
 62
1
100
AcDbSpline
 70
8
 71
3
 72
8
 73
4
 74
0
 40
0
 40
0
 40
0
 40
0
 40
1
 40
1
 40
1
 40
1
 10
34.780591
 20
182.263527
 30
0.0
 10
34.959092
 20
181.906205
 30
0.0
 10
34.972329
 20
181.159015
 30
0.0
 10
34.972488
 20
171.431491
 30
0.0
  0
SPLINE
  5
11d
100
AcDbEntity
  8
Layer_1
 62
1
100
AcDbSpline
 70
8
 71
3
 72
8
 73
4
 74
0
 40
0
 40
0
 40
0
 40
0
 40
1
 40
1
 40
1
 40
1
 10
34.972488
 20
171.431491
 30
0.0
 10
34.972708
 20
159.832361
 30
0.0
 10
35.005548
 20
160.362705
 30
0.0
 10
34.267364
 20
160.054273
 30
0.0
  0
SPLINE
  5
11e
100
AcDbEntity
  8
Layer_1
 62
1
100
AcDbSpline
 70
8
 71
3
 72
8
 73
4
 74
0
 40
0
 40
0
 40
0
 40
0
 40
1
 40
1
 40
1
 40
1
 10
34.267364
 20
160.054273
 30
0.0
 10
33.938912
 20
159.917038
 30
0.0
 10
32.326826
 20
159.893761
 30
0.0
 10
23.160764
 20
159.893906
 30
0.0
  0
SPLINE
  5
11f
100
AcDbEntity
  8
Layer_1
 62
1
100
AcDbSpline
 70
8
 71
3
 72
8
 73
4
 74
0
 40
0
 40
0
 40
0
 40
0
 40
1
 40
1
 40
1
 40
1
 10
23.160764
 20
159.893906
 30
0.0
 10
13.172247
 20
159.894065
 30
0.0
 10
12.412116
 20
159.907196
 30
0.0
 10
12.054588
 20
160.085804
 30
0.0
  0
LINE
  5
120
100
AcDbEntity
  8
Layer_1
 62
1
100
AcDbLine
 10
12.054588
 20
160.085804
 30
0.0
 11
12.054588
 21
160.085804
 31
0.0
  0
LINE
  5
121
100
AcDbEntity
  8
Layer_1
 62
1
100
AcDbLine
 10
16.440671
 20
177.219268
 30
0.0
 11
16.440671
 21
171.407736
 31
0.0
  0
LINE
  5
122
100
AcDbEntity
  8
Layer_1
 62
1
100
AcDbLine
 10
16.440671
 20
171.407736
 30
0.0
 11
16.440671
 21
165.595687
 31
0.0
  0
LINE
  5
123
100
AcDbEntity
  8
Layer_1
 62
1
100
AcDbLine
 10
16.440671
 20
165.595687
 30
0.0
 11
17.372914
 21
165.595687
 31
0.0
  0
LINE
  5
124
100
AcDbEntity
  8
Layer_1
 62
1
100
AcDbLine
 10
17.372914
 20
165.595687
 30
0.0
 11
18.305157
 21
165.595687
 31
0.0
  0
LINE
  5
125
100
AcDbEntity
  8
Layer_1
 62
1
100
AcDbLine
 10
18.305157
 20
165.595687
 30
0.0
 11
18.305157
 21
168.063238
 31
0.0
  0
LINE
  5
126
100
AcDbEntity
  8
Layer_1
 62
1
100
AcDbLine
 10
18.305157
 20
168.063238
 30
0.0
 11
18.305157
 21
170.530271
 31
0.0
  0
LINE
  5
127
100
AcDbEntity
  8
Layer_1
 62
1
100
AcDbLine
 10
18.305157
 20
170.530271
 30
0.0
 11
18.845176
 21
170.530271
 31
0.0
  0
LINE
  5
128
100
AcDbEntity
  8
Layer_1
 62
1
100
AcDbLine
 10
18.845176
 20
170.530271
 30
0.0
 11
19.385711
 21
170.530271
 31
0.0
  0
LINE
  5
129
100
AcDbEntity
  8
Layer_1
 62
1
100
AcDbLine
 10
19.385711
 20
170.530271
 30
0.0
 11
19.599135
 21
169.954595
 31
0.0
  0
SPLINE
  5
12a
100
AcDbEntity
  8
Layer_1
 62
1
100
AcDbSpline
 70
8
 71
3
 72
8
 73
4
 74
0
 40
0
 40
0
 40
0
 40
0
 40
1
 40
1
 40
1
 40
1
 10
19.599135
 20
169.954595
 30
0.0
 10
19.716617
 20
169.637964
 30
0.0
 10
20.121787
 20
168.527919
 30
0.0
 10
20.499338
 20
167.487561
 30
0.0
  0
LINE
  5
12b
100
AcDbEntity
  8
Layer_1
 62
1
100
AcDbLine
 10
20.499338
 20
167.487561
 30
0.0
 11
21.186118
 21
165.595687
 31
0.0
  0
LINE
  5
12c
100
AcDbEntity
  8
Layer_1
 62
1
100
AcDbLine
 10
21.186118
 20
165.595687
 30
0.0
 11
22.224298
 21
165.595687
 31
0.0
  0
SPLINE
  5
12d
100
AcDbEntity
  8
Layer_1
 62
1
100
AcDbSpline
 70
8
 71
3
 72
8
 73
4
 74
0
 40
0
 40
0
 40
0
 40
0
 40
1
 40
1
 40
1
 40
1
 10
22.224298
 20
165.595687
 30
0.0
 10
23.167383
 20
165.595687
 30
0.0
 10
23.256319
 20
165.613657
 30
0.0
 10
23.191680
 20
165.787923
 30
0.0
  0
SPLINE
  5
12e
100
AcDbEntity
  8
Layer_1
 62
1
100
AcDbSpline
 70
8
 71
3
 72
8
 73
4
 74
0
 40
0
 40
0
 40
0
 40
0
 40
1
 40
1
 40
1
 40
1
 10
23.191680
 20
165.787923
 30
0.0
 10
23.152530
 20
165.893467
 30
0.0
 10
22.692017
 20
167.086412
 30
0.0
 10
22.168487
 20
168.438925
 30
0.0
  0
SPLINE
  5
12f
100
AcDbEntity
  8
Layer_1
 62
1
100
AcDbSpline
 70
8
 71
3
 72
8
 73
4
 74
0
 40
0
 40
0
 40
0
 40
0
 40
1
 40
1
 40
1
 40
1
 10
22.168487
 20
168.438925
 30
0.0
 10
21.555952
 20
170.021381
 30
0.0
 10
21.262029
 20
170.912830
 30
0.0
 10
21.343731
 20
170.940064
 30
0.0
  0
SPLINE
  5
130
100
AcDbEntity
  8
Layer_1
 62
1
100
AcDbSpline
 70
8
 71
3
 72
8
 73
4
 74
0
 40
0
 40
0
 40
0
 40
0
 40
1
 40
1
 40
1
 40
1
 10
21.343731
 20
170.940064
 30
0.0
 10
21.780306
 20
171.085589
 30
0.0
 10
22.370212
 20
171.676361
 30
0.0
 10
22.651662
 20
172.249545
 30
0.0
  0
SPLINE
  5
131
100
AcDbEntity
  8
Layer_1
 62
1
100
AcDbSpline
 70
8
 71
3
 72
8
 73
4
 74
0
 40
0
 40
0
 40
0
 40
0
 40
1
 40
1
 40
1
 40
1
 10
22.651662
 20
172.249545
 30
0.0
 10
22.930275
 20
172.816951
 30
0.0
 10
22.965338
 20
173.004674
 30
0.0
 10
22.965338
 20
173.937297
 30
0.0
  0
SPLINE
  5
132
100
AcDbEntity
  8
Layer_1
 62
1
100
AcDbSpline
 70
8
 71
3
 72
8
 73
4
 74
0
 40
0
 40
0
 40
0
 40
0
 40
1
 40
1
 40
1
 40
1
 10
22.965338
 20
173.937297
 30
0.0
 10
22.965338
 20
174.888611
 30
0.0
 10
22.934528
 20
175.047571
 30
0.0
 10
22.634092
 20
175.636935
 30
0.0
  0
SPLINE
  5
133
100
AcDbEntity
  8
Layer_1
 62
1
100
AcDbSpline
 70
8
 71
3
 72
8
 73
4
 74
0
 40
0
 40
0
 40
0
 40
0
 40
1
 40
1
 40
1
 40
1
 10
22.634092
 20
175.636935
 30
0.0
 10
22.243033
 20
176.404082
 30
0.0
 10
21.570656
 20
176.916648
 30
0.0
 10
20.713796
 20
177.100411
 30
0.0
  0
SPLINE
  5
134
100
AcDbEntity
  8
Layer_1
 62
1
100
AcDbSpline
 70
8
 71
3
 72
8
 73
4
 74
0
 40
0
 40
0
 40
0
 40
0
 40
1
 40
1
 40
1
 40
1
 10
20.713796
 20
177.100411
 30
0.0
 10
20.408293
 20
177.165931
 30
0.0
 10
19.321785
 20
177.219267
 30
0.0
 10
18.299473
 20
177.219267
 30
0.0
  0
LINE
  5
135
100
AcDbEntity
  8
Layer_1
 62
1
100
AcDbLine
 10
18.299473
 20
177.219267
 30
0.0
 11
16.440671
 21
177.219268
 31
0.0
  0
LINE
  5
136
100
AcDbEntity
  8
Layer_1
 62
1
100
AcDbLine
 10
18.305157
 20
175.574406
 30
0.0
 11
19.045164
 21
175.574406
 31
0.0
  0
SPLINE
  5
137
100
AcDbEntity
  8
Layer_1
 62
1
100
AcDbSpline
 70
8
 71
3
 72
8
 73
4
 74
0
 40
0
 40
0
 40
0
 40
0
 40
1
 40
1
 40
1
 40
1
 10
19.045164
 20
175.574406
 30
0.0
 10
19.928309
 20
175.574187
 30
0.0
 10
20.439953
 20
175.353095
 30
0.0
 10
20.797511
 20
174.817863
 30
0.0
  0
SPLINE
  5
138
100
AcDbEntity
  8
Layer_1
 62
1
100
AcDbSpline
 70
8
 71
3
 72
8
 73
4
 74
0
 40
0
 40
0
 40
0
 40
0
 40
1
 40
1
 40
1
 40
1
 10
20.797511
 20
174.817863
 30
0.0
 10
21.110567
 20
174.349245
 30
0.0
 10
21.137953
 20
173.396887
 30
0.0
 10
20.854351
 20
172.840724
 30
0.0
  0
SPLINE
  5
139
100
AcDbEntity
  8
Layer_1
 62
1
100
AcDbSpline
 70
8
 71
3
 72
8
 73
4
 74
0
 40
0
 40
0
 40
0
 40
0
 40
1
 40
1
 40
1
 40
1
 10
20.854351
 20
172.840724
 30
0.0
 10
20.537369
 20
172.219084
 30
0.0
 10
20.183547
 20
172.036465
 30
0.0
 10
19.186753
 20
171.978761
 30
0.0
  0
LINE
  5
13a
100
AcDbEntity
  8
Layer_1
 62
1
100
AcDbLine
 10
19.186753
 20
171.978761
 30
0.0
 11
18.305153
 21
171.927601
 31
0.0
  0
LINE
  5
13b
100
AcDbEntity
  8
Layer_1
 62
1
100
AcDbLine
 10
18.305153
 20
171.927601
 30
0.0
 11
18.305153
 21
173.751263
 31
0.0
  0
LINE
  5
13c
100
AcDbEntity
  8
Layer_1
 62
1
100
AcDbLine
 10
18.305153
 20
173.751263
 30
0.0
 11
18.305157
 21
175.574406
 31
0.0
  0
LINE
  5
13d
100
AcDbEntity
  8
Layer_1
 62
1
100
AcDbLine
 10
30.147801
 20
166.473086
 30
0.0
 11
30.147801
 21
167.350333
 31
0.0
  0
LINE
  5
13e
100
AcDbEntity
  8
Layer_1
 62
1
100
AcDbLine
 10
30.147801
 20
167.350333
 30
0.0
 11
28.228824
 21
167.350333
 31
0.0
  0
SPLINE
  5
13f
100
AcDbEntity
  8
Layer_1
 62
1
100
AcDbSpline
 70
8
 71
3
 72
8
 73
4
 74
0
 40
0
 40
0
 40
0
 40
0
 40
1
 40
1
 40
1
 40
1
 10
28.228824
 20
167.350333
 30
0.0
 10
27.173387
 20
167.350333
 30
0.0
 10
26.309847
 20
167.374943
 30
0.0
 10
26.309847
 20
167.405013
 30
0.0
  0
SPLINE
  5
140
100
AcDbEntity
  8
Layer_1
 62
1
100
AcDbSpline
 70
8
 71
3
 72
8
 73
4
 74
0
 40
0
 40
0
 40
0
 40
0
 40
1
 40
1
 40
1
 40
1
 10
26.309847
 20
167.405013
 30
0.0
 10
26.309847
 20
167.435083
 30
0.0
 10
27.173387
 20
169.291196
 30
0.0
 10
28.228824
 20
171.529701
 30
0.0
  0
LINE
  5
141
100
AcDbEntity
  8
Layer_1
 62
1
100
AcDbLine
 10
28.228824
 20
171.529701
 30
0.0
 11
30.147801
 21
175.599706
 31
0.0
  0
LINE
  5
142
100
AcDbEntity
  8
Layer_1
 62
1
100
AcDbLine
 10
30.147801
 20
175.599706
 30
0.0
 11
30.147801
 21
176.409532
 31
0.0
  0
LINE
  5
143
100
AcDbEntity
  8
Layer_1
 62
1
100
AcDbLine
 10
30.147801
 20
176.409532
 30
0.0
 11
30.147801
 21
177.219358
 31
0.0
  0
LINE
  5
144
100
AcDbEntity
  8
Layer_1
 62
1
100
AcDbLine
 10
30.147801
 20
177.219358
 30
0.0
 11
27.241922
 21
177.219358
 31
0.0
  0
LINE
  5
145
100
AcDbEntity
  8
Layer_1
 62
1
100
AcDbLine
 10
27.241922
 20
177.219358
 30
0.0
 11
24.336042
 21
177.219358
 31
0.0
  0
LINE
  5
146
100
AcDbEntity
  8
Layer_1
 62
1
100
AcDbLine
 10
24.336042
 20
177.219358
 30
0.0
 11
24.336042
 21
176.344763
 31
0.0
  0
LINE
  5
147
100
AcDbEntity
  8
Layer_1
 62
1
100
AcDbLine
 10
24.336042
 20
176.344763
 30
0.0
 11
24.336042
 21
175.470168
 31
0.0
  0
LINE
  5
148
100
AcDbEntity
  8
Layer_1
 62
1
100
AcDbLine
 10
24.336042
 20
175.470168
 30
0.0
 11
26.132598
 21
175.440098
 31
0.0
  0
LINE
  5
149
100
AcDbEntity
  8
Layer_1
 62
1
100
AcDbLine
 10
26.132598
 20
175.440098
 30
0.0
 11
27.929156
 21
175.410028
 31
0.0
  0
LINE
  5
14a
100
AcDbEntity
  8
Layer_1
 62
1
100
AcDbLine
 10
27.929156
 20
175.410028
 30
0.0
 11
25.968114
 21
171.264647
 31
0.0
  0
SPLINE
  5
14b
100
AcDbEntity
  8
Layer_1
 62
1
100
AcDbSpline
 70
8
 71
3
 72
8
 73
4
 74
0
 40
0
 40
0
 40
0
 40
0
 40
1
 40
1
 40
1
 40
1
 10
25.968114
 20
171.264647
 30
0.0
 10
24.012547
 20
167.130833
 30
0.0
 10
24.007074
 20
167.117138
 30
0.0
 10
24.007074
 20
166.357547
 30
0.0
  0
LINE
  5
14c
100
AcDbEntity
  8
Layer_1
 62
1
100
AcDbLine
 10
24.007074
 20
166.357547
 30
0.0
 11
24.007074
 21
165.595831
 31
0.0
  0
LINE
  5
14d
100
AcDbEntity
  8
Layer_1
 62
1
100
AcDbLine
 10
24.007074
 20
165.595831
 30
0.0
 11
27.077438
 21
165.595831
 31
0.0
  0
LINE
  5
14e
100
AcDbEntity
  8
Layer_1
 62
1
100
AcDbLine
 10
27.077438
 20
165.595831
 30
0.0
 11
30.147801
 21
165.595831
 31
0.0
  0
LINE
  5
14f
100
AcDbEntity
  8
Layer_1
 62
1
100
AcDbLine
 10
30.147801
 20
165.595831
 30
0.0
 11
30.147801
 21
166.473086
 31
0.0
  0
SPLINE
  5
150
100
AcDbEntity
  8
Layer_1
 62
7
100
AcDbSpline
 70
8
 71
3
 72
8
 73
4
 74
0
 40
0
 40
0
 40
0
 40
0
 40
1
 40
1
 40
1
 40
1
 10
38.922925
 20
159.202813
 30
0.0
 10
38.922910
 20
159.572666
 30
0.0
 10
39.069797
 20
159.927375
 30
0.0
 10
39.331268
 20
160.188901
 30
0.0
  0
SPLINE
  5
151
100
AcDbEntity
  8
Layer_1
 62
7
100
AcDbSpline
 70
8
 71
3
 72
8
 73
4
 74
0
 40
0
 40
0
 40
0
 40
0
 40
1
 40
1
 40
1
 40
1
 10
39.331268
 20
160.188901
 30
0.0
 10
39.592740
 20
160.450426
 30
0.0
 10
39.947376
 20
160.597343
 30
0.0
 10
40.317152
 20
160.597327
 30
0.0
  0
SPLINE
  5
152
100
AcDbEntity
  8
Layer_1
 62
7
100
AcDbSpline
 70
8
 71
3
 72
8
 73
4
 74
0
 40
0
 40
0
 40
0
 40
0
 40
1
 40
1
 40
1
 40
1
 10
40.317152
 20
160.597327
 30
0.0
 10
40.686928
 20
160.597343
 30
0.0
 10
41.041564
 20
160.450426
 30
0.0
 10
41.303036
 20
160.188901
 30
0.0
  0
SPLINE
  5
153
100
AcDbEntity
  8
Layer_1
 62
7
100
AcDbSpline
 70
8
 71
3
 72
8
 73
4
 74
0
 40
0
 40
0
 40
0
 40
0
 40
1
 40
1
 40
1
 40
1
 10
41.303036
 20
160.188901
 30
0.0
 10
41.564507
 20
159.927375
 30
0.0
 10
41.711394
 20
159.572666
 30
0.0
 10
41.711379
 20
159.202813
 30
0.0
  0
SPLINE
  5
154
100
AcDbEntity
  8
Layer_1
 62
7
100
AcDbSpline
 70
8
 71
3
 72
8
 73
4
 74
0
 40
0
 40
0
 40
0
 40
0
 40
1
 40
1
 40
1
 40
1
 10
41.711379
 20
159.202813
 30
0.0
 10
41.711094
 20
158.432854
 30
0.0
 10
41.086951
 20
157.808840
 30
0.0
 10
40.317152
 20
157.808872
 30
0.0
  0
SPLINE
  5
155
100
AcDbEntity
  8
Layer_1
 62
7
100
AcDbSpline
 70
8
 71
3
 72
8
 73
4
 74
0
 40
0
 40
0
 40
0
 40
0
 40
1
 40
1
 40
1
 40
1
 10
40.317152
 20
157.808872
 30
0.0
 10
39.547353
 20
157.808840
 30
0.0
 10
38.923210
 20
158.432854
 30
0.0
 10
38.922925
 20
159.202813
 30
0.0
  0
LINE
  5
156
100
AcDbEntity
  8
Layer_1
 62
7
100
AcDbLine
 10
38.922925
 20
159.202813
 30
0.0
 11
38.922925
 21
159.202813
 31
0.0
  0
SPLINE
  5
157
100
AcDbEntity
  8
Layer_1
 62
7
100
AcDbSpline
 70
8
 71
3
 72
8
 73
4
 74
0
 40
0
 40
0
 40
0
 40
0
 40
1
 40
1
 40
1
 40
1
 10
4.661967
 20
159.202813
 30
0.0
 10
4.661952
 20
159.572666
 30
0.0
 10
4.808839
 20
159.927375
 30
0.0
 10
5.070310
 20
160.188901
 30
0.0
  0
SPLINE
  5
158
100
AcDbEntity
  8
Layer_1
 62
7
100
AcDbSpline
 70
8
 71
3
 72
8
 73
4
 74
0
 40
0
 40
0
 40
0
 40
0
 40
1
 40
1
 40
1
 40
1
 10
5.070310
 20
160.188901
 30
0.0
 10
5.331782
 20
160.450426
 30
0.0
 10
5.686418
 20
160.597343
 30
0.0
 10
6.056194
 20
160.597327
 30
0.0
  0
SPLINE
  5
159
100
AcDbEntity
  8
Layer_1
 62
7
100
AcDbSpline
 70
8
 71
3
 72
8
 73
4
 74
0
 40
0
 40
0
 40
0
 40
0
 40
1
 40
1
 40
1
 40
1
 10
6.056194
 20
160.597327
 30
0.0
 10
6.425970
 20
160.597343
 30
0.0
 10
6.780606
 20
160.450426
 30
0.0
 10
7.042078
 20
160.188901
 30
0.0
  0
SPLINE
  5
15a
100
AcDbEntity
  8
Layer_1
 62
7
100
AcDbSpline
 70
8
 71
3
 72
8
 73
4
 74
0
 40
0
 40
0
 40
0
 40
0
 40
1
 40
1
 40
1
 40
1
 10
7.042078
 20
160.188901
 30
0.0
 10
7.303549
 20
159.927375
 30
0.0
 10
7.450436
 20
159.572666
 30
0.0
 10
7.450421
 20
159.202813
 30
0.0
  0
SPLINE
  5
15b
100
AcDbEntity
  8
Layer_1
 62
7
100
AcDbSpline
 70
8
 71
3
 72
8
 73
4
 74
0
 40
0
 40
0
 40
0
 40
0
 40
1
 40
1
 40
1
 40
1
 10
7.450421
 20
159.202813
 30
0.0
 10
7.450136
 20
158.432854
 30
0.0
 10
6.825993
 20
157.808840
 30
0.0
 10
6.056194
 20
157.808872
 30
0.0
  0
SPLINE
  5
15c
100
AcDbEntity
  8
Layer_1
 62
7
100
AcDbSpline
 70
8
 71
3
 72
8
 73
4
 74
0
 40
0
 40
0
 40
0
 40
0
 40
1
 40
1
 40
1
 40
1
 10
6.056194
 20
157.808872
 30
0.0
 10
5.286395
 20
157.808840
 30
0.0
 10
4.662252
 20
158.432854
 30
0.0
 10
4.661967
 20
159.202813
 30
0.0
  0
LINE
  5
15d
100
AcDbEntity
  8
Layer_1
 62
7
100
AcDbLine
 10
4.661967
 20
159.202813
 30
0.0
 11
4.661967
 21
159.202813
 31
0.0
  0
ENDSEC
  0
SECTION
  2
OBJECTS
  0
DICTIONARY
  5
C
330
0
100
AcDbDictionary
  3
ACAD_GROUP
350
D
  3
ACAD_MLINESTYLE
350
17
  0
DICTIONARY
  5
D
330
C
100
AcDbDictionary
  0
DICTIONARY
  5
1A
330
C
100
AcDbDictionary
  0
DICTIONARY
  5
17
330
C
100
AcDbDictionary
  3
STANDARD
350
18
  0
DICTIONARY
  5
19
330
C
100
AcDbDictionary
  0
ENDSEC
  0
EOF
