%TF.GenerationSoftware,KiCad,Pcbnew,(6.0.9)*%
%TF.CreationDate,2023-08-06T12:59:46+02:00*%
%TF.ProjectId,Vectrex_Lightpen_2,56656374-7265-4785-9f4c-696768747065,rev?*%
%TF.SameCoordinates,Original*%
%TF.FileFunction,Profile,NP*%
%FSLAX46Y46*%
G04 Gerber Fmt 4.6, Leading zero omitted, Abs format (unit mm)*
G04 Created by KiCad (PCBNEW (6.0.9)) date 2023-08-06 12:59:46*
%MOMM*%
%LPD*%
G01*
G04 APERTURE LIST*
%TA.AperFunction,Profile*%
%ADD10C,0.100000*%
%TD*%
%TA.AperFunction,Profile*%
%ADD11C,0.120000*%
%TD*%
G04 APERTURE END LIST*
D10*
X159747832Y-101833432D02*
X159747832Y-61916568D01*
X145250000Y-69150000D02*
G75*
G03*
X145250000Y-69150000I-1500000J0D01*
G01*
X158833432Y-61002168D02*
X128676568Y-61002168D01*
X127779968Y-101833432D02*
G75*
G03*
X128694400Y-102747832I914432J32D01*
G01*
X158833432Y-102747832D02*
G75*
G03*
X159747832Y-101833432I-32J914432D01*
G01*
X128694400Y-102747832D02*
X158833432Y-102747832D01*
X159747832Y-61916568D02*
G75*
G03*
X158833432Y-61002168I-914432J-32D01*
G01*
X149050000Y-95000000D02*
G75*
G03*
X149050000Y-95000000I-1250000J0D01*
G01*
X127762168Y-61916568D02*
X127780000Y-101833432D01*
X140750000Y-95000000D02*
G75*
G03*
X140750000Y-95000000I-1250000J0D01*
G01*
X154000000Y-67550000D02*
G75*
G03*
X154000000Y-67550000I-1500000J0D01*
G01*
X136400000Y-68750000D02*
G75*
G03*
X136400000Y-68750000I-1500000J0D01*
G01*
X128676568Y-61002168D02*
G75*
G03*
X127762168Y-61916568I32J-914432D01*
G01*
D11*
%TO.C,J1*%
X145592800Y-74295000D02*
X133096000Y-74295000D01*
X133096000Y-87718900D02*
X133096000Y-89522300D01*
X133096000Y-89522300D02*
X145592800Y-89522300D01*
X145592800Y-74295000D02*
X145592800Y-76098400D01*
X133096000Y-76098400D02*
X145592800Y-76098400D01*
X145592800Y-87718900D02*
X145592800Y-89522300D01*
X133096000Y-74295000D02*
X133096000Y-76098400D01*
X145592800Y-87718900D02*
X133096000Y-87718900D01*
%TD*%
M02*
