%TF.GenerationSoftware,KiCad,Pcbnew,(6.0.9)*%
%TF.CreationDate,2023-08-06T12:59:45+02:00*%
%TF.ProjectId,Vectrex_Lightpen_2,56656374-7265-4785-9f4c-696768747065,rev?*%
%TF.SameCoordinates,Original*%
%TF.FileFunction,Copper,L2,Bot*%
%TF.FilePolarity,Positive*%
%FSLAX46Y46*%
G04 Gerber Fmt 4.6, Leading zero omitted, Abs format (unit mm)*
G04 Created by KiCad (PCBNEW (6.0.9)) date 2023-08-06 12:59:45*
%MOMM*%
%LPD*%
G01*
G04 APERTURE LIST*
G04 Aperture macros list*
%AMRoundRect*
0 Rectangle with rounded corners*
0 $1 Rounding radius*
0 $2 $3 $4 $5 $6 $7 $8 $9 X,Y pos of 4 corners*
0 Add a 4 corners polygon primitive as box body*
4,1,4,$2,$3,$4,$5,$6,$7,$8,$9,$2,$3,0*
0 Add four circle primitives for the rounded corners*
1,1,$1+$1,$2,$3*
1,1,$1+$1,$4,$5*
1,1,$1+$1,$6,$7*
1,1,$1+$1,$8,$9*
0 Add four rect primitives between the rounded corners*
20,1,$1+$1,$2,$3,$4,$5,0*
20,1,$1+$1,$4,$5,$6,$7,0*
20,1,$1+$1,$6,$7,$8,$9,0*
20,1,$1+$1,$8,$9,$2,$3,0*%
G04 Aperture macros list end*
%TA.AperFunction,ComponentPad*%
%ADD10R,1.900000X1.900000*%
%TD*%
%TA.AperFunction,ComponentPad*%
%ADD11C,1.900000*%
%TD*%
%TA.AperFunction,ComponentPad*%
%ADD12C,1.600000*%
%TD*%
%TA.AperFunction,ComponentPad*%
%ADD13R,1.600000X1.600000*%
%TD*%
%TA.AperFunction,ComponentPad*%
%ADD14O,1.600000X1.600000*%
%TD*%
%TA.AperFunction,ComponentPad*%
%ADD15RoundRect,0.250000X-0.350000X-0.650000X0.350000X-0.650000X0.350000X0.650000X-0.350000X0.650000X0*%
%TD*%
%TA.AperFunction,ComponentPad*%
%ADD16O,1.200000X1.800000*%
%TD*%
%TA.AperFunction,ComponentPad*%
%ADD17RoundRect,0.250000X0.550000X0.550000X-0.550000X0.550000X-0.550000X-0.550000X0.550000X-0.550000X0*%
%TD*%
%TA.AperFunction,ComponentPad*%
%ADD18R,1.050000X1.500000*%
%TD*%
%TA.AperFunction,ComponentPad*%
%ADD19O,1.050000X1.500000*%
%TD*%
%TA.AperFunction,ComponentPad*%
%ADD20C,1.400000*%
%TD*%
%TA.AperFunction,ComponentPad*%
%ADD21O,1.400000X1.400000*%
%TD*%
%TA.AperFunction,ViaPad*%
%ADD22C,0.800000*%
%TD*%
%TA.AperFunction,Conductor*%
%ADD23C,0.250000*%
%TD*%
G04 APERTURE END LIST*
D10*
%TO.P,J1,1,1*%
%TO.N,/1*%
X147574000Y-76352400D03*
D11*
%TO.P,J1,2,2*%
%TO.N,/2*%
X147574000Y-79122400D03*
%TO.P,J1,3,3*%
%TO.N,/3*%
X147574000Y-81892400D03*
%TO.P,J1,4,4*%
%TO.N,/4*%
X147574000Y-84662400D03*
%TO.P,J1,5,5*%
%TO.N,/X*%
X147574000Y-87432400D03*
%TO.P,J1,6,6*%
%TO.N,/Y*%
X144734000Y-77737400D03*
%TO.P,J1,7,7*%
%TO.N,+5V*%
X144734000Y-80507400D03*
%TO.P,J1,8,8*%
%TO.N,GND*%
X144734000Y-83277400D03*
%TO.P,J1,9,9*%
%TO.N,/-5*%
X144734000Y-86047400D03*
%TD*%
D12*
%TO.P,J3,9,Pin_9*%
%TO.N,/-5*%
X155635400Y-70280000D03*
%TO.P,J3,8,Pin_8*%
%TO.N,GND*%
X153095400Y-70280000D03*
%TO.P,J3,7,Pin_7*%
%TO.N,+5V*%
X150555400Y-70280000D03*
%TO.P,J3,6,Pin_6*%
%TO.N,/Y*%
X148015400Y-70280000D03*
%TO.P,J3,5,Pin_5*%
%TO.N,/X*%
X156905400Y-72820000D03*
%TO.P,J3,4,Pin_4*%
%TO.N,/4*%
X154420400Y-72820000D03*
%TO.P,J3,3,Pin_3*%
%TO.N,/3*%
X151825400Y-72820000D03*
%TO.P,J3,2,Pin_2*%
%TO.N,/2*%
X149285400Y-72820000D03*
D13*
%TO.P,J3,1,Pin_1*%
%TO.N,/1*%
X146745400Y-72820000D03*
%TD*%
%TO.P,U1,1*%
%TO.N,Net-(Q1-Pad3)*%
X157950000Y-91250000D03*
D14*
%TO.P,U1,2*%
X157950000Y-88710000D03*
%TO.P,U1,3*%
%TO.N,/Lp 4*%
X157950000Y-86170000D03*
%TO.P,U1,4*%
%TO.N,unconnected-(U1-Pad4)*%
X157950000Y-83630000D03*
%TO.P,U1,5*%
%TO.N,unconnected-(U1-Pad5)*%
X157950000Y-81090000D03*
%TO.P,U1,6*%
%TO.N,unconnected-(U1-Pad6)*%
X157950000Y-78550000D03*
%TO.P,U1,7,GND*%
%TO.N,GND*%
X157950000Y-76010000D03*
%TO.P,U1,8*%
%TO.N,unconnected-(U1-Pad8)*%
X150330000Y-76010000D03*
%TO.P,U1,9*%
%TO.N,unconnected-(U1-Pad9)*%
X150330000Y-78550000D03*
%TO.P,U1,10*%
%TO.N,unconnected-(U1-Pad10)*%
X150330000Y-81090000D03*
%TO.P,U1,11*%
%TO.N,unconnected-(U1-Pad11)*%
X150330000Y-83630000D03*
%TO.P,U1,12*%
%TO.N,unconnected-(U1-Pad12)*%
X150330000Y-86170000D03*
%TO.P,U1,13*%
%TO.N,unconnected-(U1-Pad13)*%
X150330000Y-88710000D03*
%TO.P,U1,14,VCC*%
%TO.N,+5V*%
X150330000Y-91250000D03*
%TD*%
D15*
%TO.P,J4,1,Pin_1*%
%TO.N,/4*%
X138050000Y-91600000D03*
D16*
%TO.P,J4,2,Pin_2*%
%TO.N,/3*%
X140050000Y-91600000D03*
%TO.P,J4,3,Pin_3*%
%TO.N,/2*%
X142050000Y-91600000D03*
%TO.P,J4,4,Pin_4*%
%TO.N,/1*%
X144050000Y-91600000D03*
%TO.P,J4,5,Pin_5*%
%TO.N,/Light*%
X146050000Y-91600000D03*
%TO.P,J4,6,Pin_6*%
%TO.N,GND*%
X148050000Y-91600000D03*
%TD*%
D12*
%TO.P,C1,2*%
%TO.N,GND*%
X138900000Y-98900000D03*
D13*
%TO.P,C1,1*%
%TO.N,+5V*%
X136900000Y-98900000D03*
%TD*%
D17*
%TO.P,J2,1,Pin_1*%
%TO.N,+5V*%
X142549500Y-72650000D03*
D12*
%TO.P,J2,2,Pin_2*%
%TO.N,/Lp 4*%
X139554500Y-72650000D03*
%TO.P,J2,3,Pin_3*%
%TO.N,GND*%
X136550500Y-72650000D03*
%TD*%
D18*
%TO.P,Q1,1,E*%
%TO.N,GND*%
X148230000Y-99110000D03*
D19*
%TO.P,Q1,2,B*%
%TO.N,Net-(C2-Pad2)*%
X149500000Y-99110000D03*
%TO.P,Q1,3,C*%
%TO.N,Net-(Q1-Pad3)*%
X150770000Y-99110000D03*
%TD*%
D12*
%TO.P,C2,1*%
%TO.N,/Light*%
X153000000Y-94400000D03*
%TO.P,C2,2*%
%TO.N,Net-(C2-Pad2)*%
X155500000Y-94400000D03*
%TD*%
D20*
%TO.P,R1,1*%
%TO.N,+5V*%
X153000000Y-85500000D03*
D21*
%TO.P,R1,2*%
%TO.N,/Light*%
X153000000Y-90580000D03*
%TD*%
%TO.P,R3,2*%
%TO.N,Net-(Q1-Pad3)*%
X154300000Y-82540000D03*
D20*
%TO.P,R3,1*%
%TO.N,+5V*%
X154300000Y-77460000D03*
%TD*%
D21*
%TO.P,R2,2*%
%TO.N,Net-(C2-Pad2)*%
X155500000Y-90580000D03*
D20*
%TO.P,R2,1*%
%TO.N,Net-(Q1-Pad3)*%
X155500000Y-85500000D03*
%TD*%
D22*
%TO.N,/Lp 4*%
X153850000Y-79700000D03*
%TD*%
D23*
%TO.N,/Y*%
X146150000Y-76321400D02*
X144734000Y-77737400D01*
X146650000Y-74650000D02*
X146150000Y-75150000D01*
X147500000Y-74650000D02*
X146650000Y-74650000D01*
X148015400Y-74134600D02*
X147500000Y-74650000D01*
X146150000Y-75150000D02*
X146150000Y-76321400D01*
X148015400Y-70280000D02*
X148015400Y-74134600D01*
%TO.N,/Lp 4*%
X156450000Y-82300000D02*
X153850000Y-79700000D01*
X156450000Y-84400000D02*
X156450000Y-82300000D01*
X157950000Y-85900000D02*
X156450000Y-84400000D01*
X157950000Y-86170000D02*
X157950000Y-85900000D01*
%TO.N,/1*%
X146200000Y-89600000D02*
X144200000Y-91600000D01*
X144200000Y-91600000D02*
X144050000Y-91600000D01*
X146200000Y-77726400D02*
X146200000Y-89600000D01*
X147574000Y-76352400D02*
X146200000Y-77726400D01*
%TO.N,/4*%
X152024901Y-81275099D02*
X152024901Y-75215499D01*
X152024901Y-75215499D02*
X154420400Y-72820000D01*
X150950000Y-82350000D02*
X152024901Y-81275099D01*
X149600000Y-82350000D02*
X150950000Y-82350000D01*
X147574000Y-84662400D02*
X147574000Y-84376000D01*
X147574000Y-84376000D02*
X149600000Y-82350000D01*
%TO.N,+5V*%
X147050000Y-69050000D02*
X149325400Y-69050000D01*
X149325400Y-69050000D02*
X150555400Y-70280000D01*
X142549500Y-72650000D02*
X143450000Y-72650000D01*
X143450000Y-72650000D02*
X147050000Y-69050000D01*
%TO.N,Net-(Q1-Pad3)*%
X157950000Y-88400000D02*
X157950000Y-88710000D01*
X155500000Y-85500000D02*
X155500000Y-85950000D01*
X155500000Y-85950000D02*
X157950000Y-88400000D01*
X155500000Y-84700000D02*
X155500000Y-85500000D01*
X154300000Y-83500000D02*
X155500000Y-84700000D01*
X154300000Y-82540000D02*
X154300000Y-83500000D01*
%TO.N,+5V*%
X150330000Y-90684310D02*
X150330000Y-91250000D01*
X153000000Y-85500000D02*
X153000000Y-88014310D01*
X153000000Y-88014310D02*
X150330000Y-90684310D01*
%TO.N,/X*%
X151000000Y-84900000D02*
X152474402Y-83425598D01*
X152474402Y-77075598D02*
X156730000Y-72820000D01*
X149850000Y-84900000D02*
X151000000Y-84900000D01*
X152474402Y-83425598D02*
X152474402Y-77075598D01*
X147574000Y-87176000D02*
X149850000Y-84900000D01*
X156730000Y-72820000D02*
X156905400Y-72820000D01*
X147574000Y-87432400D02*
X147574000Y-87176000D01*
%TO.N,/3*%
X151050000Y-79850000D02*
X149214310Y-79850000D01*
X151575400Y-73070000D02*
X151575400Y-79324600D01*
X151575400Y-79324600D02*
X151050000Y-79850000D01*
X149214310Y-79850000D02*
X147574000Y-81490310D01*
X147574000Y-81490310D02*
X147574000Y-81892400D01*
X151825400Y-72820000D02*
X151575400Y-73070000D01*
%TO.N,/2*%
X149000000Y-77464310D02*
X147574000Y-78890310D01*
X147574000Y-78890310D02*
X147574000Y-79122400D01*
X149285400Y-72820000D02*
X149000000Y-73105400D01*
X149000000Y-73105400D02*
X149000000Y-77464310D01*
%TO.N,+5V*%
X153000000Y-78760000D02*
X154300000Y-77460000D01*
X153000000Y-85500000D02*
X153000000Y-78760000D01*
%TD*%
%TA.AperFunction,Conductor*%
%TO.N,GND*%
G36*
X159103737Y-61620002D02*
G01*
X159135578Y-61649295D01*
X159174180Y-61699601D01*
X159199781Y-61765821D01*
X159200218Y-61776150D01*
X159216756Y-75138911D01*
X159196838Y-75207057D01*
X159143240Y-75253616D01*
X159072979Y-75263807D01*
X159008361Y-75234393D01*
X158987542Y-75211337D01*
X158958970Y-75170530D01*
X158951916Y-75162125D01*
X158797875Y-75008084D01*
X158789467Y-75001028D01*
X158611007Y-74876069D01*
X158601511Y-74870586D01*
X158404053Y-74778510D01*
X158393761Y-74774764D01*
X158221497Y-74728606D01*
X158207401Y-74728942D01*
X158204000Y-74736884D01*
X158204000Y-76138000D01*
X158183998Y-76206121D01*
X158130342Y-76252614D01*
X158078000Y-76264000D01*
X156682033Y-76264000D01*
X156668502Y-76267973D01*
X156667273Y-76276522D01*
X156714764Y-76453761D01*
X156718510Y-76464053D01*
X156810586Y-76661511D01*
X156816069Y-76671007D01*
X156941028Y-76849467D01*
X156948084Y-76857875D01*
X157102125Y-77011916D01*
X157110533Y-77018972D01*
X157288993Y-77143931D01*
X157298489Y-77149414D01*
X157333049Y-77165529D01*
X157386334Y-77212446D01*
X157405795Y-77280723D01*
X157385253Y-77348683D01*
X157333049Y-77393919D01*
X157298238Y-77410151D01*
X157298233Y-77410154D01*
X157293251Y-77412477D01*
X157220857Y-77463168D01*
X157110211Y-77540643D01*
X157110208Y-77540645D01*
X157105700Y-77543802D01*
X156943802Y-77705700D01*
X156940645Y-77710208D01*
X156940643Y-77710211D01*
X156909309Y-77754961D01*
X156812477Y-77893251D01*
X156810154Y-77898233D01*
X156810151Y-77898238D01*
X156733986Y-78061577D01*
X156715716Y-78100757D01*
X156656457Y-78321913D01*
X156636502Y-78550000D01*
X156656457Y-78778087D01*
X156657881Y-78783400D01*
X156657881Y-78783402D01*
X156692544Y-78912763D01*
X156715716Y-78999243D01*
X156718039Y-79004224D01*
X156718039Y-79004225D01*
X156810151Y-79201762D01*
X156810154Y-79201767D01*
X156812477Y-79206749D01*
X156943802Y-79394300D01*
X157105700Y-79556198D01*
X157110208Y-79559355D01*
X157110211Y-79559357D01*
X157154921Y-79590663D01*
X157293251Y-79687523D01*
X157298233Y-79689846D01*
X157298238Y-79689849D01*
X157332457Y-79705805D01*
X157385742Y-79752722D01*
X157405203Y-79820999D01*
X157384661Y-79888959D01*
X157332457Y-79934195D01*
X157298238Y-79950151D01*
X157298233Y-79950154D01*
X157293251Y-79952477D01*
X157188389Y-80025902D01*
X157110211Y-80080643D01*
X157110208Y-80080645D01*
X157105700Y-80083802D01*
X156943802Y-80245700D01*
X156812477Y-80433251D01*
X156810154Y-80438233D01*
X156810151Y-80438238D01*
X156719098Y-80633505D01*
X156715716Y-80640757D01*
X156714294Y-80646065D01*
X156714293Y-80646067D01*
X156690597Y-80734500D01*
X156656457Y-80861913D01*
X156636502Y-81090000D01*
X156643985Y-81175525D01*
X156654326Y-81293728D01*
X156640337Y-81363333D01*
X156590937Y-81414326D01*
X156521811Y-81430516D01*
X156454906Y-81406764D01*
X156439710Y-81393805D01*
X154797122Y-79751217D01*
X154763096Y-79688905D01*
X154760907Y-79675292D01*
X154744232Y-79516635D01*
X154744232Y-79516633D01*
X154743542Y-79510072D01*
X154684527Y-79328444D01*
X154589040Y-79163056D01*
X154553110Y-79123151D01*
X154465675Y-79026045D01*
X154465674Y-79026044D01*
X154461253Y-79021134D01*
X154342967Y-78935194D01*
X154312094Y-78912763D01*
X154312093Y-78912762D01*
X154306752Y-78908882D01*
X154300723Y-78906198D01*
X154296125Y-78903543D01*
X154247133Y-78852159D01*
X154233698Y-78782445D01*
X154260086Y-78716535D01*
X154317919Y-78675354D01*
X154348145Y-78668904D01*
X154389835Y-78665256D01*
X154510655Y-78654686D01*
X154515968Y-78653262D01*
X154515970Y-78653262D01*
X154709600Y-78601379D01*
X154709602Y-78601378D01*
X154714910Y-78599956D01*
X154719892Y-78597633D01*
X154901577Y-78512912D01*
X154901580Y-78512910D01*
X154906558Y-78510589D01*
X155079776Y-78389301D01*
X155229301Y-78239776D01*
X155350589Y-78066558D01*
X155409101Y-77941080D01*
X155437633Y-77879892D01*
X155437634Y-77879891D01*
X155439956Y-77874910D01*
X155473244Y-77750680D01*
X155493262Y-77675970D01*
X155493262Y-77675968D01*
X155494686Y-77670655D01*
X155513116Y-77460000D01*
X155494686Y-77249345D01*
X155491245Y-77236502D01*
X155441379Y-77050400D01*
X155441378Y-77050398D01*
X155439956Y-77045090D01*
X155350589Y-76853442D01*
X155229301Y-76680224D01*
X155079776Y-76530699D01*
X154906558Y-76409411D01*
X154901580Y-76407090D01*
X154901577Y-76407088D01*
X154719892Y-76322367D01*
X154719891Y-76322366D01*
X154714910Y-76320044D01*
X154709602Y-76318622D01*
X154709600Y-76318621D01*
X154515970Y-76266738D01*
X154515968Y-76266738D01*
X154510655Y-76265314D01*
X154505171Y-76264834D01*
X154505164Y-76264833D01*
X154476322Y-76262309D01*
X154410204Y-76236446D01*
X154368565Y-76178942D01*
X154364625Y-76108055D01*
X154398210Y-76047694D01*
X154707401Y-75738503D01*
X156668606Y-75738503D01*
X156668942Y-75752599D01*
X156676884Y-75756000D01*
X157677885Y-75756000D01*
X157693124Y-75751525D01*
X157694329Y-75750135D01*
X157696000Y-75742452D01*
X157696000Y-74742033D01*
X157692027Y-74728502D01*
X157683478Y-74727273D01*
X157506239Y-74774764D01*
X157495947Y-74778510D01*
X157298489Y-74870586D01*
X157288993Y-74876069D01*
X157110533Y-75001028D01*
X157102125Y-75008084D01*
X156948084Y-75162125D01*
X156941028Y-75170533D01*
X156816069Y-75348993D01*
X156810586Y-75358489D01*
X156718510Y-75555947D01*
X156714764Y-75566239D01*
X156668606Y-75738503D01*
X154707401Y-75738503D01*
X156353818Y-74092086D01*
X156416130Y-74058060D01*
X156475524Y-74059474D01*
X156671998Y-74112119D01*
X156672000Y-74112119D01*
X156677313Y-74113543D01*
X156905400Y-74133498D01*
X157133487Y-74113543D01*
X157138800Y-74112119D01*
X157138802Y-74112119D01*
X157349333Y-74055707D01*
X157349335Y-74055706D01*
X157354643Y-74054284D01*
X157385895Y-74039711D01*
X157557162Y-73959849D01*
X157557167Y-73959846D01*
X157562149Y-73957523D01*
X157720830Y-73846413D01*
X157745189Y-73829357D01*
X157745192Y-73829355D01*
X157749700Y-73826198D01*
X157911598Y-73664300D01*
X158042923Y-73476749D01*
X158045246Y-73471767D01*
X158045249Y-73471762D01*
X158137361Y-73274225D01*
X158137361Y-73274224D01*
X158139684Y-73269243D01*
X158174877Y-73137904D01*
X158197519Y-73053402D01*
X158197519Y-73053400D01*
X158198943Y-73048087D01*
X158218898Y-72820000D01*
X158198943Y-72591913D01*
X158139684Y-72370757D01*
X158085548Y-72254661D01*
X158045249Y-72168238D01*
X158045246Y-72168233D01*
X158042923Y-72163251D01*
X157965596Y-72052817D01*
X157914757Y-71980211D01*
X157914755Y-71980208D01*
X157911598Y-71975700D01*
X157749700Y-71813802D01*
X157745192Y-71810645D01*
X157745189Y-71810643D01*
X157608719Y-71715086D01*
X157562149Y-71682477D01*
X157557167Y-71680154D01*
X157557162Y-71680151D01*
X157359625Y-71588039D01*
X157359624Y-71588039D01*
X157354643Y-71585716D01*
X157349335Y-71584294D01*
X157349333Y-71584293D01*
X157138802Y-71527881D01*
X157138800Y-71527881D01*
X157133487Y-71526457D01*
X156905400Y-71506502D01*
X156677313Y-71526457D01*
X156672000Y-71527881D01*
X156671998Y-71527881D01*
X156491614Y-71576215D01*
X156420638Y-71574525D01*
X156361842Y-71534731D01*
X156333894Y-71469467D01*
X156345667Y-71399453D01*
X156386732Y-71351295D01*
X156400240Y-71341837D01*
X156420825Y-71327423D01*
X156475189Y-71289357D01*
X156475192Y-71289355D01*
X156479700Y-71286198D01*
X156641598Y-71124300D01*
X156772923Y-70936749D01*
X156775246Y-70931767D01*
X156775249Y-70931762D01*
X156867361Y-70734225D01*
X156867361Y-70734224D01*
X156869684Y-70729243D01*
X156873579Y-70714709D01*
X156927519Y-70513402D01*
X156927519Y-70513400D01*
X156928943Y-70508087D01*
X156948898Y-70280000D01*
X156928943Y-70051913D01*
X156915164Y-70000490D01*
X156871107Y-69836067D01*
X156871106Y-69836065D01*
X156869684Y-69830757D01*
X156821039Y-69726437D01*
X156775249Y-69628238D01*
X156775246Y-69628233D01*
X156772923Y-69623251D01*
X156664226Y-69468016D01*
X156644757Y-69440211D01*
X156644755Y-69440208D01*
X156641598Y-69435700D01*
X156479700Y-69273802D01*
X156475192Y-69270645D01*
X156475189Y-69270643D01*
X156362545Y-69191769D01*
X156292149Y-69142477D01*
X156287167Y-69140154D01*
X156287162Y-69140151D01*
X156089625Y-69048039D01*
X156089624Y-69048039D01*
X156084643Y-69045716D01*
X156079335Y-69044294D01*
X156079333Y-69044293D01*
X155868802Y-68987881D01*
X155868800Y-68987881D01*
X155863487Y-68986457D01*
X155635400Y-68966502D01*
X155407313Y-68986457D01*
X155402000Y-68987881D01*
X155401998Y-68987881D01*
X155191467Y-69044293D01*
X155191465Y-69044294D01*
X155186157Y-69045716D01*
X155181176Y-69048039D01*
X155181175Y-69048039D01*
X154983638Y-69140151D01*
X154983633Y-69140154D01*
X154978651Y-69142477D01*
X154908255Y-69191769D01*
X154795611Y-69270643D01*
X154795608Y-69270645D01*
X154791100Y-69273802D01*
X154629202Y-69435700D01*
X154626045Y-69440208D01*
X154626043Y-69440211D01*
X154606574Y-69468016D01*
X154497877Y-69623251D01*
X154495554Y-69628233D01*
X154495551Y-69628238D01*
X154479319Y-69663049D01*
X154432402Y-69716334D01*
X154364125Y-69735795D01*
X154296165Y-69715253D01*
X154250929Y-69663049D01*
X154234814Y-69628489D01*
X154229331Y-69618994D01*
X154192891Y-69566952D01*
X154182412Y-69558576D01*
X154168966Y-69565644D01*
X153467422Y-70267188D01*
X153459808Y-70281132D01*
X153459939Y-70282965D01*
X153464190Y-70289580D01*
X154169687Y-70995077D01*
X154181462Y-71001507D01*
X154193477Y-70992211D01*
X154229331Y-70941006D01*
X154234814Y-70931511D01*
X154250929Y-70896951D01*
X154297846Y-70843666D01*
X154366123Y-70824205D01*
X154434083Y-70844747D01*
X154479319Y-70896951D01*
X154495551Y-70931762D01*
X154495554Y-70931767D01*
X154497877Y-70936749D01*
X154629202Y-71124300D01*
X154791100Y-71286198D01*
X154795608Y-71289355D01*
X154795611Y-71289357D01*
X154849975Y-71327423D01*
X154894303Y-71382880D01*
X154901612Y-71453500D01*
X154869581Y-71516860D01*
X154808380Y-71552845D01*
X154745092Y-71552342D01*
X154653810Y-71527882D01*
X154653796Y-71527879D01*
X154648487Y-71526457D01*
X154420400Y-71506502D01*
X154192313Y-71526457D01*
X154187000Y-71527881D01*
X154186998Y-71527881D01*
X153976467Y-71584293D01*
X153976465Y-71584294D01*
X153971157Y-71585716D01*
X153966175Y-71588039D01*
X153966170Y-71588041D01*
X153899091Y-71619320D01*
X153828900Y-71629981D01*
X153790751Y-71612923D01*
X153790878Y-71628980D01*
X153752969Y-71689009D01*
X153741978Y-71697653D01*
X153717081Y-71715086D01*
X153580611Y-71810643D01*
X153580608Y-71810645D01*
X153576100Y-71813802D01*
X153414202Y-71975700D01*
X153411045Y-71980208D01*
X153411043Y-71980211D01*
X153360204Y-72052817D01*
X153282877Y-72163251D01*
X153280554Y-72168233D01*
X153280551Y-72168238D01*
X153237095Y-72261431D01*
X153190178Y-72314716D01*
X153121901Y-72334177D01*
X153053941Y-72313635D01*
X153008705Y-72261431D01*
X152965249Y-72168238D01*
X152965246Y-72168233D01*
X152962923Y-72163251D01*
X152885596Y-72052817D01*
X152834757Y-71980211D01*
X152834755Y-71980208D01*
X152831598Y-71975700D01*
X152669700Y-71813802D01*
X152665192Y-71810645D01*
X152665189Y-71810643D01*
X152575535Y-71747867D01*
X152531207Y-71692410D01*
X152523898Y-71621791D01*
X152555929Y-71558430D01*
X152617130Y-71522445D01*
X152680417Y-71522947D01*
X152862088Y-71571625D01*
X152872881Y-71573528D01*
X153089925Y-71592517D01*
X153100875Y-71592517D01*
X153317919Y-71573528D01*
X153328712Y-71571625D01*
X153539161Y-71515236D01*
X153549453Y-71511490D01*
X153616454Y-71480247D01*
X153686646Y-71469586D01*
X153724795Y-71486644D01*
X153724668Y-71470586D01*
X153762577Y-71410558D01*
X153773571Y-71401912D01*
X153808448Y-71377491D01*
X153816824Y-71367012D01*
X153809756Y-71353566D01*
X153108212Y-70652022D01*
X153094268Y-70644408D01*
X153092435Y-70644539D01*
X153085820Y-70648790D01*
X152380323Y-71354287D01*
X152373893Y-71366062D01*
X152385605Y-71381200D01*
X152411468Y-71447319D01*
X152397479Y-71516924D01*
X152348079Y-71567916D01*
X152278953Y-71584106D01*
X152253340Y-71580008D01*
X152053487Y-71526457D01*
X151825400Y-71506502D01*
X151597313Y-71526457D01*
X151592000Y-71527881D01*
X151591998Y-71527881D01*
X151411614Y-71576215D01*
X151340638Y-71574525D01*
X151281842Y-71534731D01*
X151253894Y-71469467D01*
X151265667Y-71399453D01*
X151306732Y-71351295D01*
X151320240Y-71341837D01*
X151340825Y-71327423D01*
X151395189Y-71289357D01*
X151395192Y-71289355D01*
X151399700Y-71286198D01*
X151561598Y-71124300D01*
X151692923Y-70936749D01*
X151695246Y-70931767D01*
X151695249Y-70931762D01*
X151711481Y-70896951D01*
X151758398Y-70843666D01*
X151826675Y-70824205D01*
X151894635Y-70844747D01*
X151939871Y-70896951D01*
X151955986Y-70931511D01*
X151961469Y-70941006D01*
X151997909Y-70993048D01*
X152008388Y-71001424D01*
X152021834Y-70994356D01*
X153810477Y-69205713D01*
X153818091Y-69191769D01*
X153816738Y-69172840D01*
X153807395Y-69148957D01*
X153821382Y-69079352D01*
X153847174Y-69046176D01*
X153847089Y-69046094D01*
X153847844Y-69045315D01*
X153885426Y-69006534D01*
X154034686Y-68852509D01*
X154037669Y-68849431D01*
X154040202Y-68845983D01*
X154040206Y-68845978D01*
X154197257Y-68632178D01*
X154199795Y-68628723D01*
X154201841Y-68624955D01*
X154328418Y-68391830D01*
X154328419Y-68391828D01*
X154330468Y-68388054D01*
X154386884Y-68238754D01*
X154425751Y-68135895D01*
X154425752Y-68135891D01*
X154427269Y-68131877D01*
X154474107Y-67927371D01*
X154487449Y-67869117D01*
X154487450Y-67869113D01*
X154488407Y-67864933D01*
X154491463Y-67830697D01*
X154512531Y-67594627D01*
X154512531Y-67594625D01*
X154512751Y-67592161D01*
X154513193Y-67550000D01*
X154511465Y-67524648D01*
X154494859Y-67281055D01*
X154494858Y-67281049D01*
X154494567Y-67276778D01*
X154489985Y-67254650D01*
X154459356Y-67106751D01*
X154439032Y-67008612D01*
X154347617Y-66750465D01*
X154222013Y-66507112D01*
X154209380Y-66489136D01*
X154129902Y-66376051D01*
X154064545Y-66283057D01*
X153891865Y-66097231D01*
X153881046Y-66085588D01*
X153881043Y-66085585D01*
X153878125Y-66082445D01*
X153874810Y-66079731D01*
X153874806Y-66079728D01*
X153669523Y-65911706D01*
X153666205Y-65908990D01*
X153432704Y-65765901D01*
X153420052Y-65760347D01*
X153185873Y-65657549D01*
X153185869Y-65657548D01*
X153181945Y-65655825D01*
X152918566Y-65580800D01*
X152914324Y-65580196D01*
X152914318Y-65580195D01*
X152713834Y-65551662D01*
X152647443Y-65542213D01*
X152503589Y-65541460D01*
X152377877Y-65540802D01*
X152377871Y-65540802D01*
X152373591Y-65540780D01*
X152369347Y-65541339D01*
X152369343Y-65541339D01*
X152250302Y-65557011D01*
X152102078Y-65576525D01*
X152097938Y-65577658D01*
X152097936Y-65577658D01*
X152025008Y-65597609D01*
X151837928Y-65648788D01*
X151833980Y-65650472D01*
X151589982Y-65754546D01*
X151589978Y-65754548D01*
X151586030Y-65756232D01*
X151566125Y-65768145D01*
X151354725Y-65894664D01*
X151354721Y-65894667D01*
X151351043Y-65896868D01*
X151137318Y-66068094D01*
X151120717Y-66085588D01*
X151019747Y-66191988D01*
X150958347Y-66227632D01*
X150887423Y-66224423D01*
X150829493Y-66183379D01*
X150802949Y-66117531D01*
X150805555Y-66077019D01*
X150827602Y-65981141D01*
X150827603Y-65981134D01*
X150828428Y-65977547D01*
X150851362Y-65768145D01*
X150864460Y-65648545D01*
X150864460Y-65648544D01*
X150864862Y-65644874D01*
X150862233Y-65310223D01*
X150853059Y-65237087D01*
X150821038Y-64981820D01*
X150821037Y-64981816D01*
X150820579Y-64978163D01*
X150819698Y-64974589D01*
X150747002Y-64679733D01*
X153918222Y-64679733D01*
X153918375Y-64684121D01*
X153918375Y-64684127D01*
X153918801Y-64696303D01*
X153928025Y-64960458D01*
X153928787Y-64964781D01*
X153928788Y-64964788D01*
X153952564Y-65099624D01*
X153976802Y-65237087D01*
X154063603Y-65504235D01*
X154186740Y-65756702D01*
X154189195Y-65760341D01*
X154189198Y-65760347D01*
X154194458Y-65768145D01*
X154343815Y-65989576D01*
X154531771Y-66198322D01*
X154746950Y-66378879D01*
X154985164Y-66527731D01*
X155118884Y-66587267D01*
X155228279Y-66635973D01*
X155241775Y-66641982D01*
X155511790Y-66719407D01*
X155516140Y-66720018D01*
X155516143Y-66720019D01*
X155595424Y-66731161D01*
X155789952Y-66758500D01*
X156000546Y-66758500D01*
X156002732Y-66758347D01*
X156002736Y-66758347D01*
X156206227Y-66744118D01*
X156206232Y-66744117D01*
X156210612Y-66743811D01*
X156485370Y-66685409D01*
X156489499Y-66683906D01*
X156489503Y-66683905D01*
X156745181Y-66590846D01*
X156745185Y-66590844D01*
X156749326Y-66589337D01*
X156997342Y-66457464D01*
X157102296Y-66381211D01*
X157221029Y-66294947D01*
X157221032Y-66294944D01*
X157224592Y-66292358D01*
X157234224Y-66283057D01*
X157337443Y-66183379D01*
X157426652Y-66097231D01*
X157599588Y-65875882D01*
X157601784Y-65872078D01*
X157601789Y-65872071D01*
X157727316Y-65654650D01*
X157740036Y-65632619D01*
X157845262Y-65372176D01*
X157850428Y-65351455D01*
X157912153Y-65103893D01*
X157912154Y-65103888D01*
X157913217Y-65099624D01*
X157925599Y-64981820D01*
X157942119Y-64824636D01*
X157942119Y-64824633D01*
X157942578Y-64820267D01*
X157938375Y-64699900D01*
X157932929Y-64543939D01*
X157932928Y-64543933D01*
X157932775Y-64539542D01*
X157909008Y-64404749D01*
X157884760Y-64267236D01*
X157883998Y-64262913D01*
X157797197Y-63995765D01*
X157674060Y-63743298D01*
X157671605Y-63739659D01*
X157671602Y-63739653D01*
X157537529Y-63540882D01*
X157516985Y-63510424D01*
X157329029Y-63301678D01*
X157113850Y-63121121D01*
X156875636Y-62972269D01*
X156619025Y-62858018D01*
X156349010Y-62780593D01*
X156344660Y-62779982D01*
X156344657Y-62779981D01*
X156241710Y-62765513D01*
X156070848Y-62741500D01*
X155860254Y-62741500D01*
X155858068Y-62741653D01*
X155858064Y-62741653D01*
X155654573Y-62755882D01*
X155654568Y-62755883D01*
X155650188Y-62756189D01*
X155375430Y-62814591D01*
X155371301Y-62816094D01*
X155371297Y-62816095D01*
X155115619Y-62909154D01*
X155115615Y-62909156D01*
X155111474Y-62910663D01*
X154863458Y-63042536D01*
X154859899Y-63045122D01*
X154859897Y-63045123D01*
X154755295Y-63121121D01*
X154636208Y-63207642D01*
X154434148Y-63402769D01*
X154261212Y-63624118D01*
X154259016Y-63627922D01*
X154259011Y-63627929D01*
X154159246Y-63800728D01*
X154120764Y-63867381D01*
X154015538Y-64127824D01*
X154014473Y-64132097D01*
X154014472Y-64132099D01*
X153952382Y-64381130D01*
X153947583Y-64400376D01*
X153947124Y-64404744D01*
X153947123Y-64404749D01*
X153918681Y-64675364D01*
X153918222Y-64679733D01*
X150747002Y-64679733D01*
X150741349Y-64656806D01*
X150741346Y-64656797D01*
X150740467Y-64653231D01*
X150622993Y-64339865D01*
X150469760Y-64042345D01*
X150282861Y-63764735D01*
X150064850Y-63510826D01*
X149818704Y-63284086D01*
X149597890Y-63123949D01*
X149550769Y-63089776D01*
X149550765Y-63089774D01*
X149547786Y-63087613D01*
X149467296Y-63042536D01*
X149259011Y-62925891D01*
X149259010Y-62925891D01*
X149255795Y-62924090D01*
X149252395Y-62922678D01*
X148950125Y-62797165D01*
X148950121Y-62797164D01*
X148946719Y-62795751D01*
X148660285Y-62714428D01*
X148628336Y-62705357D01*
X148628331Y-62705356D01*
X148624781Y-62704348D01*
X148294378Y-62651130D01*
X148290958Y-62650957D01*
X148290951Y-62650956D01*
X148105864Y-62641580D01*
X148105847Y-62641580D01*
X148104276Y-62641500D01*
X147919086Y-62641500D01*
X147670910Y-62656027D01*
X147667284Y-62656670D01*
X147667281Y-62656670D01*
X147345004Y-62713786D01*
X147345000Y-62713787D01*
X147341383Y-62714428D01*
X147020920Y-62810876D01*
X147012356Y-62814591D01*
X146717287Y-62942585D01*
X146717282Y-62942588D01*
X146713899Y-62944055D01*
X146424512Y-63112144D01*
X146421573Y-63114347D01*
X146421568Y-63114350D01*
X146297089Y-63207642D01*
X146156713Y-63312848D01*
X146154040Y-63315389D01*
X146058475Y-63406236D01*
X145914159Y-63543426D01*
X145911803Y-63546259D01*
X145911800Y-63546262D01*
X145807161Y-63672077D01*
X145700163Y-63800728D01*
X145698156Y-63803813D01*
X145698155Y-63803814D01*
X145656795Y-63867381D01*
X145517648Y-64081240D01*
X145369108Y-64381130D01*
X145256570Y-64696303D01*
X145255743Y-64699900D01*
X145182397Y-65018863D01*
X145182396Y-65018872D01*
X145181572Y-65022453D01*
X145181171Y-65026110D01*
X145181171Y-65026113D01*
X145157608Y-65241265D01*
X145145138Y-65355126D01*
X145147767Y-65689777D01*
X145148226Y-65693436D01*
X145185785Y-65992848D01*
X145189421Y-66021837D01*
X145190301Y-66025408D01*
X145190302Y-66025411D01*
X145268651Y-66343194D01*
X145268654Y-66343203D01*
X145269533Y-66346769D01*
X145270827Y-66350220D01*
X145270827Y-66350221D01*
X145311805Y-66459530D01*
X145387007Y-66660135D01*
X145540240Y-66957655D01*
X145727139Y-67235265D01*
X145945150Y-67489174D01*
X146191296Y-67715914D01*
X146304529Y-67798032D01*
X146426604Y-67886562D01*
X146462214Y-67912387D01*
X146465433Y-67914190D01*
X146465435Y-67914191D01*
X146530207Y-67950465D01*
X146754205Y-68075910D01*
X146997482Y-68176927D01*
X147052723Y-68221522D01*
X147075086Y-68288905D01*
X147057468Y-68357681D01*
X147005464Y-68406014D01*
X146965587Y-68416086D01*
X146965864Y-68417837D01*
X146958036Y-68419077D01*
X146950111Y-68419326D01*
X146942497Y-68421538D01*
X146942492Y-68421539D01*
X146930659Y-68424977D01*
X146911296Y-68428988D01*
X146891203Y-68431526D01*
X146883836Y-68434443D01*
X146883831Y-68434444D01*
X146850092Y-68447802D01*
X146838865Y-68451646D01*
X146796407Y-68463982D01*
X146789581Y-68468019D01*
X146778972Y-68474293D01*
X146761224Y-68482988D01*
X146742383Y-68490448D01*
X146735967Y-68495110D01*
X146735966Y-68495110D01*
X146706613Y-68516436D01*
X146696693Y-68522952D01*
X146665465Y-68541420D01*
X146665462Y-68541422D01*
X146658638Y-68545458D01*
X146644317Y-68559779D01*
X146629284Y-68572619D01*
X146612893Y-68584528D01*
X146607843Y-68590632D01*
X146607838Y-68590637D01*
X146584707Y-68618598D01*
X146576717Y-68627379D01*
X145977713Y-69226382D01*
X145915401Y-69260407D01*
X145844585Y-69255342D01*
X145787750Y-69212795D01*
X145762910Y-69145856D01*
X145762522Y-69140151D01*
X145752011Y-68985978D01*
X145744859Y-68881055D01*
X145744858Y-68881049D01*
X145744567Y-68876778D01*
X145689032Y-68608612D01*
X145597617Y-68350465D01*
X145472013Y-68107112D01*
X145462040Y-68092921D01*
X145348353Y-67931161D01*
X145314545Y-67883057D01*
X145161240Y-67718081D01*
X145131046Y-67685588D01*
X145131043Y-67685585D01*
X145128125Y-67682445D01*
X145124810Y-67679731D01*
X145124806Y-67679728D01*
X144919523Y-67511706D01*
X144916205Y-67508990D01*
X144682704Y-67365901D01*
X144678768Y-67364173D01*
X144435873Y-67257549D01*
X144435869Y-67257548D01*
X144431945Y-67255825D01*
X144168566Y-67180800D01*
X144164324Y-67180196D01*
X144164318Y-67180195D01*
X143963834Y-67151662D01*
X143897443Y-67142213D01*
X143753589Y-67141460D01*
X143627877Y-67140802D01*
X143627871Y-67140802D01*
X143623591Y-67140780D01*
X143619347Y-67141339D01*
X143619343Y-67141339D01*
X143500302Y-67157011D01*
X143352078Y-67176525D01*
X143347938Y-67177658D01*
X143347936Y-67177658D01*
X143284588Y-67194988D01*
X143087928Y-67248788D01*
X143083980Y-67250472D01*
X142839982Y-67354546D01*
X142839978Y-67354548D01*
X142836030Y-67356232D01*
X142816125Y-67368145D01*
X142604725Y-67494664D01*
X142604721Y-67494667D01*
X142601043Y-67496868D01*
X142387318Y-67668094D01*
X142339882Y-67718081D01*
X142228007Y-67835973D01*
X142198808Y-67866742D01*
X142039002Y-68089136D01*
X141910857Y-68331161D01*
X141909385Y-68335184D01*
X141909383Y-68335188D01*
X141819842Y-68579869D01*
X141816743Y-68588337D01*
X141758404Y-68855907D01*
X141736917Y-69128918D01*
X141737334Y-69136156D01*
X141752682Y-69402320D01*
X141805405Y-69671053D01*
X141806792Y-69675103D01*
X141806793Y-69675108D01*
X141878526Y-69884621D01*
X141894112Y-69930144D01*
X141927713Y-69996953D01*
X141992837Y-70126437D01*
X142017160Y-70174799D01*
X142019586Y-70178328D01*
X142019589Y-70178334D01*
X142155409Y-70375951D01*
X142172274Y-70400490D01*
X142175161Y-70403663D01*
X142175162Y-70403664D01*
X142211681Y-70443798D01*
X142356582Y-70603043D01*
X142359877Y-70605798D01*
X142359878Y-70605799D01*
X142420395Y-70656399D01*
X142566675Y-70778707D01*
X142570316Y-70780991D01*
X142795024Y-70921951D01*
X142795028Y-70921953D01*
X142798664Y-70924234D01*
X142814781Y-70931511D01*
X143044345Y-71035164D01*
X143044349Y-71035166D01*
X143048257Y-71036930D01*
X143052377Y-71038150D01*
X143052376Y-71038150D01*
X143270284Y-71102697D01*
X143308197Y-71127190D01*
X143337538Y-71119669D01*
X143352228Y-71121043D01*
X143392401Y-71127190D01*
X143577298Y-71155483D01*
X143577300Y-71155483D01*
X143581540Y-71156132D01*
X143743228Y-71158672D01*
X143811025Y-71179741D01*
X143856670Y-71234120D01*
X143865668Y-71304544D01*
X143830344Y-71373751D01*
X143724025Y-71480071D01*
X143661713Y-71514096D01*
X143590897Y-71509032D01*
X143568817Y-71498238D01*
X143437874Y-71417523D01*
X143428468Y-71411725D01*
X143428466Y-71411724D01*
X143422238Y-71407885D01*
X143293504Y-71365186D01*
X143260024Y-71341991D01*
X143234198Y-71349508D01*
X143221655Y-71348852D01*
X143214257Y-71348094D01*
X143149900Y-71341500D01*
X141949100Y-71341500D01*
X141945854Y-71341837D01*
X141945850Y-71341837D01*
X141850192Y-71351762D01*
X141850188Y-71351763D01*
X141843334Y-71352474D01*
X141836798Y-71354655D01*
X141836796Y-71354655D01*
X141800843Y-71366650D01*
X141675554Y-71408450D01*
X141525152Y-71501522D01*
X141519979Y-71506704D01*
X141474254Y-71552509D01*
X141400195Y-71626697D01*
X141396355Y-71632927D01*
X141396354Y-71632928D01*
X141356456Y-71697655D01*
X141307385Y-71777262D01*
X141305081Y-71784209D01*
X141257197Y-71928576D01*
X141251703Y-71945139D01*
X141251003Y-71951975D01*
X141251002Y-71951978D01*
X141247235Y-71988743D01*
X141241000Y-72049600D01*
X141241000Y-73250400D01*
X141241337Y-73253646D01*
X141241337Y-73253650D01*
X141246847Y-73306749D01*
X141251974Y-73356166D01*
X141254155Y-73362702D01*
X141254155Y-73362704D01*
X141290540Y-73471762D01*
X141307950Y-73523946D01*
X141311804Y-73530174D01*
X141311805Y-73530176D01*
X141351423Y-73594197D01*
X141370261Y-73662649D01*
X141349100Y-73730418D01*
X141294659Y-73775990D01*
X141244279Y-73786500D01*
X140572688Y-73786500D01*
X140504567Y-73766498D01*
X140458074Y-73712842D01*
X140447970Y-73642568D01*
X140477464Y-73577988D01*
X140483593Y-73571405D01*
X140560698Y-73494300D01*
X140572988Y-73476749D01*
X140618598Y-73411611D01*
X140692023Y-73306749D01*
X140694346Y-73301767D01*
X140694349Y-73301762D01*
X140786461Y-73104225D01*
X140786461Y-73104224D01*
X140788784Y-73099243D01*
X140793567Y-73081395D01*
X140846619Y-72883402D01*
X140846619Y-72883400D01*
X140848043Y-72878087D01*
X140867998Y-72650000D01*
X140848043Y-72421913D01*
X140824534Y-72334177D01*
X140790207Y-72206067D01*
X140790206Y-72206065D01*
X140788784Y-72200757D01*
X140786461Y-72195775D01*
X140694349Y-71998238D01*
X140694346Y-71998233D01*
X140692023Y-71993251D01*
X140560698Y-71805700D01*
X140398800Y-71643802D01*
X140394292Y-71640645D01*
X140394289Y-71640643D01*
X140298460Y-71573543D01*
X140211249Y-71512477D01*
X140206267Y-71510154D01*
X140206262Y-71510151D01*
X140008725Y-71418039D01*
X140008724Y-71418039D01*
X140003743Y-71415716D01*
X139998435Y-71414294D01*
X139998433Y-71414293D01*
X139787902Y-71357881D01*
X139787900Y-71357881D01*
X139782587Y-71356457D01*
X139554500Y-71336502D01*
X139326413Y-71356457D01*
X139321100Y-71357881D01*
X139321098Y-71357881D01*
X139110567Y-71414293D01*
X139110565Y-71414294D01*
X139105257Y-71415716D01*
X139100276Y-71418039D01*
X139100275Y-71418039D01*
X138902738Y-71510151D01*
X138902733Y-71510154D01*
X138897751Y-71512477D01*
X138810540Y-71573543D01*
X138714711Y-71640643D01*
X138714708Y-71640645D01*
X138710200Y-71643802D01*
X138548302Y-71805700D01*
X138416977Y-71993251D01*
X138414654Y-71998233D01*
X138414651Y-71998238D01*
X138322539Y-72195775D01*
X138320216Y-72200757D01*
X138318794Y-72206065D01*
X138318793Y-72206067D01*
X138284466Y-72334177D01*
X138260957Y-72421913D01*
X138241002Y-72650000D01*
X138260957Y-72878087D01*
X138262381Y-72883400D01*
X138262381Y-72883402D01*
X138315434Y-73081395D01*
X138320216Y-73099243D01*
X138322539Y-73104224D01*
X138322539Y-73104225D01*
X138414651Y-73301762D01*
X138414654Y-73301767D01*
X138416977Y-73306749D01*
X138490402Y-73411611D01*
X138536013Y-73476749D01*
X138548302Y-73494300D01*
X138625407Y-73571405D01*
X138659433Y-73633717D01*
X138654368Y-73704532D01*
X138611821Y-73761368D01*
X138545301Y-73786179D01*
X138536312Y-73786500D01*
X137374052Y-73786500D01*
X137305931Y-73766498D01*
X137278704Y-73736784D01*
X137278389Y-73737099D01*
X136563312Y-73022022D01*
X136549368Y-73014408D01*
X136547535Y-73014539D01*
X136540920Y-73018790D01*
X135822611Y-73737099D01*
X135821839Y-73736327D01*
X135787073Y-73771090D01*
X135726692Y-73786500D01*
X133104623Y-73786500D01*
X133103853Y-73786498D01*
X133103037Y-73786493D01*
X133026279Y-73786024D01*
X133003918Y-73792415D01*
X132997847Y-73794150D01*
X132981085Y-73797728D01*
X132951813Y-73801920D01*
X132928753Y-73812405D01*
X132928438Y-73812548D01*
X132910914Y-73818996D01*
X132886229Y-73826051D01*
X132878635Y-73830843D01*
X132878632Y-73830844D01*
X132861220Y-73841830D01*
X132846137Y-73849969D01*
X132819218Y-73862208D01*
X132812416Y-73868069D01*
X132799765Y-73878970D01*
X132784761Y-73890073D01*
X132763042Y-73903776D01*
X132757103Y-73910501D01*
X132757099Y-73910504D01*
X132743468Y-73925938D01*
X132731276Y-73937982D01*
X132715673Y-73951427D01*
X132715671Y-73951430D01*
X132708873Y-73957287D01*
X132703993Y-73964816D01*
X132703992Y-73964817D01*
X132694906Y-73978835D01*
X132683615Y-73993709D01*
X132672569Y-74006217D01*
X132666622Y-74012951D01*
X132656852Y-74033760D01*
X132654058Y-74039711D01*
X132645737Y-74054691D01*
X132634529Y-74071983D01*
X132634527Y-74071988D01*
X132629648Y-74079515D01*
X132627078Y-74088108D01*
X132627076Y-74088113D01*
X132622289Y-74104120D01*
X132615628Y-74121564D01*
X132610250Y-74133019D01*
X132604719Y-74144800D01*
X132603338Y-74153667D01*
X132603338Y-74153668D01*
X132600170Y-74174015D01*
X132596387Y-74190732D01*
X132590485Y-74210466D01*
X132590484Y-74210472D01*
X132587914Y-74219066D01*
X132587859Y-74228037D01*
X132587859Y-74228038D01*
X132587704Y-74253497D01*
X132587671Y-74254289D01*
X132587500Y-74255386D01*
X132587500Y-74286377D01*
X132587498Y-74287147D01*
X132587024Y-74364721D01*
X132587408Y-74366065D01*
X132587500Y-74367410D01*
X132587500Y-76089777D01*
X132587498Y-76090547D01*
X132587024Y-76168121D01*
X132589491Y-76176752D01*
X132595150Y-76196553D01*
X132598728Y-76213315D01*
X132602920Y-76242587D01*
X132606634Y-76250755D01*
X132606634Y-76250756D01*
X132613548Y-76265962D01*
X132619996Y-76283486D01*
X132627051Y-76308171D01*
X132631843Y-76315765D01*
X132631844Y-76315768D01*
X132642830Y-76333180D01*
X132650969Y-76348263D01*
X132663208Y-76375182D01*
X132669069Y-76381984D01*
X132679970Y-76394635D01*
X132691073Y-76409639D01*
X132704776Y-76431358D01*
X132711501Y-76437297D01*
X132711504Y-76437301D01*
X132726938Y-76450932D01*
X132738982Y-76463124D01*
X132752427Y-76478727D01*
X132752430Y-76478729D01*
X132758287Y-76485527D01*
X132765816Y-76490407D01*
X132765817Y-76490408D01*
X132779835Y-76499494D01*
X132794709Y-76510785D01*
X132807217Y-76521831D01*
X132813951Y-76527778D01*
X132840711Y-76540342D01*
X132855691Y-76548663D01*
X132872983Y-76559871D01*
X132872988Y-76559873D01*
X132880515Y-76564752D01*
X132889108Y-76567322D01*
X132889113Y-76567324D01*
X132905120Y-76572111D01*
X132922564Y-76578772D01*
X132937676Y-76585867D01*
X132937678Y-76585868D01*
X132945800Y-76589681D01*
X132954667Y-76591062D01*
X132954668Y-76591062D01*
X132964310Y-76592563D01*
X132975017Y-76594230D01*
X132991732Y-76598013D01*
X133011466Y-76603915D01*
X133011472Y-76603916D01*
X133020066Y-76606486D01*
X133029037Y-76606541D01*
X133029038Y-76606541D01*
X133039097Y-76606602D01*
X133054506Y-76606696D01*
X133055289Y-76606729D01*
X133056386Y-76606900D01*
X133087377Y-76606900D01*
X133088147Y-76606902D01*
X133161785Y-76607352D01*
X133161786Y-76607352D01*
X133165721Y-76607376D01*
X133167065Y-76606992D01*
X133168410Y-76606900D01*
X143502670Y-76606900D01*
X143570791Y-76626902D01*
X143617284Y-76680558D01*
X143627388Y-76750832D01*
X143600594Y-76812190D01*
X143600219Y-76812653D01*
X143596648Y-76816390D01*
X143461495Y-77014517D01*
X143360516Y-77232056D01*
X143296424Y-77463168D01*
X143270938Y-77701644D01*
X143284744Y-77941080D01*
X143285879Y-77946117D01*
X143285880Y-77946123D01*
X143320728Y-78100757D01*
X143337470Y-78175046D01*
X143365336Y-78243671D01*
X143424471Y-78389301D01*
X143427702Y-78397259D01*
X143553014Y-78601751D01*
X143710043Y-78783030D01*
X143894571Y-78936228D01*
X143993321Y-78993933D01*
X144026736Y-79013459D01*
X144075460Y-79065098D01*
X144088531Y-79134881D01*
X144061800Y-79200653D01*
X144021350Y-79234007D01*
X143954136Y-79268997D01*
X143950003Y-79272100D01*
X143950000Y-79272102D01*
X143793256Y-79389789D01*
X143762345Y-79412998D01*
X143596648Y-79586390D01*
X143461495Y-79784517D01*
X143428445Y-79855716D01*
X143382065Y-79955634D01*
X143360516Y-80002056D01*
X143296424Y-80233168D01*
X143270938Y-80471644D01*
X143284744Y-80711080D01*
X143285879Y-80716117D01*
X143285880Y-80716123D01*
X143336331Y-80939992D01*
X143337470Y-80945046D01*
X143427702Y-81167259D01*
X143553014Y-81371751D01*
X143556398Y-81375657D01*
X143556399Y-81375659D01*
X143577522Y-81400044D01*
X143710043Y-81553030D01*
X143894571Y-81706228D01*
X144027248Y-81783758D01*
X144075971Y-81835395D01*
X144089042Y-81905178D01*
X144062311Y-81970950D01*
X144021858Y-82004308D01*
X143958988Y-82037036D01*
X143950268Y-82042527D01*
X143912248Y-82071074D01*
X143903795Y-82082399D01*
X143910540Y-82094730D01*
X145004115Y-83188305D01*
X145038141Y-83250617D01*
X145033076Y-83321432D01*
X145004115Y-83366495D01*
X143907635Y-84462975D01*
X143900358Y-84476300D01*
X143903660Y-84480960D01*
X144027261Y-84553186D01*
X144075984Y-84604825D01*
X144089055Y-84674608D01*
X144062323Y-84740380D01*
X144021870Y-84773737D01*
X143954136Y-84808997D01*
X143950003Y-84812100D01*
X143950000Y-84812102D01*
X143785362Y-84935716D01*
X143762345Y-84952998D01*
X143596648Y-85126390D01*
X143593734Y-85130662D01*
X143593733Y-85130663D01*
X143573282Y-85160643D01*
X143461495Y-85324517D01*
X143360516Y-85542056D01*
X143296424Y-85773168D01*
X143270938Y-86011644D01*
X143284744Y-86251080D01*
X143285879Y-86256117D01*
X143285880Y-86256123D01*
X143316638Y-86392607D01*
X143337470Y-86485046D01*
X143365028Y-86552912D01*
X143422792Y-86695166D01*
X143427702Y-86707259D01*
X143553014Y-86911751D01*
X143631108Y-87001905D01*
X143660589Y-87066488D01*
X143650474Y-87136761D01*
X143603973Y-87190409D01*
X143535869Y-87210400D01*
X133104623Y-87210400D01*
X133103853Y-87210398D01*
X133103037Y-87210393D01*
X133026279Y-87209924D01*
X133003918Y-87216315D01*
X132997847Y-87218050D01*
X132981085Y-87221628D01*
X132951813Y-87225820D01*
X132943645Y-87229534D01*
X132943644Y-87229534D01*
X132928438Y-87236448D01*
X132910914Y-87242896D01*
X132886229Y-87249951D01*
X132878635Y-87254743D01*
X132878632Y-87254744D01*
X132861220Y-87265730D01*
X132846137Y-87273869D01*
X132819218Y-87286108D01*
X132812416Y-87291969D01*
X132799765Y-87302870D01*
X132784761Y-87313973D01*
X132763042Y-87327676D01*
X132757103Y-87334401D01*
X132757099Y-87334404D01*
X132743468Y-87349838D01*
X132731276Y-87361882D01*
X132715673Y-87375327D01*
X132715671Y-87375330D01*
X132708873Y-87381187D01*
X132703993Y-87388716D01*
X132703992Y-87388717D01*
X132694906Y-87402735D01*
X132683615Y-87417609D01*
X132673515Y-87429046D01*
X132666622Y-87436851D01*
X132654058Y-87463611D01*
X132645737Y-87478591D01*
X132634529Y-87495883D01*
X132634527Y-87495888D01*
X132629648Y-87503415D01*
X132627078Y-87512008D01*
X132627076Y-87512013D01*
X132622289Y-87528020D01*
X132615628Y-87545464D01*
X132604719Y-87568700D01*
X132603338Y-87577567D01*
X132603338Y-87577568D01*
X132600170Y-87597915D01*
X132596387Y-87614632D01*
X132590485Y-87634366D01*
X132590484Y-87634372D01*
X132587914Y-87642966D01*
X132587859Y-87651937D01*
X132587859Y-87651938D01*
X132587704Y-87677397D01*
X132587671Y-87678189D01*
X132587500Y-87679286D01*
X132587500Y-87710277D01*
X132587498Y-87711047D01*
X132587024Y-87788621D01*
X132587408Y-87789965D01*
X132587500Y-87791310D01*
X132587500Y-89513677D01*
X132587498Y-89514447D01*
X132587024Y-89592021D01*
X132589491Y-89600652D01*
X132595150Y-89620453D01*
X132598728Y-89637215D01*
X132602920Y-89666487D01*
X132606634Y-89674655D01*
X132606634Y-89674656D01*
X132613548Y-89689862D01*
X132619996Y-89707386D01*
X132627051Y-89732071D01*
X132631843Y-89739665D01*
X132631844Y-89739668D01*
X132642830Y-89757080D01*
X132650969Y-89772163D01*
X132663208Y-89799082D01*
X132669069Y-89805884D01*
X132679970Y-89818535D01*
X132691073Y-89833539D01*
X132704776Y-89855258D01*
X132711501Y-89861197D01*
X132711504Y-89861201D01*
X132726938Y-89874832D01*
X132738982Y-89887024D01*
X132752427Y-89902627D01*
X132752430Y-89902629D01*
X132758287Y-89909427D01*
X132765816Y-89914307D01*
X132765817Y-89914308D01*
X132779835Y-89923394D01*
X132794709Y-89934685D01*
X132807217Y-89945731D01*
X132813951Y-89951678D01*
X132840711Y-89964242D01*
X132855691Y-89972563D01*
X132872983Y-89983771D01*
X132872988Y-89983773D01*
X132880515Y-89988652D01*
X132889108Y-89991222D01*
X132889113Y-89991224D01*
X132905120Y-89996011D01*
X132922564Y-90002672D01*
X132937676Y-90009767D01*
X132937678Y-90009768D01*
X132945800Y-90013581D01*
X132954667Y-90014962D01*
X132954668Y-90014962D01*
X132959511Y-90015716D01*
X132975017Y-90018130D01*
X132991732Y-90021913D01*
X133011466Y-90027815D01*
X133011472Y-90027816D01*
X133020066Y-90030386D01*
X133029037Y-90030441D01*
X133029038Y-90030441D01*
X133039097Y-90030502D01*
X133054506Y-90030596D01*
X133055289Y-90030629D01*
X133056386Y-90030800D01*
X133087377Y-90030800D01*
X133088147Y-90030802D01*
X133161785Y-90031252D01*
X133161786Y-90031252D01*
X133165721Y-90031276D01*
X133167065Y-90030892D01*
X133168410Y-90030800D01*
X137300873Y-90030800D01*
X137368994Y-90050802D01*
X137415487Y-90104458D01*
X137425591Y-90174732D01*
X137396097Y-90239312D01*
X137367176Y-90263944D01*
X137225652Y-90351522D01*
X137100695Y-90476697D01*
X137096855Y-90482927D01*
X137096854Y-90482928D01*
X137031629Y-90588743D01*
X137007885Y-90627262D01*
X136952203Y-90795139D01*
X136941500Y-90899600D01*
X136941500Y-92300400D01*
X136941837Y-92303646D01*
X136941837Y-92303650D01*
X136950540Y-92387523D01*
X136952474Y-92406166D01*
X137008450Y-92573946D01*
X137101522Y-92724348D01*
X137226697Y-92849305D01*
X137232927Y-92853145D01*
X137232928Y-92853146D01*
X137370090Y-92937694D01*
X137377262Y-92942115D01*
X137413942Y-92954281D01*
X137538611Y-92995632D01*
X137538613Y-92995632D01*
X137545139Y-92997797D01*
X137551975Y-92998497D01*
X137551978Y-92998498D01*
X137590386Y-93002433D01*
X137649600Y-93008500D01*
X138450400Y-93008500D01*
X138453646Y-93008163D01*
X138453650Y-93008163D01*
X138549308Y-92998238D01*
X138549312Y-92998237D01*
X138556166Y-92997526D01*
X138562702Y-92995345D01*
X138562704Y-92995345D01*
X138698867Y-92949917D01*
X138723946Y-92941550D01*
X138874348Y-92848478D01*
X138999305Y-92723303D01*
X139031075Y-92671764D01*
X139083846Y-92624271D01*
X139153918Y-92612847D01*
X139219042Y-92641121D01*
X139237418Y-92660045D01*
X139243604Y-92667920D01*
X139248135Y-92671852D01*
X139248138Y-92671855D01*
X139333620Y-92746032D01*
X139403363Y-92806552D01*
X139408549Y-92809552D01*
X139408553Y-92809555D01*
X139504957Y-92865326D01*
X139586454Y-92912473D01*
X139786271Y-92981861D01*
X139792206Y-92982722D01*
X139792208Y-92982722D01*
X139989664Y-93011352D01*
X139989667Y-93011352D01*
X139995604Y-93012213D01*
X140206899Y-93002433D01*
X140338077Y-92970819D01*
X140406701Y-92954281D01*
X140406703Y-92954280D01*
X140412534Y-92952875D01*
X140417992Y-92950393D01*
X140417996Y-92950392D01*
X140533041Y-92898084D01*
X140605087Y-92865326D01*
X140777611Y-92742946D01*
X140923881Y-92590150D01*
X140935124Y-92572738D01*
X140944746Y-92557837D01*
X140998501Y-92511460D01*
X141068797Y-92501507D01*
X141133314Y-92531139D01*
X141149681Y-92548351D01*
X141243604Y-92667920D01*
X141248135Y-92671852D01*
X141248138Y-92671855D01*
X141333620Y-92746032D01*
X141403363Y-92806552D01*
X141408549Y-92809552D01*
X141408553Y-92809555D01*
X141504957Y-92865326D01*
X141586454Y-92912473D01*
X141786271Y-92981861D01*
X141792206Y-92982722D01*
X141792208Y-92982722D01*
X141989664Y-93011352D01*
X141989667Y-93011352D01*
X141995604Y-93012213D01*
X142206899Y-93002433D01*
X142338077Y-92970819D01*
X142406701Y-92954281D01*
X142406703Y-92954280D01*
X142412534Y-92952875D01*
X142417992Y-92950393D01*
X142417996Y-92950392D01*
X142533041Y-92898084D01*
X142605087Y-92865326D01*
X142777611Y-92742946D01*
X142923881Y-92590150D01*
X142935124Y-92572738D01*
X142944746Y-92557837D01*
X142998501Y-92511460D01*
X143068797Y-92501507D01*
X143133314Y-92531139D01*
X143149681Y-92548351D01*
X143243604Y-92667920D01*
X143248135Y-92671852D01*
X143248138Y-92671855D01*
X143333620Y-92746032D01*
X143403363Y-92806552D01*
X143408549Y-92809552D01*
X143408553Y-92809555D01*
X143504957Y-92865326D01*
X143586454Y-92912473D01*
X143786271Y-92981861D01*
X143792206Y-92982722D01*
X143792208Y-92982722D01*
X143989664Y-93011352D01*
X143989667Y-93011352D01*
X143995604Y-93012213D01*
X144206899Y-93002433D01*
X144338077Y-92970819D01*
X144406701Y-92954281D01*
X144406703Y-92954280D01*
X144412534Y-92952875D01*
X144417992Y-92950393D01*
X144417996Y-92950392D01*
X144533041Y-92898084D01*
X144605087Y-92865326D01*
X144777611Y-92742946D01*
X144923881Y-92590150D01*
X144935124Y-92572738D01*
X144944746Y-92557837D01*
X144998501Y-92511460D01*
X145068797Y-92501507D01*
X145133314Y-92531139D01*
X145149681Y-92548351D01*
X145243604Y-92667920D01*
X145248135Y-92671852D01*
X145248138Y-92671855D01*
X145333620Y-92746032D01*
X145403363Y-92806552D01*
X145408549Y-92809552D01*
X145408553Y-92809555D01*
X145504957Y-92865326D01*
X145586454Y-92912473D01*
X145786271Y-92981861D01*
X145792206Y-92982722D01*
X145792208Y-92982722D01*
X145989664Y-93011352D01*
X145989667Y-93011352D01*
X145995604Y-93012213D01*
X146206899Y-93002433D01*
X146338077Y-92970819D01*
X146406701Y-92954281D01*
X146406703Y-92954280D01*
X146412534Y-92952875D01*
X146417992Y-92950393D01*
X146417996Y-92950392D01*
X146533041Y-92898084D01*
X146605087Y-92865326D01*
X146777611Y-92742946D01*
X146923881Y-92590150D01*
X146927130Y-92585119D01*
X146927135Y-92585112D01*
X146945033Y-92557393D01*
X146998789Y-92511016D01*
X147069085Y-92501063D01*
X147133602Y-92530696D01*
X147149970Y-92547909D01*
X147240262Y-92662857D01*
X147248499Y-92671506D01*
X147399123Y-92802212D01*
X147408847Y-92809147D01*
X147581467Y-92909010D01*
X147592331Y-92913984D01*
X147780727Y-92979407D01*
X147781716Y-92979648D01*
X147792008Y-92978180D01*
X147796000Y-92964615D01*
X147796000Y-90239598D01*
X147792027Y-90226067D01*
X147782601Y-90224712D01*
X147693463Y-90246194D01*
X147682168Y-90250083D01*
X147500618Y-90332629D01*
X147490276Y-90338576D01*
X147327603Y-90453968D01*
X147318575Y-90461761D01*
X147180658Y-90605831D01*
X147173259Y-90615200D01*
X147155582Y-90642577D01*
X147101828Y-90688955D01*
X147031532Y-90698909D01*
X146967015Y-90669278D01*
X146950644Y-90652063D01*
X146939633Y-90638045D01*
X146856396Y-90532080D01*
X146851865Y-90528148D01*
X146851862Y-90528145D01*
X146701167Y-90397379D01*
X146696637Y-90393448D01*
X146601787Y-90338576D01*
X146588927Y-90331136D01*
X146539979Y-90279710D01*
X146526604Y-90209985D01*
X146553049Y-90144097D01*
X146562928Y-90132977D01*
X146592253Y-90103652D01*
X146600539Y-90096112D01*
X146607018Y-90092000D01*
X146621957Y-90076092D01*
X146653643Y-90042349D01*
X146656398Y-90039507D01*
X146676135Y-90019770D01*
X146678615Y-90016573D01*
X146686320Y-90007551D01*
X146690902Y-90002672D01*
X146716586Y-89975321D01*
X146720405Y-89968375D01*
X146720407Y-89968372D01*
X146726348Y-89957566D01*
X146737199Y-89941047D01*
X146737559Y-89940583D01*
X146749614Y-89925041D01*
X146752759Y-89917772D01*
X146752762Y-89917768D01*
X146767174Y-89884463D01*
X146772391Y-89873813D01*
X146793695Y-89835060D01*
X146798733Y-89815437D01*
X146805137Y-89796734D01*
X146810033Y-89785420D01*
X146810033Y-89785419D01*
X146813181Y-89778145D01*
X146814420Y-89770322D01*
X146814423Y-89770312D01*
X146820099Y-89734476D01*
X146822505Y-89722856D01*
X146831528Y-89687711D01*
X146831528Y-89687710D01*
X146833500Y-89680030D01*
X146833500Y-89659776D01*
X146835051Y-89640065D01*
X146836850Y-89628710D01*
X146838220Y-89620057D01*
X146834059Y-89576038D01*
X146833500Y-89564181D01*
X146833500Y-88893924D01*
X146853502Y-88825803D01*
X146907158Y-88779310D01*
X146977432Y-88769206D01*
X147004446Y-88776213D01*
X147165697Y-88837789D01*
X147170763Y-88838820D01*
X147170764Y-88838820D01*
X147227039Y-88850269D01*
X147400716Y-88885604D01*
X147536264Y-88890574D01*
X147635225Y-88894203D01*
X147635229Y-88894203D01*
X147640389Y-88894392D01*
X147645509Y-88893736D01*
X147645511Y-88893736D01*
X147873151Y-88864575D01*
X147873152Y-88864575D01*
X147878279Y-88863918D01*
X147961935Y-88838820D01*
X148103042Y-88796486D01*
X148103047Y-88796484D01*
X148107997Y-88794999D01*
X148323374Y-88689487D01*
X148327579Y-88686487D01*
X148327585Y-88686484D01*
X148420516Y-88620196D01*
X148518627Y-88550215D01*
X148688511Y-88380923D01*
X148695011Y-88371878D01*
X148825445Y-88190358D01*
X148828463Y-88186158D01*
X148846934Y-88148786D01*
X148932433Y-87975792D01*
X148932434Y-87975790D01*
X148934727Y-87971150D01*
X149004447Y-87741674D01*
X149035752Y-87503892D01*
X149036546Y-87471389D01*
X149037417Y-87435765D01*
X149037417Y-87435761D01*
X149037499Y-87432400D01*
X149028735Y-87325805D01*
X149018271Y-87198524D01*
X149018270Y-87198518D01*
X149017847Y-87193373D01*
X148971734Y-87009789D01*
X148960679Y-86965775D01*
X148960678Y-86965771D01*
X148959420Y-86960764D01*
X148957362Y-86956031D01*
X148957359Y-86956022D01*
X148910510Y-86848278D01*
X148901689Y-86777831D01*
X148936964Y-86708940D01*
X148946514Y-86699390D01*
X149008826Y-86665364D01*
X149079641Y-86670429D01*
X149136477Y-86712976D01*
X149149804Y-86735236D01*
X149190149Y-86821758D01*
X149190153Y-86821764D01*
X149192477Y-86826749D01*
X149248911Y-86907345D01*
X149315122Y-87001903D01*
X149323802Y-87014300D01*
X149485700Y-87176198D01*
X149490208Y-87179355D01*
X149490211Y-87179357D01*
X149554751Y-87224548D01*
X149673251Y-87307523D01*
X149678233Y-87309846D01*
X149678238Y-87309849D01*
X149712457Y-87325805D01*
X149765742Y-87372722D01*
X149785203Y-87440999D01*
X149764661Y-87508959D01*
X149712457Y-87554195D01*
X149678238Y-87570151D01*
X149678233Y-87570154D01*
X149673251Y-87572477D01*
X149613048Y-87614632D01*
X149490211Y-87700643D01*
X149490208Y-87700645D01*
X149485700Y-87703802D01*
X149323802Y-87865700D01*
X149320645Y-87870208D01*
X149320643Y-87870211D01*
X149276712Y-87932951D01*
X149192477Y-88053251D01*
X149190154Y-88058233D01*
X149190151Y-88058238D01*
X149110174Y-88229752D01*
X149095716Y-88260757D01*
X149094294Y-88266064D01*
X149094293Y-88266067D01*
X149043611Y-88455215D01*
X149036457Y-88481913D01*
X149016502Y-88710000D01*
X149036457Y-88938087D01*
X149095716Y-89159243D01*
X149098039Y-89164224D01*
X149098039Y-89164225D01*
X149190151Y-89361762D01*
X149190154Y-89361767D01*
X149192477Y-89366749D01*
X149260885Y-89464445D01*
X149320640Y-89549784D01*
X149323802Y-89554300D01*
X149485700Y-89716198D01*
X149490208Y-89719355D01*
X149490211Y-89719357D01*
X149562983Y-89770312D01*
X149673251Y-89847523D01*
X149678233Y-89849846D01*
X149678238Y-89849849D01*
X149712457Y-89865805D01*
X149765742Y-89912722D01*
X149785203Y-89980999D01*
X149764661Y-90048959D01*
X149712457Y-90094195D01*
X149678238Y-90110151D01*
X149678233Y-90110154D01*
X149673251Y-90112477D01*
X149598112Y-90165090D01*
X149490211Y-90240643D01*
X149490208Y-90240645D01*
X149485700Y-90243802D01*
X149323802Y-90405700D01*
X149320645Y-90410208D01*
X149320643Y-90410211D01*
X149278443Y-90470479D01*
X149192477Y-90593251D01*
X149190153Y-90598236D01*
X149190149Y-90598242D01*
X149171589Y-90638045D01*
X149124672Y-90691331D01*
X149056395Y-90710792D01*
X148988435Y-90690251D01*
X148958308Y-90662629D01*
X148859738Y-90537143D01*
X148851501Y-90528494D01*
X148700877Y-90397788D01*
X148691153Y-90390853D01*
X148518533Y-90290990D01*
X148507669Y-90286016D01*
X148319273Y-90220593D01*
X148318284Y-90220352D01*
X148307992Y-90221820D01*
X148304000Y-90235385D01*
X148304000Y-92960402D01*
X148307973Y-92973933D01*
X148317399Y-92975288D01*
X148406537Y-92953806D01*
X148417832Y-92949917D01*
X148599382Y-92867371D01*
X148609724Y-92861424D01*
X148772397Y-92746032D01*
X148781425Y-92738239D01*
X148919342Y-92594169D01*
X148926738Y-92584804D01*
X149034921Y-92417259D01*
X149040417Y-92406655D01*
X149114961Y-92221688D01*
X149118356Y-92210227D01*
X149125490Y-92173694D01*
X149158176Y-92110669D01*
X149219748Y-92075321D01*
X149290656Y-92078873D01*
X149338249Y-92108747D01*
X149485700Y-92256198D01*
X149490208Y-92259355D01*
X149490211Y-92259357D01*
X149531542Y-92288297D01*
X149673251Y-92387523D01*
X149678233Y-92389846D01*
X149678238Y-92389849D01*
X149830386Y-92460796D01*
X149880757Y-92484284D01*
X149886065Y-92485706D01*
X149886067Y-92485707D01*
X150096598Y-92542119D01*
X150096600Y-92542119D01*
X150101913Y-92543543D01*
X150330000Y-92563498D01*
X150558087Y-92543543D01*
X150563400Y-92542119D01*
X150563402Y-92542119D01*
X150773933Y-92485707D01*
X150773935Y-92485706D01*
X150779243Y-92484284D01*
X150829614Y-92460796D01*
X150981762Y-92389849D01*
X150981767Y-92389846D01*
X150986749Y-92387523D01*
X151128458Y-92288297D01*
X151169789Y-92259357D01*
X151169792Y-92259355D01*
X151174300Y-92256198D01*
X151336198Y-92094300D01*
X151349488Y-92075321D01*
X151464366Y-91911257D01*
X151467523Y-91906749D01*
X151469846Y-91901767D01*
X151469849Y-91901762D01*
X151561961Y-91704225D01*
X151561961Y-91704224D01*
X151564284Y-91699243D01*
X151582058Y-91632912D01*
X151622119Y-91483402D01*
X151622119Y-91483400D01*
X151623543Y-91478087D01*
X151643498Y-91250000D01*
X151628295Y-91076227D01*
X151642284Y-91006622D01*
X151691684Y-90955629D01*
X151760810Y-90939439D01*
X151827715Y-90963192D01*
X151868011Y-91011995D01*
X151949411Y-91186558D01*
X152070699Y-91359776D01*
X152220224Y-91509301D01*
X152393442Y-91630589D01*
X152398420Y-91632910D01*
X152398423Y-91632912D01*
X152580108Y-91717633D01*
X152585090Y-91719956D01*
X152590398Y-91721378D01*
X152590400Y-91721379D01*
X152784030Y-91773262D01*
X152784032Y-91773262D01*
X152789345Y-91774686D01*
X153000000Y-91793116D01*
X153210655Y-91774686D01*
X153215968Y-91773262D01*
X153215970Y-91773262D01*
X153409600Y-91721379D01*
X153409602Y-91721378D01*
X153414910Y-91719956D01*
X153419892Y-91717633D01*
X153601577Y-91632912D01*
X153601580Y-91632910D01*
X153606558Y-91630589D01*
X153779776Y-91509301D01*
X153929301Y-91359776D01*
X154050589Y-91186558D01*
X154135805Y-91003812D01*
X154182722Y-90950527D01*
X154251000Y-90931066D01*
X154318960Y-90951608D01*
X154364195Y-91003812D01*
X154449411Y-91186558D01*
X154570699Y-91359776D01*
X154720224Y-91509301D01*
X154893442Y-91630589D01*
X154898420Y-91632910D01*
X154898423Y-91632912D01*
X155080108Y-91717633D01*
X155085090Y-91719956D01*
X155090398Y-91721378D01*
X155090400Y-91721379D01*
X155284030Y-91773262D01*
X155284032Y-91773262D01*
X155289345Y-91774686D01*
X155500000Y-91793116D01*
X155710655Y-91774686D01*
X155715968Y-91773262D01*
X155715970Y-91773262D01*
X155909600Y-91721379D01*
X155909602Y-91721378D01*
X155914910Y-91719956D01*
X155919892Y-91717633D01*
X156101577Y-91632912D01*
X156101580Y-91632910D01*
X156106558Y-91630589D01*
X156279776Y-91509301D01*
X156426405Y-91362672D01*
X156488717Y-91328646D01*
X156559532Y-91333711D01*
X156616368Y-91376258D01*
X156641179Y-91442778D01*
X156641500Y-91451767D01*
X156641500Y-92098134D01*
X156648255Y-92160316D01*
X156699385Y-92296705D01*
X156786739Y-92413261D01*
X156903295Y-92500615D01*
X157039684Y-92551745D01*
X157101866Y-92558500D01*
X158798134Y-92558500D01*
X158860316Y-92551745D01*
X158996705Y-92500615D01*
X159018496Y-92484284D01*
X159036766Y-92470591D01*
X159103273Y-92445743D01*
X159172655Y-92460796D01*
X159222885Y-92510970D01*
X159238331Y-92571260D01*
X159239316Y-93367040D01*
X159239332Y-93380091D01*
X159239332Y-101784055D01*
X159237831Y-101803445D01*
X159234141Y-101827138D01*
X159235305Y-101836042D01*
X159235195Y-101845017D01*
X159234990Y-101845014D01*
X159234981Y-101866460D01*
X159231822Y-101890450D01*
X159203097Y-101955376D01*
X159143831Y-101994466D01*
X159106900Y-102000000D01*
X128626000Y-102000000D01*
X128557879Y-101979998D01*
X128511386Y-101926342D01*
X128500000Y-101874000D01*
X128500000Y-98940533D01*
X129514622Y-98940533D01*
X129514775Y-98944921D01*
X129514775Y-98944927D01*
X129522076Y-99153983D01*
X129524425Y-99221258D01*
X129525187Y-99225581D01*
X129525188Y-99225588D01*
X129554119Y-99389659D01*
X129573202Y-99497887D01*
X129660003Y-99765035D01*
X129661931Y-99768988D01*
X129661933Y-99768993D01*
X129677765Y-99801452D01*
X129783140Y-100017502D01*
X129785595Y-100021141D01*
X129785598Y-100021147D01*
X129816367Y-100066763D01*
X129940215Y-100250376D01*
X129943160Y-100253647D01*
X129943161Y-100253648D01*
X129989206Y-100304786D01*
X130128171Y-100459122D01*
X130343350Y-100639679D01*
X130581564Y-100788531D01*
X130838175Y-100902782D01*
X131108190Y-100980207D01*
X131112540Y-100980818D01*
X131112543Y-100980819D01*
X131215490Y-100995287D01*
X131386352Y-101019300D01*
X131596946Y-101019300D01*
X131599132Y-101019147D01*
X131599136Y-101019147D01*
X131802627Y-101004918D01*
X131802632Y-101004917D01*
X131807012Y-101004611D01*
X132081770Y-100946209D01*
X132085899Y-100944706D01*
X132085903Y-100944705D01*
X132341581Y-100851646D01*
X132341585Y-100851644D01*
X132345726Y-100850137D01*
X132593742Y-100718264D01*
X132698696Y-100642011D01*
X132817429Y-100555747D01*
X132817432Y-100555744D01*
X132820992Y-100553158D01*
X133023052Y-100358031D01*
X133185102Y-100150615D01*
X133193281Y-100140147D01*
X133193282Y-100140146D01*
X133195988Y-100136682D01*
X133198184Y-100132878D01*
X133198189Y-100132871D01*
X133334235Y-99897231D01*
X133336436Y-99893419D01*
X133395135Y-99748134D01*
X135591500Y-99748134D01*
X135598255Y-99810316D01*
X135649385Y-99946705D01*
X135736739Y-100063261D01*
X135853295Y-100150615D01*
X135989684Y-100201745D01*
X136051866Y-100208500D01*
X137748134Y-100208500D01*
X137810316Y-100201745D01*
X137946705Y-100150615D01*
X138016837Y-100098054D01*
X138056078Y-100068645D01*
X138056081Y-100068642D01*
X138063261Y-100063261D01*
X138068642Y-100056081D01*
X138074993Y-100049730D01*
X138077135Y-100051872D01*
X138121846Y-100018436D01*
X138192664Y-100013406D01*
X138234035Y-100031523D01*
X138234232Y-100031182D01*
X138237298Y-100032952D01*
X138238090Y-100033299D01*
X138238989Y-100033929D01*
X138248489Y-100039414D01*
X138445947Y-100131490D01*
X138456239Y-100135236D01*
X138666688Y-100191625D01*
X138677481Y-100193528D01*
X138894525Y-100212517D01*
X138905475Y-100212517D01*
X139122519Y-100193528D01*
X139133312Y-100191625D01*
X139343761Y-100135236D01*
X139354053Y-100131490D01*
X139551511Y-100039414D01*
X139561006Y-100033931D01*
X139613048Y-99997491D01*
X139621424Y-99987012D01*
X139614356Y-99973566D01*
X138629885Y-98989095D01*
X138595859Y-98926783D01*
X138597694Y-98901132D01*
X139264408Y-98901132D01*
X139264539Y-98902965D01*
X139268790Y-98909580D01*
X139974287Y-99615077D01*
X139986062Y-99621507D01*
X139998077Y-99612211D01*
X140033931Y-99561006D01*
X140039414Y-99551511D01*
X140131490Y-99354053D01*
X140135236Y-99343761D01*
X140191625Y-99133312D01*
X140193528Y-99122519D01*
X140212517Y-98905475D01*
X140212517Y-98894525D01*
X140193528Y-98677481D01*
X140191625Y-98666688D01*
X140135236Y-98456239D01*
X140131490Y-98445947D01*
X140061734Y-98296355D01*
X141550942Y-98296355D01*
X141576513Y-98588625D01*
X141577423Y-98592697D01*
X141577424Y-98592702D01*
X141636278Y-98856000D01*
X141640513Y-98874947D01*
X141641957Y-98878870D01*
X141641957Y-98878872D01*
X141664644Y-98940533D01*
X141741819Y-99150288D01*
X141743766Y-99153981D01*
X141743767Y-99153983D01*
X141864472Y-99382921D01*
X141878651Y-99409813D01*
X142048605Y-99648961D01*
X142248694Y-99863531D01*
X142475404Y-100049752D01*
X142724751Y-100204354D01*
X142728568Y-100206070D01*
X142728571Y-100206071D01*
X142750050Y-100215724D01*
X142992356Y-100324620D01*
X143077102Y-100349884D01*
X143269518Y-100407247D01*
X143269526Y-100407249D01*
X143273515Y-100408438D01*
X143277631Y-100409090D01*
X143277636Y-100409091D01*
X143559822Y-100453784D01*
X143559827Y-100453784D01*
X143563290Y-100454333D01*
X143612386Y-100456563D01*
X143653632Y-100458436D01*
X143653651Y-100458436D01*
X143655051Y-100458500D01*
X143838320Y-100458500D01*
X144056642Y-100443999D01*
X144344241Y-100386009D01*
X144608436Y-100295040D01*
X144617680Y-100291857D01*
X144617681Y-100291856D01*
X144621644Y-100290492D01*
X144625386Y-100288618D01*
X144625391Y-100288616D01*
X144880233Y-100161000D01*
X144880235Y-100160999D01*
X144883977Y-100159125D01*
X145011792Y-100072262D01*
X145123173Y-99996568D01*
X145123176Y-99996566D01*
X145126632Y-99994217D01*
X145226786Y-99904669D01*
X147197001Y-99904669D01*
X147197371Y-99911490D01*
X147202895Y-99962352D01*
X147206521Y-99977604D01*
X147251676Y-100098054D01*
X147260214Y-100113649D01*
X147336715Y-100215724D01*
X147349276Y-100228285D01*
X147451351Y-100304786D01*
X147466946Y-100313324D01*
X147587394Y-100358478D01*
X147602649Y-100362105D01*
X147653514Y-100367631D01*
X147660328Y-100368000D01*
X147957885Y-100368000D01*
X147973124Y-100363525D01*
X147974329Y-100362135D01*
X147976000Y-100354452D01*
X147976000Y-99386004D01*
X148466500Y-99386004D01*
X148481277Y-99536713D01*
X148481968Y-99539002D01*
X148484000Y-99559724D01*
X148484000Y-100349884D01*
X148488475Y-100365123D01*
X148489865Y-100366328D01*
X148497548Y-100367999D01*
X148799669Y-100367999D01*
X148806490Y-100367629D01*
X148857352Y-100362105D01*
X148872604Y-100358479D01*
X148993056Y-100313323D01*
X149008466Y-100304886D01*
X149077823Y-100289716D01*
X149106235Y-100295040D01*
X149291180Y-100352290D01*
X149297305Y-100352934D01*
X149297306Y-100352934D01*
X149486622Y-100372832D01*
X149486623Y-100372832D01*
X149492750Y-100373476D01*
X149602090Y-100363525D01*
X149688457Y-100355665D01*
X149688460Y-100355664D01*
X149694596Y-100355106D01*
X149700502Y-100353368D01*
X149700506Y-100353367D01*
X149883120Y-100299620D01*
X149883119Y-100299620D01*
X149889029Y-100297881D01*
X149894486Y-100295028D01*
X149894489Y-100295027D01*
X150046182Y-100215724D01*
X150068460Y-100204077D01*
X150068462Y-100204077D01*
X150068645Y-100203981D01*
X150068663Y-100204016D01*
X150134441Y-100184111D01*
X150195409Y-100199271D01*
X150367565Y-100292356D01*
X150464372Y-100322323D01*
X150555293Y-100350468D01*
X150555296Y-100350469D01*
X150561180Y-100352290D01*
X150567305Y-100352934D01*
X150567306Y-100352934D01*
X150756622Y-100372832D01*
X150756623Y-100372832D01*
X150762750Y-100373476D01*
X150872090Y-100363525D01*
X150958457Y-100355665D01*
X150958460Y-100355664D01*
X150964596Y-100355106D01*
X150970502Y-100353368D01*
X150970506Y-100353367D01*
X151153120Y-100299620D01*
X151153119Y-100299620D01*
X151159029Y-100297881D01*
X151164486Y-100295028D01*
X151164489Y-100295027D01*
X151316182Y-100215724D01*
X151338645Y-100203981D01*
X151496601Y-100076981D01*
X151626881Y-99921719D01*
X151629845Y-99916327D01*
X151629848Y-99916323D01*
X151721556Y-99749506D01*
X151724523Y-99744109D01*
X151785807Y-99550916D01*
X151787401Y-99536713D01*
X151801252Y-99413225D01*
X151803500Y-99393183D01*
X151803500Y-98940533D01*
X153918222Y-98940533D01*
X153918375Y-98944921D01*
X153918375Y-98944927D01*
X153925676Y-99153983D01*
X153928025Y-99221258D01*
X153928787Y-99225581D01*
X153928788Y-99225588D01*
X153957719Y-99389659D01*
X153976802Y-99497887D01*
X154063603Y-99765035D01*
X154065531Y-99768988D01*
X154065533Y-99768993D01*
X154081365Y-99801452D01*
X154186740Y-100017502D01*
X154189195Y-100021141D01*
X154189198Y-100021147D01*
X154219967Y-100066763D01*
X154343815Y-100250376D01*
X154346760Y-100253647D01*
X154346761Y-100253648D01*
X154392806Y-100304786D01*
X154531771Y-100459122D01*
X154746950Y-100639679D01*
X154985164Y-100788531D01*
X155241775Y-100902782D01*
X155511790Y-100980207D01*
X155516140Y-100980818D01*
X155516143Y-100980819D01*
X155619090Y-100995287D01*
X155789952Y-101019300D01*
X156000546Y-101019300D01*
X156002732Y-101019147D01*
X156002736Y-101019147D01*
X156206227Y-101004918D01*
X156206232Y-101004917D01*
X156210612Y-101004611D01*
X156485370Y-100946209D01*
X156489499Y-100944706D01*
X156489503Y-100944705D01*
X156745181Y-100851646D01*
X156745185Y-100851644D01*
X156749326Y-100850137D01*
X156997342Y-100718264D01*
X157102296Y-100642011D01*
X157221029Y-100555747D01*
X157221032Y-100555744D01*
X157224592Y-100553158D01*
X157426652Y-100358031D01*
X157588702Y-100150615D01*
X157596881Y-100140147D01*
X157596882Y-100140146D01*
X157599588Y-100136682D01*
X157601784Y-100132878D01*
X157601789Y-100132871D01*
X157737835Y-99897231D01*
X157740036Y-99893419D01*
X157845262Y-99632976D01*
X157858701Y-99579077D01*
X157912153Y-99364693D01*
X157912154Y-99364688D01*
X157913217Y-99360424D01*
X157914969Y-99343761D01*
X157942119Y-99085436D01*
X157942119Y-99085433D01*
X157942578Y-99081067D01*
X157941872Y-99060837D01*
X157932929Y-98804739D01*
X157932928Y-98804733D01*
X157932775Y-98800342D01*
X157930857Y-98789460D01*
X157884760Y-98528036D01*
X157883998Y-98523713D01*
X157797197Y-98256565D01*
X157790286Y-98242394D01*
X157723932Y-98106351D01*
X157674060Y-98004098D01*
X157671605Y-98000459D01*
X157671602Y-98000453D01*
X157578014Y-97861703D01*
X157516985Y-97771224D01*
X157512913Y-97766701D01*
X157368641Y-97606472D01*
X157329029Y-97562478D01*
X157113850Y-97381921D01*
X156875636Y-97233069D01*
X156619025Y-97118818D01*
X156349010Y-97041393D01*
X156344660Y-97040782D01*
X156344657Y-97040781D01*
X156241710Y-97026313D01*
X156070848Y-97002300D01*
X155860254Y-97002300D01*
X155858068Y-97002453D01*
X155858064Y-97002453D01*
X155654573Y-97016682D01*
X155654568Y-97016683D01*
X155650188Y-97016989D01*
X155375430Y-97075391D01*
X155371301Y-97076894D01*
X155371297Y-97076895D01*
X155115619Y-97169954D01*
X155115615Y-97169956D01*
X155111474Y-97171463D01*
X154863458Y-97303336D01*
X154859899Y-97305922D01*
X154859897Y-97305923D01*
X154681994Y-97435177D01*
X154636208Y-97468442D01*
X154434148Y-97663569D01*
X154307468Y-97825713D01*
X154272777Y-97870116D01*
X154261212Y-97884918D01*
X154259016Y-97888722D01*
X154259011Y-97888729D01*
X154178619Y-98027973D01*
X154120764Y-98128181D01*
X154015538Y-98388624D01*
X154014473Y-98392897D01*
X154014472Y-98392899D01*
X153964656Y-98592702D01*
X153947583Y-98661176D01*
X153947124Y-98665544D01*
X153947123Y-98665549D01*
X153921475Y-98909580D01*
X153918222Y-98940533D01*
X151803500Y-98940533D01*
X151803500Y-98833996D01*
X151788723Y-98683287D01*
X151730142Y-98489258D01*
X151634990Y-98310302D01*
X151627002Y-98300507D01*
X151510785Y-98158013D01*
X151506890Y-98153237D01*
X151494539Y-98143019D01*
X151355472Y-98027973D01*
X151355469Y-98027971D01*
X151350722Y-98024044D01*
X151172435Y-97927644D01*
X151075627Y-97897677D01*
X150984707Y-97869532D01*
X150984704Y-97869531D01*
X150978820Y-97867710D01*
X150972695Y-97867066D01*
X150972694Y-97867066D01*
X150783378Y-97847168D01*
X150783377Y-97847168D01*
X150777250Y-97846524D01*
X150702852Y-97853295D01*
X150581543Y-97864335D01*
X150581540Y-97864336D01*
X150575404Y-97864894D01*
X150569498Y-97866632D01*
X150569494Y-97866633D01*
X150433442Y-97906676D01*
X150380971Y-97922119D01*
X150375514Y-97924972D01*
X150375511Y-97924973D01*
X150291163Y-97969069D01*
X150201540Y-98015923D01*
X150201538Y-98015923D01*
X150201355Y-98016019D01*
X150201337Y-98015984D01*
X150135559Y-98035889D01*
X150074591Y-98020729D01*
X150065815Y-98015984D01*
X149902435Y-97927644D01*
X149805627Y-97897677D01*
X149714707Y-97869532D01*
X149714704Y-97869531D01*
X149708820Y-97867710D01*
X149702695Y-97867066D01*
X149702694Y-97867066D01*
X149513378Y-97847168D01*
X149513377Y-97847168D01*
X149507250Y-97846524D01*
X149432852Y-97853295D01*
X149311543Y-97864335D01*
X149311540Y-97864336D01*
X149305404Y-97864894D01*
X149299498Y-97866632D01*
X149299494Y-97866633D01*
X149224420Y-97888729D01*
X149110971Y-97922119D01*
X149110771Y-97921441D01*
X149044727Y-97927956D01*
X149007677Y-97914680D01*
X148993063Y-97906679D01*
X148872606Y-97861522D01*
X148857351Y-97857895D01*
X148806486Y-97852369D01*
X148799672Y-97852000D01*
X148502115Y-97852000D01*
X148486876Y-97856475D01*
X148485671Y-97857865D01*
X148484000Y-97865548D01*
X148484000Y-98663758D01*
X148483215Y-98677803D01*
X148466500Y-98826817D01*
X148466500Y-99386004D01*
X147976000Y-99386004D01*
X147976000Y-99382115D01*
X147971525Y-99366876D01*
X147970135Y-99365671D01*
X147962452Y-99364000D01*
X147215116Y-99364000D01*
X147199877Y-99368475D01*
X147198672Y-99369865D01*
X147197001Y-99377548D01*
X147197001Y-99904669D01*
X145226786Y-99904669D01*
X145345345Y-99798665D01*
X145536273Y-99575905D01*
X145641919Y-99413225D01*
X145693784Y-99333360D01*
X145693787Y-99333355D01*
X145696063Y-99329850D01*
X145821907Y-99064823D01*
X145894769Y-98837885D01*
X147197000Y-98837885D01*
X147201475Y-98853124D01*
X147202865Y-98854329D01*
X147210548Y-98856000D01*
X147957885Y-98856000D01*
X147973124Y-98851525D01*
X147974329Y-98850135D01*
X147976000Y-98842452D01*
X147976000Y-97870116D01*
X147971525Y-97854877D01*
X147970135Y-97853672D01*
X147962452Y-97852001D01*
X147660331Y-97852001D01*
X147653510Y-97852371D01*
X147602648Y-97857895D01*
X147587396Y-97861521D01*
X147466946Y-97906676D01*
X147451351Y-97915214D01*
X147349276Y-97991715D01*
X147336715Y-98004276D01*
X147260214Y-98106351D01*
X147251676Y-98121946D01*
X147206522Y-98242394D01*
X147202895Y-98257649D01*
X147197369Y-98308514D01*
X147197000Y-98315328D01*
X147197000Y-98837885D01*
X145894769Y-98837885D01*
X145911594Y-98785480D01*
X145963549Y-98496730D01*
X145971768Y-98315743D01*
X145976669Y-98207815D01*
X145976669Y-98207810D01*
X145976858Y-98203645D01*
X145963282Y-98048469D01*
X145951651Y-97915537D01*
X145951287Y-97911375D01*
X145950376Y-97907298D01*
X145888199Y-97629131D01*
X145888197Y-97629124D01*
X145887287Y-97625053D01*
X145785981Y-97349712D01*
X145760441Y-97301270D01*
X145651102Y-97093891D01*
X145651101Y-97093890D01*
X145649149Y-97090187D01*
X145479195Y-96851039D01*
X145279106Y-96636469D01*
X145052396Y-96450248D01*
X144803049Y-96295646D01*
X144799232Y-96293930D01*
X144799229Y-96293929D01*
X144710954Y-96254257D01*
X144535444Y-96175380D01*
X144447494Y-96149161D01*
X144258282Y-96092753D01*
X144258274Y-96092751D01*
X144254285Y-96091562D01*
X144250169Y-96090910D01*
X144250164Y-96090909D01*
X143967978Y-96046216D01*
X143967973Y-96046216D01*
X143964510Y-96045667D01*
X143915414Y-96043437D01*
X143874168Y-96041564D01*
X143874149Y-96041564D01*
X143872749Y-96041500D01*
X143689480Y-96041500D01*
X143471158Y-96056001D01*
X143183559Y-96113991D01*
X142906156Y-96209508D01*
X142902414Y-96211382D01*
X142902409Y-96211384D01*
X142650293Y-96337635D01*
X142643823Y-96340875D01*
X142640358Y-96343230D01*
X142420409Y-96492707D01*
X142401168Y-96505783D01*
X142182455Y-96701335D01*
X141991527Y-96924095D01*
X141989253Y-96927597D01*
X141883666Y-97090187D01*
X141831737Y-97170150D01*
X141705893Y-97435177D01*
X141616206Y-97714520D01*
X141564251Y-98003270D01*
X141561889Y-98055283D01*
X141552559Y-98260754D01*
X141550942Y-98296355D01*
X140061734Y-98296355D01*
X140039414Y-98248489D01*
X140033931Y-98238994D01*
X139997491Y-98186952D01*
X139987012Y-98178576D01*
X139973566Y-98185644D01*
X139272022Y-98887188D01*
X139264408Y-98901132D01*
X138597694Y-98901132D01*
X138600924Y-98855968D01*
X138629885Y-98810905D01*
X139615077Y-97825713D01*
X139621507Y-97813938D01*
X139612211Y-97801923D01*
X139561006Y-97766069D01*
X139551511Y-97760586D01*
X139354053Y-97668510D01*
X139343761Y-97664764D01*
X139133312Y-97608375D01*
X139122519Y-97606472D01*
X138905475Y-97587483D01*
X138894525Y-97587483D01*
X138677481Y-97606472D01*
X138666688Y-97608375D01*
X138456239Y-97664764D01*
X138445947Y-97668510D01*
X138248489Y-97760586D01*
X138238989Y-97766071D01*
X138238090Y-97766701D01*
X138237630Y-97766856D01*
X138234232Y-97768818D01*
X138233838Y-97768135D01*
X138170816Y-97789388D01*
X138101956Y-97772102D01*
X138076197Y-97749066D01*
X138074993Y-97750270D01*
X138068642Y-97743919D01*
X138063261Y-97736739D01*
X138056081Y-97731358D01*
X138056078Y-97731355D01*
X137972223Y-97668510D01*
X137946705Y-97649385D01*
X137810316Y-97598255D01*
X137748134Y-97591500D01*
X136051866Y-97591500D01*
X135989684Y-97598255D01*
X135853295Y-97649385D01*
X135736739Y-97736739D01*
X135649385Y-97853295D01*
X135598255Y-97989684D01*
X135591500Y-98051866D01*
X135591500Y-99748134D01*
X133395135Y-99748134D01*
X133441662Y-99632976D01*
X133455101Y-99579077D01*
X133508553Y-99364693D01*
X133508554Y-99364688D01*
X133509617Y-99360424D01*
X133511369Y-99343761D01*
X133538519Y-99085436D01*
X133538519Y-99085433D01*
X133538978Y-99081067D01*
X133538272Y-99060837D01*
X133529329Y-98804739D01*
X133529328Y-98804733D01*
X133529175Y-98800342D01*
X133527257Y-98789460D01*
X133481160Y-98528036D01*
X133480398Y-98523713D01*
X133393597Y-98256565D01*
X133386686Y-98242394D01*
X133320332Y-98106351D01*
X133270460Y-98004098D01*
X133268005Y-98000459D01*
X133268002Y-98000453D01*
X133174414Y-97861703D01*
X133113385Y-97771224D01*
X133109313Y-97766701D01*
X132965041Y-97606472D01*
X132925429Y-97562478D01*
X132710250Y-97381921D01*
X132472036Y-97233069D01*
X132215425Y-97118818D01*
X131945410Y-97041393D01*
X131941060Y-97040782D01*
X131941057Y-97040781D01*
X131838110Y-97026313D01*
X131667248Y-97002300D01*
X131456654Y-97002300D01*
X131454468Y-97002453D01*
X131454464Y-97002453D01*
X131250973Y-97016682D01*
X131250968Y-97016683D01*
X131246588Y-97016989D01*
X130971830Y-97075391D01*
X130967701Y-97076894D01*
X130967697Y-97076895D01*
X130712019Y-97169954D01*
X130712015Y-97169956D01*
X130707874Y-97171463D01*
X130459858Y-97303336D01*
X130456299Y-97305922D01*
X130456297Y-97305923D01*
X130278394Y-97435177D01*
X130232608Y-97468442D01*
X130030548Y-97663569D01*
X129903868Y-97825713D01*
X129869177Y-97870116D01*
X129857612Y-97884918D01*
X129855416Y-97888722D01*
X129855411Y-97888729D01*
X129775019Y-98027973D01*
X129717164Y-98128181D01*
X129611938Y-98388624D01*
X129610873Y-98392897D01*
X129610872Y-98392899D01*
X129561056Y-98592702D01*
X129543983Y-98661176D01*
X129543524Y-98665544D01*
X129543523Y-98665549D01*
X129517875Y-98909580D01*
X129514622Y-98940533D01*
X128500000Y-98940533D01*
X128500000Y-94953839D01*
X137737173Y-94953839D01*
X137738893Y-94989647D01*
X137749713Y-95214908D01*
X137800704Y-95471256D01*
X137889026Y-95717252D01*
X137891242Y-95721376D01*
X137955753Y-95841437D01*
X138012737Y-95947491D01*
X138015532Y-95951234D01*
X138015534Y-95951237D01*
X138166330Y-96153177D01*
X138166335Y-96153183D01*
X138169122Y-96156915D01*
X138172431Y-96160195D01*
X138172436Y-96160201D01*
X138307337Y-96293929D01*
X138354743Y-96340923D01*
X138358505Y-96343681D01*
X138358508Y-96343684D01*
X138507456Y-96452897D01*
X138565524Y-96495474D01*
X138569667Y-96497654D01*
X138569669Y-96497655D01*
X138792684Y-96614989D01*
X138792689Y-96614991D01*
X138796834Y-96617172D01*
X138935254Y-96665511D01*
X139029857Y-96698548D01*
X139043590Y-96703344D01*
X139048183Y-96704216D01*
X139295785Y-96751224D01*
X139295788Y-96751224D01*
X139300374Y-96752095D01*
X139430959Y-96757226D01*
X139556875Y-96762174D01*
X139556881Y-96762174D01*
X139561543Y-96762357D01*
X139640977Y-96753657D01*
X139816707Y-96734412D01*
X139816712Y-96734411D01*
X139821360Y-96733902D01*
X139934116Y-96704216D01*
X140069594Y-96668548D01*
X140069596Y-96668547D01*
X140074117Y-96667357D01*
X140146011Y-96636469D01*
X140309972Y-96566025D01*
X140314262Y-96564182D01*
X140412434Y-96503432D01*
X140532547Y-96429104D01*
X140532548Y-96429104D01*
X140536519Y-96426646D01*
X140540082Y-96423629D01*
X140540087Y-96423626D01*
X140732439Y-96260787D01*
X140732440Y-96260786D01*
X140736005Y-96257768D01*
X140806753Y-96177096D01*
X140905257Y-96064774D01*
X140905261Y-96064769D01*
X140908339Y-96061259D01*
X140918471Y-96045508D01*
X141047205Y-95845367D01*
X141049733Y-95841437D01*
X141157083Y-95603129D01*
X141228030Y-95351572D01*
X141244832Y-95219496D01*
X141260616Y-95095421D01*
X141260616Y-95095417D01*
X141261014Y-95092291D01*
X141262076Y-95051762D01*
X141263348Y-95003160D01*
X141263431Y-95000000D01*
X141262662Y-94989647D01*
X141260001Y-94953839D01*
X146037173Y-94953839D01*
X146038893Y-94989647D01*
X146049713Y-95214908D01*
X146100704Y-95471256D01*
X146189026Y-95717252D01*
X146191242Y-95721376D01*
X146255753Y-95841437D01*
X146312737Y-95947491D01*
X146315532Y-95951234D01*
X146315534Y-95951237D01*
X146466330Y-96153177D01*
X146466335Y-96153183D01*
X146469122Y-96156915D01*
X146472431Y-96160195D01*
X146472436Y-96160201D01*
X146607337Y-96293929D01*
X146654743Y-96340923D01*
X146658505Y-96343681D01*
X146658508Y-96343684D01*
X146807456Y-96452897D01*
X146865524Y-96495474D01*
X146869667Y-96497654D01*
X146869669Y-96497655D01*
X147092684Y-96614989D01*
X147092689Y-96614991D01*
X147096834Y-96617172D01*
X147235254Y-96665511D01*
X147329857Y-96698548D01*
X147343590Y-96703344D01*
X147348183Y-96704216D01*
X147595785Y-96751224D01*
X147595788Y-96751224D01*
X147600374Y-96752095D01*
X147730959Y-96757226D01*
X147856875Y-96762174D01*
X147856881Y-96762174D01*
X147861543Y-96762357D01*
X147940977Y-96753657D01*
X148116707Y-96734412D01*
X148116712Y-96734411D01*
X148121360Y-96733902D01*
X148234116Y-96704216D01*
X148369594Y-96668548D01*
X148369596Y-96668547D01*
X148374117Y-96667357D01*
X148446011Y-96636469D01*
X148609972Y-96566025D01*
X148614262Y-96564182D01*
X148712434Y-96503432D01*
X148832547Y-96429104D01*
X148832548Y-96429104D01*
X148836519Y-96426646D01*
X148840082Y-96423629D01*
X148840087Y-96423626D01*
X149032439Y-96260787D01*
X149032440Y-96260786D01*
X149036005Y-96257768D01*
X149106753Y-96177096D01*
X149205257Y-96064774D01*
X149205261Y-96064769D01*
X149208339Y-96061259D01*
X149218471Y-96045508D01*
X149347205Y-95845367D01*
X149349733Y-95841437D01*
X149457083Y-95603129D01*
X149528030Y-95351572D01*
X149544832Y-95219496D01*
X149560616Y-95095421D01*
X149560616Y-95095417D01*
X149561014Y-95092291D01*
X149562076Y-95051762D01*
X149563348Y-95003160D01*
X149563431Y-95000000D01*
X149562662Y-94989647D01*
X149544407Y-94744000D01*
X149544406Y-94743996D01*
X149544061Y-94739348D01*
X149532725Y-94689248D01*
X149487408Y-94488980D01*
X149486377Y-94484423D01*
X149462149Y-94422121D01*
X149453547Y-94400000D01*
X151686502Y-94400000D01*
X151706457Y-94628087D01*
X151707881Y-94633400D01*
X151707881Y-94633402D01*
X151736270Y-94739348D01*
X151765716Y-94849243D01*
X151768039Y-94854224D01*
X151768039Y-94854225D01*
X151860151Y-95051762D01*
X151860154Y-95051767D01*
X151862477Y-95056749D01*
X151993802Y-95244300D01*
X152155700Y-95406198D01*
X152160208Y-95409355D01*
X152160211Y-95409357D01*
X152221716Y-95452423D01*
X152343251Y-95537523D01*
X152348233Y-95539846D01*
X152348238Y-95539849D01*
X152545775Y-95631961D01*
X152550757Y-95634284D01*
X152556065Y-95635706D01*
X152556067Y-95635707D01*
X152766598Y-95692119D01*
X152766600Y-95692119D01*
X152771913Y-95693543D01*
X153000000Y-95713498D01*
X153228087Y-95693543D01*
X153233400Y-95692119D01*
X153233402Y-95692119D01*
X153443933Y-95635707D01*
X153443935Y-95635706D01*
X153449243Y-95634284D01*
X153454225Y-95631961D01*
X153651762Y-95539849D01*
X153651767Y-95539846D01*
X153656749Y-95537523D01*
X153778284Y-95452423D01*
X153839789Y-95409357D01*
X153839792Y-95409355D01*
X153844300Y-95406198D01*
X154006198Y-95244300D01*
X154137523Y-95056749D01*
X154139846Y-95051767D01*
X154140882Y-95049973D01*
X154192266Y-95000981D01*
X154261979Y-94987546D01*
X154327890Y-95013934D01*
X154359118Y-95049973D01*
X154360154Y-95051767D01*
X154362477Y-95056749D01*
X154493802Y-95244300D01*
X154655700Y-95406198D01*
X154660208Y-95409355D01*
X154660211Y-95409357D01*
X154721716Y-95452423D01*
X154843251Y-95537523D01*
X154848233Y-95539846D01*
X154848238Y-95539849D01*
X155045775Y-95631961D01*
X155050757Y-95634284D01*
X155056065Y-95635706D01*
X155056067Y-95635707D01*
X155266598Y-95692119D01*
X155266600Y-95692119D01*
X155271913Y-95693543D01*
X155500000Y-95713498D01*
X155728087Y-95693543D01*
X155733400Y-95692119D01*
X155733402Y-95692119D01*
X155943933Y-95635707D01*
X155943935Y-95635706D01*
X155949243Y-95634284D01*
X155954225Y-95631961D01*
X156151762Y-95539849D01*
X156151767Y-95539846D01*
X156156749Y-95537523D01*
X156278284Y-95452423D01*
X156339789Y-95409357D01*
X156339792Y-95409355D01*
X156344300Y-95406198D01*
X156506198Y-95244300D01*
X156637523Y-95056749D01*
X156639846Y-95051767D01*
X156639849Y-95051762D01*
X156731961Y-94854225D01*
X156731961Y-94854224D01*
X156734284Y-94849243D01*
X156763731Y-94739348D01*
X156792119Y-94633402D01*
X156792119Y-94633400D01*
X156793543Y-94628087D01*
X156813498Y-94400000D01*
X156793543Y-94171913D01*
X156750000Y-94009409D01*
X156735707Y-93956067D01*
X156735706Y-93956065D01*
X156734284Y-93950757D01*
X156668016Y-93808643D01*
X156639849Y-93748238D01*
X156639846Y-93748233D01*
X156637523Y-93743251D01*
X156506198Y-93555700D01*
X156344300Y-93393802D01*
X156339792Y-93390645D01*
X156339789Y-93390643D01*
X156191371Y-93286720D01*
X156156749Y-93262477D01*
X156151767Y-93260154D01*
X156151762Y-93260151D01*
X155954225Y-93168039D01*
X155954224Y-93168039D01*
X155949243Y-93165716D01*
X155943935Y-93164294D01*
X155943933Y-93164293D01*
X155733402Y-93107881D01*
X155733400Y-93107881D01*
X155728087Y-93106457D01*
X155500000Y-93086502D01*
X155271913Y-93106457D01*
X155266600Y-93107881D01*
X155266598Y-93107881D01*
X155056067Y-93164293D01*
X155056065Y-93164294D01*
X155050757Y-93165716D01*
X155045776Y-93168039D01*
X155045775Y-93168039D01*
X154848238Y-93260151D01*
X154848233Y-93260154D01*
X154843251Y-93262477D01*
X154808629Y-93286720D01*
X154660211Y-93390643D01*
X154660208Y-93390645D01*
X154655700Y-93393802D01*
X154493802Y-93555700D01*
X154362477Y-93743251D01*
X154360154Y-93748233D01*
X154359118Y-93750027D01*
X154307734Y-93799019D01*
X154238021Y-93812454D01*
X154172110Y-93786066D01*
X154140882Y-93750027D01*
X154139846Y-93748233D01*
X154137523Y-93743251D01*
X154006198Y-93555700D01*
X153844300Y-93393802D01*
X153839792Y-93390645D01*
X153839789Y-93390643D01*
X153691371Y-93286720D01*
X153656749Y-93262477D01*
X153651767Y-93260154D01*
X153651762Y-93260151D01*
X153454225Y-93168039D01*
X153454224Y-93168039D01*
X153449243Y-93165716D01*
X153443935Y-93164294D01*
X153443933Y-93164293D01*
X153233402Y-93107881D01*
X153233400Y-93107881D01*
X153228087Y-93106457D01*
X153000000Y-93086502D01*
X152771913Y-93106457D01*
X152766600Y-93107881D01*
X152766598Y-93107881D01*
X152556067Y-93164293D01*
X152556065Y-93164294D01*
X152550757Y-93165716D01*
X152545776Y-93168039D01*
X152545775Y-93168039D01*
X152348238Y-93260151D01*
X152348233Y-93260154D01*
X152343251Y-93262477D01*
X152308629Y-93286720D01*
X152160211Y-93390643D01*
X152160208Y-93390645D01*
X152155700Y-93393802D01*
X151993802Y-93555700D01*
X151862477Y-93743251D01*
X151860154Y-93748233D01*
X151860151Y-93748238D01*
X151831984Y-93808643D01*
X151765716Y-93950757D01*
X151764294Y-93956065D01*
X151764293Y-93956067D01*
X151750000Y-94009409D01*
X151706457Y-94171913D01*
X151686502Y-94400000D01*
X149453547Y-94400000D01*
X149393340Y-94245176D01*
X149393339Y-94245173D01*
X149391647Y-94240823D01*
X149261951Y-94013902D01*
X149100138Y-93808643D01*
X148909763Y-93629557D01*
X148695009Y-93480576D01*
X148690816Y-93478508D01*
X148464781Y-93367040D01*
X148464778Y-93367039D01*
X148460593Y-93364975D01*
X148414449Y-93350204D01*
X148216123Y-93286720D01*
X148211665Y-93285293D01*
X147953693Y-93243279D01*
X147839942Y-93241790D01*
X147697022Y-93239919D01*
X147697019Y-93239919D01*
X147692345Y-93239858D01*
X147433362Y-93275104D01*
X147182433Y-93348243D01*
X147178180Y-93350203D01*
X147178179Y-93350204D01*
X147141659Y-93367040D01*
X146945072Y-93457668D01*
X146906067Y-93483241D01*
X146730404Y-93598410D01*
X146730399Y-93598414D01*
X146726491Y-93600976D01*
X146531494Y-93775018D01*
X146364363Y-93975970D01*
X146361934Y-93979973D01*
X146242137Y-94177393D01*
X146228771Y-94199419D01*
X146127697Y-94440455D01*
X146063359Y-94693783D01*
X146037173Y-94953839D01*
X141260001Y-94953839D01*
X141244407Y-94744000D01*
X141244406Y-94743996D01*
X141244061Y-94739348D01*
X141232725Y-94689248D01*
X141187408Y-94488980D01*
X141186377Y-94484423D01*
X141162149Y-94422121D01*
X141093340Y-94245176D01*
X141093339Y-94245173D01*
X141091647Y-94240823D01*
X140961951Y-94013902D01*
X140800138Y-93808643D01*
X140609763Y-93629557D01*
X140395009Y-93480576D01*
X140390816Y-93478508D01*
X140164781Y-93367040D01*
X140164778Y-93367039D01*
X140160593Y-93364975D01*
X140114449Y-93350204D01*
X139916123Y-93286720D01*
X139911665Y-93285293D01*
X139653693Y-93243279D01*
X139539942Y-93241790D01*
X139397022Y-93239919D01*
X139397019Y-93239919D01*
X139392345Y-93239858D01*
X139133362Y-93275104D01*
X138882433Y-93348243D01*
X138878180Y-93350203D01*
X138878179Y-93350204D01*
X138841659Y-93367040D01*
X138645072Y-93457668D01*
X138606067Y-93483241D01*
X138430404Y-93598410D01*
X138430399Y-93598414D01*
X138426491Y-93600976D01*
X138231494Y-93775018D01*
X138064363Y-93975970D01*
X138061934Y-93979973D01*
X137942137Y-94177393D01*
X137928771Y-94199419D01*
X137827697Y-94440455D01*
X137763359Y-94693783D01*
X137737173Y-94953839D01*
X128500000Y-94953839D01*
X128500000Y-83246812D01*
X143271737Y-83246812D01*
X143284944Y-83475851D01*
X143286377Y-83486053D01*
X143336810Y-83709842D01*
X143339898Y-83719695D01*
X143426204Y-83932240D01*
X143430852Y-83941441D01*
X143527736Y-84099543D01*
X143538192Y-84109004D01*
X143546970Y-84105220D01*
X144361978Y-83290212D01*
X144369592Y-83276268D01*
X144369461Y-83274435D01*
X144365210Y-83267820D01*
X143551884Y-82454494D01*
X143540348Y-82448194D01*
X143528065Y-82457818D01*
X143464849Y-82550489D01*
X143459756Y-82559453D01*
X143363163Y-82767545D01*
X143359606Y-82777213D01*
X143298299Y-82998279D01*
X143296368Y-83008399D01*
X143271989Y-83236523D01*
X143271737Y-83246812D01*
X128500000Y-83246812D01*
X128500000Y-72655475D01*
X135237983Y-72655475D01*
X135256972Y-72872519D01*
X135258875Y-72883312D01*
X135315264Y-73093761D01*
X135319010Y-73104053D01*
X135411086Y-73301511D01*
X135416569Y-73311006D01*
X135453009Y-73363048D01*
X135463488Y-73371424D01*
X135476934Y-73364356D01*
X136178478Y-72662812D01*
X136184856Y-72651132D01*
X136914908Y-72651132D01*
X136915039Y-72652965D01*
X136919290Y-72659580D01*
X137624787Y-73365077D01*
X137636562Y-73371507D01*
X137648577Y-73362211D01*
X137684431Y-73311006D01*
X137689914Y-73301511D01*
X137781990Y-73104053D01*
X137785736Y-73093761D01*
X137842125Y-72883312D01*
X137844028Y-72872519D01*
X137863017Y-72655475D01*
X137863017Y-72644525D01*
X137844028Y-72427481D01*
X137842125Y-72416688D01*
X137785736Y-72206239D01*
X137781990Y-72195947D01*
X137689914Y-71998489D01*
X137684431Y-71988994D01*
X137647991Y-71936952D01*
X137637512Y-71928576D01*
X137624066Y-71935644D01*
X136922522Y-72637188D01*
X136914908Y-72651132D01*
X136184856Y-72651132D01*
X136186092Y-72648868D01*
X136185961Y-72647035D01*
X136181710Y-72640420D01*
X135476213Y-71934923D01*
X135464438Y-71928493D01*
X135452423Y-71937789D01*
X135416569Y-71988994D01*
X135411086Y-71998489D01*
X135319010Y-72195947D01*
X135315264Y-72206239D01*
X135258875Y-72416688D01*
X135256972Y-72427481D01*
X135237983Y-72644525D01*
X135237983Y-72655475D01*
X128500000Y-72655475D01*
X128500000Y-71562988D01*
X135829076Y-71562988D01*
X135836144Y-71576434D01*
X136537688Y-72277978D01*
X136551632Y-72285592D01*
X136553465Y-72285461D01*
X136560080Y-72281210D01*
X137265577Y-71575713D01*
X137272007Y-71563938D01*
X137262711Y-71551923D01*
X137211506Y-71516069D01*
X137202011Y-71510586D01*
X137004553Y-71418510D01*
X136994261Y-71414764D01*
X136783812Y-71358375D01*
X136773019Y-71356472D01*
X136555975Y-71337483D01*
X136545025Y-71337483D01*
X136327981Y-71356472D01*
X136317188Y-71358375D01*
X136106739Y-71414764D01*
X136096447Y-71418510D01*
X135898989Y-71510586D01*
X135889494Y-71516069D01*
X135837452Y-71552509D01*
X135829076Y-71562988D01*
X128500000Y-71562988D01*
X128500000Y-68728918D01*
X132886917Y-68728918D01*
X132887334Y-68736156D01*
X132902682Y-69002320D01*
X132955405Y-69271053D01*
X132956792Y-69275103D01*
X132956793Y-69275108D01*
X133038827Y-69514709D01*
X133044112Y-69530144D01*
X133073238Y-69588054D01*
X133142837Y-69726437D01*
X133167160Y-69774799D01*
X133169586Y-69778328D01*
X133169589Y-69778334D01*
X133273926Y-69930144D01*
X133322274Y-70000490D01*
X133506582Y-70203043D01*
X133716675Y-70378707D01*
X133720316Y-70380991D01*
X133945024Y-70521951D01*
X133945028Y-70521953D01*
X133948664Y-70524234D01*
X134016544Y-70554883D01*
X134194345Y-70635164D01*
X134194349Y-70635166D01*
X134198257Y-70636930D01*
X134223945Y-70644539D01*
X134456723Y-70713491D01*
X134456727Y-70713492D01*
X134460836Y-70714709D01*
X134465070Y-70715357D01*
X134465075Y-70715358D01*
X134727298Y-70755483D01*
X134727300Y-70755483D01*
X134731540Y-70756132D01*
X134870912Y-70758322D01*
X135001071Y-70760367D01*
X135001077Y-70760367D01*
X135005362Y-70760434D01*
X135277235Y-70727534D01*
X135542127Y-70658041D01*
X135546087Y-70656401D01*
X135546092Y-70656399D01*
X135682571Y-70599867D01*
X135795136Y-70553241D01*
X135924198Y-70477823D01*
X136027879Y-70417237D01*
X136027880Y-70417236D01*
X136031582Y-70415073D01*
X136247089Y-70246094D01*
X136288809Y-70203043D01*
X136434686Y-70052509D01*
X136437669Y-70049431D01*
X136440202Y-70045983D01*
X136440206Y-70045978D01*
X136582910Y-69851710D01*
X136599795Y-69828723D01*
X136627154Y-69778334D01*
X136728418Y-69591830D01*
X136728419Y-69591828D01*
X136730468Y-69588054D01*
X136827269Y-69331877D01*
X136874731Y-69124648D01*
X136887449Y-69069117D01*
X136887450Y-69069113D01*
X136888407Y-69064933D01*
X136890089Y-69046094D01*
X136912531Y-68794627D01*
X136912531Y-68794625D01*
X136912751Y-68792161D01*
X136913193Y-68750000D01*
X136906305Y-68648964D01*
X136894859Y-68481055D01*
X136894858Y-68481049D01*
X136894567Y-68476778D01*
X136891118Y-68460121D01*
X136844698Y-68235973D01*
X136839032Y-68208612D01*
X136747617Y-67950465D01*
X136622013Y-67707112D01*
X136612040Y-67692921D01*
X136511593Y-67550000D01*
X136464545Y-67483057D01*
X136278125Y-67282445D01*
X136274810Y-67279731D01*
X136274806Y-67279728D01*
X136127802Y-67159407D01*
X136066205Y-67108990D01*
X135832704Y-66965901D01*
X135820872Y-66960707D01*
X135585873Y-66857549D01*
X135585869Y-66857548D01*
X135581945Y-66855825D01*
X135318566Y-66780800D01*
X135314324Y-66780196D01*
X135314318Y-66780195D01*
X135105424Y-66750465D01*
X135047443Y-66742213D01*
X134903589Y-66741460D01*
X134777877Y-66740802D01*
X134777871Y-66740802D01*
X134773591Y-66740780D01*
X134769347Y-66741339D01*
X134769343Y-66741339D01*
X134650302Y-66757011D01*
X134502078Y-66776525D01*
X134497938Y-66777658D01*
X134497936Y-66777658D01*
X134425008Y-66797609D01*
X134237928Y-66848788D01*
X134233980Y-66850472D01*
X133989982Y-66954546D01*
X133989978Y-66954548D01*
X133986030Y-66956232D01*
X133905256Y-67004574D01*
X133754725Y-67094664D01*
X133754721Y-67094667D01*
X133751043Y-67096868D01*
X133537318Y-67268094D01*
X133348808Y-67466742D01*
X133189002Y-67689136D01*
X133060857Y-67931161D01*
X133059385Y-67935184D01*
X133059383Y-67935188D01*
X132985934Y-68135895D01*
X132966743Y-68188337D01*
X132908404Y-68455907D01*
X132905319Y-68495110D01*
X132894909Y-68627379D01*
X132886917Y-68728918D01*
X128500000Y-68728918D01*
X128500000Y-64679733D01*
X129514622Y-64679733D01*
X129514775Y-64684121D01*
X129514775Y-64684127D01*
X129515201Y-64696303D01*
X129524425Y-64960458D01*
X129525187Y-64964781D01*
X129525188Y-64964788D01*
X129548964Y-65099624D01*
X129573202Y-65237087D01*
X129660003Y-65504235D01*
X129783140Y-65756702D01*
X129785595Y-65760341D01*
X129785598Y-65760347D01*
X129790858Y-65768145D01*
X129940215Y-65989576D01*
X130128171Y-66198322D01*
X130343350Y-66378879D01*
X130581564Y-66527731D01*
X130715284Y-66587267D01*
X130824679Y-66635973D01*
X130838175Y-66641982D01*
X131108190Y-66719407D01*
X131112540Y-66720018D01*
X131112543Y-66720019D01*
X131191824Y-66731161D01*
X131386352Y-66758500D01*
X131596946Y-66758500D01*
X131599132Y-66758347D01*
X131599136Y-66758347D01*
X131802627Y-66744118D01*
X131802632Y-66744117D01*
X131807012Y-66743811D01*
X132081770Y-66685409D01*
X132085899Y-66683906D01*
X132085903Y-66683905D01*
X132341581Y-66590846D01*
X132341585Y-66590844D01*
X132345726Y-66589337D01*
X132593742Y-66457464D01*
X132698696Y-66381211D01*
X132817429Y-66294947D01*
X132817432Y-66294944D01*
X132820992Y-66292358D01*
X132830624Y-66283057D01*
X132933843Y-66183379D01*
X133023052Y-66097231D01*
X133195988Y-65875882D01*
X133198184Y-65872078D01*
X133198189Y-65872071D01*
X133323716Y-65654650D01*
X133336436Y-65632619D01*
X133441662Y-65372176D01*
X133445913Y-65355126D01*
X136645138Y-65355126D01*
X136647767Y-65689777D01*
X136648226Y-65693436D01*
X136685785Y-65992848D01*
X136689421Y-66021837D01*
X136690301Y-66025408D01*
X136690302Y-66025411D01*
X136768651Y-66343194D01*
X136768654Y-66343203D01*
X136769533Y-66346769D01*
X136770827Y-66350220D01*
X136770827Y-66350221D01*
X136811805Y-66459530D01*
X136887007Y-66660135D01*
X137040240Y-66957655D01*
X137227139Y-67235265D01*
X137445150Y-67489174D01*
X137691296Y-67715914D01*
X137804529Y-67798032D01*
X137926604Y-67886562D01*
X137962214Y-67912387D01*
X137965433Y-67914190D01*
X137965435Y-67914191D01*
X138030207Y-67950465D01*
X138254205Y-68075910D01*
X138257602Y-68077321D01*
X138257605Y-68077322D01*
X138559875Y-68202835D01*
X138559879Y-68202836D01*
X138563281Y-68204249D01*
X138675019Y-68235973D01*
X138881664Y-68294643D01*
X138881669Y-68294644D01*
X138885219Y-68295652D01*
X139215622Y-68348870D01*
X139219042Y-68349043D01*
X139219049Y-68349044D01*
X139404136Y-68358420D01*
X139404153Y-68358420D01*
X139405724Y-68358500D01*
X139590914Y-68358500D01*
X139839090Y-68343973D01*
X139842716Y-68343330D01*
X139842719Y-68343330D01*
X140164996Y-68286214D01*
X140165000Y-68286213D01*
X140168617Y-68285572D01*
X140448584Y-68201312D01*
X140485555Y-68190185D01*
X140485557Y-68190184D01*
X140489080Y-68189124D01*
X140669368Y-68110919D01*
X140792713Y-68057415D01*
X140792718Y-68057412D01*
X140796101Y-68055945D01*
X141085488Y-67887856D01*
X141088427Y-67885653D01*
X141088432Y-67885650D01*
X141350338Y-67689362D01*
X141353287Y-67687152D01*
X141355960Y-67684611D01*
X141593165Y-67459118D01*
X141593166Y-67459117D01*
X141595841Y-67456574D01*
X141809837Y-67199272D01*
X141822250Y-67180195D01*
X141990348Y-66921840D01*
X141992352Y-66918760D01*
X142140892Y-66618870D01*
X142150899Y-66590846D01*
X142252188Y-66307175D01*
X142253430Y-66303697D01*
X142278411Y-66195060D01*
X142327603Y-65981137D01*
X142327604Y-65981128D01*
X142328428Y-65977547D01*
X142351362Y-65768145D01*
X142364460Y-65648545D01*
X142364460Y-65648544D01*
X142364862Y-65644874D01*
X142362233Y-65310223D01*
X142353059Y-65237087D01*
X142321038Y-64981820D01*
X142321037Y-64981816D01*
X142320579Y-64978163D01*
X142319698Y-64974589D01*
X142241349Y-64656806D01*
X142241346Y-64656797D01*
X142240467Y-64653231D01*
X142122993Y-64339865D01*
X141969760Y-64042345D01*
X141782861Y-63764735D01*
X141564850Y-63510826D01*
X141318704Y-63284086D01*
X141097890Y-63123949D01*
X141050769Y-63089776D01*
X141050765Y-63089774D01*
X141047786Y-63087613D01*
X140967296Y-63042536D01*
X140759011Y-62925891D01*
X140759010Y-62925891D01*
X140755795Y-62924090D01*
X140752395Y-62922678D01*
X140450125Y-62797165D01*
X140450121Y-62797164D01*
X140446719Y-62795751D01*
X140160285Y-62714428D01*
X140128336Y-62705357D01*
X140128331Y-62705356D01*
X140124781Y-62704348D01*
X139794378Y-62651130D01*
X139790958Y-62650957D01*
X139790951Y-62650956D01*
X139605864Y-62641580D01*
X139605847Y-62641580D01*
X139604276Y-62641500D01*
X139419086Y-62641500D01*
X139170910Y-62656027D01*
X139167284Y-62656670D01*
X139167281Y-62656670D01*
X138845004Y-62713786D01*
X138845000Y-62713787D01*
X138841383Y-62714428D01*
X138520920Y-62810876D01*
X138512356Y-62814591D01*
X138217287Y-62942585D01*
X138217282Y-62942588D01*
X138213899Y-62944055D01*
X137924512Y-63112144D01*
X137921573Y-63114347D01*
X137921568Y-63114350D01*
X137797089Y-63207642D01*
X137656713Y-63312848D01*
X137654040Y-63315389D01*
X137558475Y-63406236D01*
X137414159Y-63543426D01*
X137411803Y-63546259D01*
X137411800Y-63546262D01*
X137307161Y-63672077D01*
X137200163Y-63800728D01*
X137198156Y-63803813D01*
X137198155Y-63803814D01*
X137156795Y-63867381D01*
X137017648Y-64081240D01*
X136869108Y-64381130D01*
X136756570Y-64696303D01*
X136755743Y-64699900D01*
X136682397Y-65018863D01*
X136682396Y-65018872D01*
X136681572Y-65022453D01*
X136681171Y-65026110D01*
X136681171Y-65026113D01*
X136657608Y-65241265D01*
X136645138Y-65355126D01*
X133445913Y-65355126D01*
X133446828Y-65351455D01*
X133508553Y-65103893D01*
X133508554Y-65103888D01*
X133509617Y-65099624D01*
X133521999Y-64981820D01*
X133538519Y-64824636D01*
X133538519Y-64824633D01*
X133538978Y-64820267D01*
X133534775Y-64699900D01*
X133529329Y-64543939D01*
X133529328Y-64543933D01*
X133529175Y-64539542D01*
X133505408Y-64404749D01*
X133481160Y-64267236D01*
X133480398Y-64262913D01*
X133393597Y-63995765D01*
X133270460Y-63743298D01*
X133268005Y-63739659D01*
X133268002Y-63739653D01*
X133133929Y-63540882D01*
X133113385Y-63510424D01*
X132925429Y-63301678D01*
X132710250Y-63121121D01*
X132472036Y-62972269D01*
X132215425Y-62858018D01*
X131945410Y-62780593D01*
X131941060Y-62779982D01*
X131941057Y-62779981D01*
X131838110Y-62765513D01*
X131667248Y-62741500D01*
X131456654Y-62741500D01*
X131454468Y-62741653D01*
X131454464Y-62741653D01*
X131250973Y-62755882D01*
X131250968Y-62755883D01*
X131246588Y-62756189D01*
X130971830Y-62814591D01*
X130967701Y-62816094D01*
X130967697Y-62816095D01*
X130712019Y-62909154D01*
X130712015Y-62909156D01*
X130707874Y-62910663D01*
X130459858Y-63042536D01*
X130456299Y-63045122D01*
X130456297Y-63045123D01*
X130351695Y-63121121D01*
X130232608Y-63207642D01*
X130030548Y-63402769D01*
X129857612Y-63624118D01*
X129855416Y-63627922D01*
X129855411Y-63627929D01*
X129755646Y-63800728D01*
X129717164Y-63867381D01*
X129611938Y-64127824D01*
X129610873Y-64132097D01*
X129610872Y-64132099D01*
X129548782Y-64381130D01*
X129543983Y-64400376D01*
X129543524Y-64404744D01*
X129543523Y-64404749D01*
X129515081Y-64675364D01*
X129514622Y-64679733D01*
X128500000Y-64679733D01*
X128500000Y-61726000D01*
X128520002Y-61657879D01*
X128573658Y-61611386D01*
X128626000Y-61600000D01*
X159035616Y-61600000D01*
X159103737Y-61620002D01*
G37*
%TD.AperFunction*%
%TD*%
M02*
