%TF.GenerationSoftware,KiCad,Pcbnew,(6.0.9)*%
%TF.CreationDate,2023-04-02T14:22:28+02:00*%
%TF.ProjectId,Vectrex_Lightpen_Buttons_2c,56656374-7265-4785-9f4c-696768747065,rev?*%
%TF.SameCoordinates,Original*%
%TF.FileFunction,Legend,Bot*%
%TF.FilePolarity,Positive*%
%FSLAX46Y46*%
G04 Gerber Fmt 4.6, Leading zero omitted, Abs format (unit mm)*
G04 Created by KiCad (PCBNEW (6.0.9)) date 2023-04-02 14:22:28*
%MOMM*%
%LPD*%
G01*
G04 APERTURE LIST*
%ADD10C,0.300000*%
%ADD11C,0.120000*%
%ADD12C,0.100000*%
%ADD13C,2.000000*%
%ADD14R,1.800000X1.800000*%
%ADD15C,1.800000*%
%ADD16C,3.250000*%
%ADD17R,1.520000X1.520000*%
%ADD18C,1.520000*%
G04 APERTURE END LIST*
D10*
X121869028Y-97396409D02*
X121369028Y-98996409D01*
X120869028Y-97396409D01*
X119797600Y-98920219D02*
X119940457Y-98996409D01*
X120226171Y-98996409D01*
X120369028Y-98920219D01*
X120440457Y-98767838D01*
X120440457Y-98158314D01*
X120369028Y-98005933D01*
X120226171Y-97929742D01*
X119940457Y-97929742D01*
X119797600Y-98005933D01*
X119726171Y-98158314D01*
X119726171Y-98310695D01*
X120440457Y-98463076D01*
X118440457Y-98920219D02*
X118583314Y-98996409D01*
X118869028Y-98996409D01*
X119011885Y-98920219D01*
X119083314Y-98844028D01*
X119154742Y-98691647D01*
X119154742Y-98234504D01*
X119083314Y-98082123D01*
X119011885Y-98005933D01*
X118869028Y-97929742D01*
X118583314Y-97929742D01*
X118440457Y-98005933D01*
X118011885Y-97929742D02*
X117440457Y-97929742D01*
X117797600Y-97396409D02*
X117797600Y-98767838D01*
X117726171Y-98920219D01*
X117583314Y-98996409D01*
X117440457Y-98996409D01*
X116940457Y-98996409D02*
X116940457Y-97929742D01*
X116940457Y-98234504D02*
X116869028Y-98082123D01*
X116797600Y-98005933D01*
X116654742Y-97929742D01*
X116511885Y-97929742D01*
X115440457Y-98920219D02*
X115583314Y-98996409D01*
X115869028Y-98996409D01*
X116011885Y-98920219D01*
X116083314Y-98767838D01*
X116083314Y-98158314D01*
X116011885Y-98005933D01*
X115869028Y-97929742D01*
X115583314Y-97929742D01*
X115440457Y-98005933D01*
X115369028Y-98158314D01*
X115369028Y-98310695D01*
X116083314Y-98463076D01*
X114869028Y-98996409D02*
X114083314Y-97929742D01*
X114869028Y-97929742D02*
X114083314Y-98996409D01*
X111654742Y-98996409D02*
X112369028Y-98996409D01*
X112369028Y-97396409D01*
X111154742Y-98996409D02*
X111154742Y-97929742D01*
X111154742Y-97396409D02*
X111226171Y-97472600D01*
X111154742Y-97548790D01*
X111083314Y-97472600D01*
X111154742Y-97396409D01*
X111154742Y-97548790D01*
X109797600Y-97929742D02*
X109797600Y-99224980D01*
X109869028Y-99377361D01*
X109940457Y-99453552D01*
X110083314Y-99529742D01*
X110297600Y-99529742D01*
X110440457Y-99453552D01*
X109797600Y-98920219D02*
X109940457Y-98996409D01*
X110226171Y-98996409D01*
X110369028Y-98920219D01*
X110440457Y-98844028D01*
X110511885Y-98691647D01*
X110511885Y-98234504D01*
X110440457Y-98082123D01*
X110369028Y-98005933D01*
X110226171Y-97929742D01*
X109940457Y-97929742D01*
X109797600Y-98005933D01*
X109083314Y-98996409D02*
X109083314Y-97396409D01*
X108440457Y-98996409D02*
X108440457Y-98158314D01*
X108511885Y-98005933D01*
X108654742Y-97929742D01*
X108869028Y-97929742D01*
X109011885Y-98005933D01*
X109083314Y-98082123D01*
X107940457Y-97929742D02*
X107369028Y-97929742D01*
X107726171Y-97396409D02*
X107726171Y-98767838D01*
X107654742Y-98920219D01*
X107511885Y-98996409D01*
X107369028Y-98996409D01*
X106869028Y-97929742D02*
X106869028Y-99529742D01*
X106869028Y-98005933D02*
X106726171Y-97929742D01*
X106440457Y-97929742D01*
X106297600Y-98005933D01*
X106226171Y-98082123D01*
X106154742Y-98234504D01*
X106154742Y-98691647D01*
X106226171Y-98844028D01*
X106297600Y-98920219D01*
X106440457Y-98996409D01*
X106726171Y-98996409D01*
X106869028Y-98920219D01*
X104940457Y-98920219D02*
X105083314Y-98996409D01*
X105369028Y-98996409D01*
X105511885Y-98920219D01*
X105583314Y-98767838D01*
X105583314Y-98158314D01*
X105511885Y-98005933D01*
X105369028Y-97929742D01*
X105083314Y-97929742D01*
X104940457Y-98005933D01*
X104869028Y-98158314D01*
X104869028Y-98310695D01*
X105583314Y-98463076D01*
X104226171Y-97929742D02*
X104226171Y-98996409D01*
X104226171Y-98082123D02*
X104154742Y-98005933D01*
X104011885Y-97929742D01*
X103797600Y-97929742D01*
X103654742Y-98005933D01*
X103583314Y-98158314D01*
X103583314Y-98996409D01*
X101226171Y-98158314D02*
X101011885Y-98234504D01*
X100940457Y-98310695D01*
X100869028Y-98463076D01*
X100869028Y-98691647D01*
X100940457Y-98844028D01*
X101011885Y-98920219D01*
X101154742Y-98996409D01*
X101726171Y-98996409D01*
X101726171Y-97396409D01*
X101226171Y-97396409D01*
X101083314Y-97472600D01*
X101011885Y-97548790D01*
X100940457Y-97701171D01*
X100940457Y-97853552D01*
X101011885Y-98005933D01*
X101083314Y-98082123D01*
X101226171Y-98158314D01*
X101726171Y-98158314D01*
X99583314Y-97929742D02*
X99583314Y-98996409D01*
X100226171Y-97929742D02*
X100226171Y-98767838D01*
X100154742Y-98920219D01*
X100011885Y-98996409D01*
X99797600Y-98996409D01*
X99654742Y-98920219D01*
X99583314Y-98844028D01*
X99083314Y-97929742D02*
X98511885Y-97929742D01*
X98869028Y-97396409D02*
X98869028Y-98767838D01*
X98797600Y-98920219D01*
X98654742Y-98996409D01*
X98511885Y-98996409D01*
X98226171Y-97929742D02*
X97654742Y-97929742D01*
X98011885Y-97396409D02*
X98011885Y-98767838D01*
X97940457Y-98920219D01*
X97797600Y-98996409D01*
X97654742Y-98996409D01*
X96940457Y-98996409D02*
X97083314Y-98920219D01*
X97154742Y-98844028D01*
X97226171Y-98691647D01*
X97226171Y-98234504D01*
X97154742Y-98082123D01*
X97083314Y-98005933D01*
X96940457Y-97929742D01*
X96726171Y-97929742D01*
X96583314Y-98005933D01*
X96511885Y-98082123D01*
X96440457Y-98234504D01*
X96440457Y-98691647D01*
X96511885Y-98844028D01*
X96583314Y-98920219D01*
X96726171Y-98996409D01*
X96940457Y-98996409D01*
X95797600Y-97929742D02*
X95797600Y-98996409D01*
X95797600Y-98082123D02*
X95726171Y-98005933D01*
X95583314Y-97929742D01*
X95369028Y-97929742D01*
X95226171Y-98005933D01*
X95154742Y-98158314D01*
X95154742Y-98996409D01*
X94511885Y-98920219D02*
X94369028Y-98996409D01*
X94083314Y-98996409D01*
X93940457Y-98920219D01*
X93869028Y-98767838D01*
X93869028Y-98691647D01*
X93940457Y-98539266D01*
X94083314Y-98463076D01*
X94297600Y-98463076D01*
X94440457Y-98386885D01*
X94511885Y-98234504D01*
X94511885Y-98158314D01*
X94440457Y-98005933D01*
X94297600Y-97929742D01*
X94083314Y-97929742D01*
X93940457Y-98005933D01*
D11*
%TO.C,J1*%
X152972500Y-104885300D02*
X146192500Y-104885300D01*
X152972500Y-104885300D02*
X152972500Y-91685300D01*
D12*
X152962500Y-104885300D02*
X152972500Y-104885300D01*
D11*
X134972500Y-104885300D02*
X143992500Y-104885300D01*
X143992500Y-91685300D02*
X134972500Y-91685300D01*
D12*
X143922500Y-91685300D02*
X143992500Y-91685300D01*
D11*
X152972500Y-91685300D02*
X146192500Y-91685300D01*
D12*
X152852500Y-104885300D02*
X152972500Y-104885300D01*
D11*
X134972500Y-91685300D02*
X134972500Y-104885300D01*
X136972500Y-91215300D02*
X135442500Y-91215300D01*
%TO.C,G\u002A\u002A\u002A*%
G36*
X130822594Y-100122130D02*
G01*
X130822594Y-98526511D01*
X130640674Y-98537203D01*
X130458753Y-98547896D01*
X129887355Y-100122130D01*
X129231665Y-100122130D01*
X129301780Y-99936406D01*
X129303725Y-99931261D01*
X129340331Y-99835510D01*
X129396913Y-99688687D01*
X129468164Y-99504514D01*
X129548775Y-99296712D01*
X129633440Y-99079001D01*
X129894984Y-98407321D01*
X129799932Y-98367355D01*
X129748864Y-98339366D01*
X129635271Y-98243486D01*
X129522557Y-98112842D01*
X129427789Y-97968590D01*
X129368029Y-97831887D01*
X129338840Y-97691537D01*
X129323547Y-97486050D01*
X129933139Y-97486050D01*
X129954158Y-97674047D01*
X130028927Y-97842687D01*
X130161681Y-97978028D01*
X130183698Y-97993194D01*
X130265194Y-98030178D01*
X130378098Y-98052644D01*
X130541974Y-98065068D01*
X130822594Y-98077811D01*
X130822594Y-96902910D01*
X130565566Y-96902910D01*
X130545120Y-96903041D01*
X130318191Y-96927468D01*
X130146009Y-96995695D01*
X130026094Y-97110009D01*
X129955965Y-97272699D01*
X129933139Y-97486050D01*
X129323547Y-97486050D01*
X129322118Y-97466850D01*
X129332301Y-97236128D01*
X129369333Y-97033701D01*
X129445426Y-96862693D01*
X129571939Y-96692563D01*
X129727944Y-96550931D01*
X129894389Y-96458661D01*
X129920669Y-96449713D01*
X130008724Y-96427958D01*
X130124138Y-96411199D01*
X130277758Y-96398444D01*
X130480429Y-96388700D01*
X130742998Y-96380974D01*
X131423987Y-96364765D01*
X131423987Y-100122130D01*
X130822594Y-100122130D01*
G37*
G36*
X128876912Y-96938286D02*
G01*
X128289422Y-96938286D01*
X128220858Y-96938369D01*
X128013831Y-96940228D01*
X127867803Y-96944979D01*
X127775147Y-96953215D01*
X127728236Y-96965527D01*
X127719446Y-96982506D01*
X127722222Y-96988883D01*
X127749729Y-97048504D01*
X127803156Y-97162712D01*
X127879168Y-97324423D01*
X127974426Y-97526555D01*
X128085594Y-97762023D01*
X128209335Y-98023745D01*
X128342311Y-98304637D01*
X128947664Y-99582547D01*
X128947664Y-100122130D01*
X127001981Y-100122130D01*
X127001981Y-99557710D01*
X127631884Y-99548067D01*
X128261786Y-99538425D01*
X127633934Y-98211824D01*
X127006081Y-96885222D01*
X127004031Y-96628746D01*
X127001981Y-96372269D01*
X128876912Y-96372269D01*
X128876912Y-96938286D01*
G37*
G36*
X124313402Y-103270598D02*
G01*
X124313402Y-101747820D01*
X125463123Y-101747820D01*
X125561205Y-101845908D01*
X125659286Y-101943996D01*
X129204937Y-101950862D01*
X129507766Y-101951342D01*
X129992748Y-101951656D01*
X130455553Y-101951402D01*
X130891323Y-101950609D01*
X131295201Y-101949309D01*
X131662329Y-101947531D01*
X131987850Y-101945305D01*
X132266907Y-101942661D01*
X132494642Y-101939629D01*
X132666197Y-101936239D01*
X132776716Y-101932521D01*
X132821341Y-101928506D01*
X132886341Y-101889094D01*
X132962845Y-101820642D01*
X132974172Y-101806930D01*
X132984485Y-101789312D01*
X132993530Y-101763960D01*
X133001391Y-101726673D01*
X133008150Y-101673250D01*
X133013890Y-101599489D01*
X133018696Y-101501189D01*
X133022649Y-101374149D01*
X133025833Y-101214168D01*
X133028332Y-101017045D01*
X133030227Y-100778577D01*
X133031603Y-100494565D01*
X133032542Y-100160807D01*
X133033128Y-99773102D01*
X133033444Y-99327248D01*
X133033573Y-98819044D01*
X133033597Y-98244290D01*
X133033597Y-94746579D01*
X132837421Y-94550403D01*
X125659300Y-94550403D01*
X125561211Y-94648491D01*
X125463123Y-94746579D01*
X125463123Y-101747820D01*
X124313402Y-101747820D01*
X124313402Y-93259178D01*
X134324822Y-93259178D01*
X134324822Y-103270598D01*
X124313402Y-103270598D01*
G37*
%TD*%
%LPC*%
D13*
%TO.C,SW4*%
X132484000Y-96035300D03*
X125984000Y-96035300D03*
X125984000Y-100535300D03*
X132484000Y-100535300D03*
%TD*%
%TO.C,SW2*%
X112333333Y-96035300D03*
X105833333Y-96035300D03*
X112333333Y-100535300D03*
X105833333Y-100535300D03*
%TD*%
%TO.C,SW3*%
X115908666Y-96035300D03*
X122408666Y-96035300D03*
X115908666Y-100535300D03*
X122408666Y-100535300D03*
%TD*%
D14*
%TO.C,Q1*%
X91900000Y-97010300D03*
D15*
X91900000Y-99550300D03*
%TD*%
D13*
%TO.C,SW1*%
X95758000Y-96035300D03*
X102258000Y-96035300D03*
X102258000Y-100535300D03*
X95758000Y-100535300D03*
%TD*%
D16*
%TO.C,J1*%
X145092500Y-93205300D03*
X145092500Y-103365300D03*
D17*
X136202500Y-95115300D03*
D18*
X138742500Y-96385300D03*
X136202500Y-97655300D03*
X138742500Y-98925300D03*
X136202500Y-100195300D03*
X138742500Y-101465300D03*
%TD*%
M02*
