%TF.GenerationSoftware,KiCad,Pcbnew,(6.0.9)*%
%TF.CreationDate,2023-08-06T12:59:46+02:00*%
%TF.ProjectId,Vectrex_Lightpen_2,56656374-7265-4785-9f4c-696768747065,rev?*%
%TF.SameCoordinates,Original*%
%TF.FileFunction,Soldermask,Top*%
%TF.FilePolarity,Negative*%
%FSLAX46Y46*%
G04 Gerber Fmt 4.6, Leading zero omitted, Abs format (unit mm)*
G04 Created by KiCad (PCBNEW (6.0.9)) date 2023-08-06 12:59:46*
%MOMM*%
%LPD*%
G01*
G04 APERTURE LIST*
G04 Aperture macros list*
%AMRoundRect*
0 Rectangle with rounded corners*
0 $1 Rounding radius*
0 $2 $3 $4 $5 $6 $7 $8 $9 X,Y pos of 4 corners*
0 Add a 4 corners polygon primitive as box body*
4,1,4,$2,$3,$4,$5,$6,$7,$8,$9,$2,$3,0*
0 Add four circle primitives for the rounded corners*
1,1,$1+$1,$2,$3*
1,1,$1+$1,$4,$5*
1,1,$1+$1,$6,$7*
1,1,$1+$1,$8,$9*
0 Add four rect primitives between the rounded corners*
20,1,$1+$1,$2,$3,$4,$5,0*
20,1,$1+$1,$4,$5,$6,$7,0*
20,1,$1+$1,$6,$7,$8,$9,0*
20,1,$1+$1,$8,$9,$2,$3,0*%
G04 Aperture macros list end*
%ADD10R,1.900000X1.900000*%
%ADD11C,1.900000*%
%ADD12C,3.000000*%
%ADD13C,1.600000*%
%ADD14R,1.600000X1.600000*%
%ADD15O,1.600000X1.600000*%
%ADD16C,4.700000*%
%ADD17RoundRect,0.250000X-0.350000X-0.650000X0.350000X-0.650000X0.350000X0.650000X-0.350000X0.650000X0*%
%ADD18O,1.200000X1.800000*%
%ADD19RoundRect,0.250000X0.550000X0.550000X-0.550000X0.550000X-0.550000X-0.550000X0.550000X-0.550000X0*%
%ADD20R,1.050000X1.500000*%
%ADD21O,1.050000X1.500000*%
%ADD22C,3.400000*%
%ADD23C,1.400000*%
%ADD24O,1.400000X1.400000*%
G04 APERTURE END LIST*
D10*
%TO.C,J1*%
X147574000Y-76352400D03*
D11*
X147574000Y-79122400D03*
X147574000Y-81892400D03*
X147574000Y-84662400D03*
X147574000Y-87432400D03*
X144734000Y-77737400D03*
X144734000Y-80507400D03*
X144734000Y-83277400D03*
X144734000Y-86047400D03*
%TD*%
D12*
%TO.C,REF3*%
X155930400Y-64750000D03*
%TD*%
D13*
%TO.C,J3*%
X155635400Y-70280000D03*
X153095400Y-70280000D03*
X150555400Y-70280000D03*
X148015400Y-70280000D03*
X156905400Y-72820000D03*
X154420400Y-72820000D03*
X151825400Y-72820000D03*
X149285400Y-72820000D03*
D14*
X146745400Y-72820000D03*
%TD*%
%TO.C,U1*%
X157950000Y-91250000D03*
D15*
X157950000Y-88710000D03*
X157950000Y-86170000D03*
X157950000Y-83630000D03*
X157950000Y-81090000D03*
X157950000Y-78550000D03*
X157950000Y-76010000D03*
X150330000Y-76010000D03*
X150330000Y-78550000D03*
X150330000Y-81090000D03*
X150330000Y-83630000D03*
X150330000Y-86170000D03*
X150330000Y-88710000D03*
X150330000Y-91250000D03*
%TD*%
D16*
%TO.C,REF5*%
X139505000Y-65500000D03*
%TD*%
D17*
%TO.C,J4*%
X138050000Y-91600000D03*
D18*
X140050000Y-91600000D03*
X142050000Y-91600000D03*
X144050000Y-91600000D03*
X146050000Y-91600000D03*
X148050000Y-91600000D03*
%TD*%
D12*
%TO.C,REF6*%
X131526800Y-64750000D03*
%TD*%
D13*
%TO.C,C1*%
X138900000Y-98900000D03*
D14*
X136900000Y-98900000D03*
%TD*%
D16*
%TO.C,REF\u002A\u002A*%
X148005000Y-65500000D03*
%TD*%
D19*
%TO.C,J2*%
X142549500Y-72650000D03*
D13*
X139554500Y-72650000D03*
X136550500Y-72650000D03*
%TD*%
D12*
%TO.C,REF1*%
X131526800Y-99010800D03*
%TD*%
D20*
%TO.C,Q1*%
X148230000Y-99110000D03*
D21*
X149500000Y-99110000D03*
X150770000Y-99110000D03*
%TD*%
D13*
%TO.C,C2*%
X153000000Y-94400000D03*
X155500000Y-94400000D03*
%TD*%
D22*
%TO.C,REF7*%
X143763900Y-98250000D03*
%TD*%
D12*
%TO.C,REF2*%
X155930400Y-99010800D03*
%TD*%
D23*
%TO.C,R1*%
X153000000Y-85500000D03*
D24*
X153000000Y-90580000D03*
%TD*%
%TO.C,R3*%
X154300000Y-82540000D03*
D23*
X154300000Y-77460000D03*
%TD*%
D24*
%TO.C,R2*%
X155500000Y-90580000D03*
D23*
X155500000Y-85500000D03*
%TD*%
M02*
