%TF.GenerationSoftware,KiCad,Pcbnew,(6.0.9)*%
%TF.CreationDate,2023-08-06T12:59:50+02:00*%
%TF.ProjectId,Vectrex_Lightpen_2,56656374-7265-4785-9f4c-696768747065,rev?*%
%TF.SameCoordinates,Original*%
%TF.FileFunction,Plated,1,2,PTH,Drill*%
%TF.FilePolarity,Positive*%
%FSLAX46Y46*%
G04 Gerber Fmt 4.6, Leading zero omitted, Abs format (unit mm)*
G04 Created by KiCad (PCBNEW (6.0.9)) date 2023-08-06 12:59:50*
%MOMM*%
%LPD*%
G01*
G04 APERTURE LIST*
%TA.AperFunction,ViaDrill*%
%ADD10C,0.400000*%
%TD*%
%TA.AperFunction,ComponentDrill*%
%ADD11C,0.700000*%
%TD*%
%TA.AperFunction,ComponentDrill*%
%ADD12C,0.750000*%
%TD*%
%TA.AperFunction,ComponentDrill*%
%ADD13C,0.800000*%
%TD*%
%TA.AperFunction,ComponentDrill*%
%ADD14C,1.100000*%
%TD*%
G04 APERTURE END LIST*
D10*
X153850000Y-79700000D03*
D11*
%TO.C,J2*%
X136550500Y-72650000D03*
X139554500Y-72650000D03*
X142549500Y-72650000D03*
%TO.C,J3*%
X146745400Y-72820000D03*
X148015400Y-70280000D03*
X149285400Y-72820000D03*
X150555400Y-70280000D03*
X151825400Y-72820000D03*
%TO.C,R1*%
X153000000Y-85500000D03*
X153000000Y-90580000D03*
%TO.C,J3*%
X153095400Y-70280000D03*
%TO.C,R3*%
X154300000Y-77460000D03*
X154300000Y-82540000D03*
%TO.C,J3*%
X154420400Y-72820000D03*
%TO.C,R2*%
X155500000Y-85500000D03*
X155500000Y-90580000D03*
%TO.C,J3*%
X155635400Y-70280000D03*
X156905400Y-72820000D03*
D12*
%TO.C,Q1*%
X148230000Y-99110000D03*
X149500000Y-99110000D03*
X150770000Y-99110000D03*
D13*
%TO.C,C1*%
X136900000Y-98900000D03*
%TO.C,J4*%
X138050000Y-91600000D03*
%TO.C,C1*%
X138900000Y-98900000D03*
%TO.C,J4*%
X140050000Y-91600000D03*
X142050000Y-91600000D03*
X144050000Y-91600000D03*
X146050000Y-91600000D03*
X148050000Y-91600000D03*
%TO.C,U1*%
X150330000Y-76010000D03*
X150330000Y-78550000D03*
X150330000Y-81090000D03*
X150330000Y-83630000D03*
X150330000Y-86170000D03*
X150330000Y-88710000D03*
X150330000Y-91250000D03*
%TO.C,C2*%
X153000000Y-94400000D03*
X155500000Y-94400000D03*
%TO.C,U1*%
X157950000Y-76010000D03*
X157950000Y-78550000D03*
X157950000Y-81090000D03*
X157950000Y-83630000D03*
X157950000Y-86170000D03*
X157950000Y-88710000D03*
X157950000Y-91250000D03*
D14*
%TO.C,J1*%
X144734000Y-77737400D03*
X144734000Y-80507400D03*
X144734000Y-83277400D03*
X144734000Y-86047400D03*
X147574000Y-76352400D03*
X147574000Y-79122400D03*
X147574000Y-81892400D03*
X147574000Y-84662400D03*
X147574000Y-87432400D03*
M02*
