%TF.GenerationSoftware,KiCad,Pcbnew,(6.0.9)*%
%TF.CreationDate,2023-08-06T12:59:46+02:00*%
%TF.ProjectId,Vectrex_Lightpen_2,56656374-7265-4785-9f4c-696768747065,rev?*%
%TF.SameCoordinates,Original*%
%TF.FileFunction,Legend,Top*%
%TF.FilePolarity,Positive*%
%FSLAX46Y46*%
G04 Gerber Fmt 4.6, Leading zero omitted, Abs format (unit mm)*
G04 Created by KiCad (PCBNEW (6.0.9)) date 2023-08-06 12:59:46*
%MOMM*%
%LPD*%
G01*
G04 APERTURE LIST*
G04 Aperture macros list*
%AMRoundRect*
0 Rectangle with rounded corners*
0 $1 Rounding radius*
0 $2 $3 $4 $5 $6 $7 $8 $9 X,Y pos of 4 corners*
0 Add a 4 corners polygon primitive as box body*
4,1,4,$2,$3,$4,$5,$6,$7,$8,$9,$2,$3,0*
0 Add four circle primitives for the rounded corners*
1,1,$1+$1,$2,$3*
1,1,$1+$1,$4,$5*
1,1,$1+$1,$6,$7*
1,1,$1+$1,$8,$9*
0 Add four rect primitives between the rounded corners*
20,1,$1+$1,$2,$3,$4,$5,0*
20,1,$1+$1,$4,$5,$6,$7,0*
20,1,$1+$1,$6,$7,$8,$9,0*
20,1,$1+$1,$8,$9,$2,$3,0*%
G04 Aperture macros list end*
%ADD10C,0.150000*%
%ADD11C,0.100000*%
%ADD12C,0.120000*%
%ADD13R,1.900000X1.900000*%
%ADD14C,1.900000*%
%ADD15C,3.000000*%
%ADD16C,1.600000*%
%ADD17R,1.600000X1.600000*%
%ADD18O,1.600000X1.600000*%
%ADD19C,4.700000*%
%ADD20RoundRect,0.250000X-0.350000X-0.650000X0.350000X-0.650000X0.350000X0.650000X-0.350000X0.650000X0*%
%ADD21O,1.200000X1.800000*%
%ADD22RoundRect,0.250000X0.550000X0.550000X-0.550000X0.550000X-0.550000X-0.550000X0.550000X-0.550000X0*%
%ADD23R,1.050000X1.500000*%
%ADD24O,1.050000X1.500000*%
%ADD25C,3.400000*%
%ADD26C,1.400000*%
%ADD27O,1.400000X1.400000*%
G04 APERTURE END LIST*
D10*
X146800000Y-69166666D02*
X146800000Y-68833333D01*
X147033333Y-69533333D02*
X146800000Y-69166666D01*
X146566666Y-69533333D01*
X141850000Y-92883333D02*
X141883333Y-92850000D01*
X141950000Y-92816666D01*
X142116666Y-92816666D01*
X142183333Y-92850000D01*
X142216666Y-92883333D01*
X142250000Y-92950000D01*
X142250000Y-93016666D01*
X142216666Y-93116666D01*
X141816666Y-93516666D01*
X142250000Y-93516666D01*
X157133333Y-71683333D02*
X156666666Y-70983333D01*
X156666666Y-71683333D02*
X157133333Y-70983333D01*
X146550000Y-70983333D02*
X146950000Y-70983333D01*
X146750000Y-70983333D02*
X146750000Y-71683333D01*
X146816666Y-71583333D01*
X146883333Y-71516666D01*
X146950000Y-71483333D01*
X147616666Y-92800000D02*
X147550000Y-92766666D01*
X147450000Y-92766666D01*
X147350000Y-92800000D01*
X147283333Y-92866666D01*
X147250000Y-92933333D01*
X147216666Y-93066666D01*
X147216666Y-93166666D01*
X147250000Y-93300000D01*
X147283333Y-93366666D01*
X147350000Y-93433333D01*
X147450000Y-93466666D01*
X147516666Y-93466666D01*
X147616666Y-93433333D01*
X147650000Y-93400000D01*
X147650000Y-93166666D01*
X147516666Y-93166666D01*
X147950000Y-93466666D02*
X147950000Y-92766666D01*
X148350000Y-93466666D01*
X148350000Y-92766666D01*
X148683333Y-93466666D02*
X148683333Y-92766666D01*
X148850000Y-92766666D01*
X148950000Y-92800000D01*
X149016666Y-92866666D01*
X149050000Y-92933333D01*
X149083333Y-93066666D01*
X149083333Y-93166666D01*
X149050000Y-93300000D01*
X149016666Y-93366666D01*
X148950000Y-93433333D01*
X148850000Y-93466666D01*
X148683333Y-93466666D01*
X149450000Y-71616666D02*
X149416666Y-71650000D01*
X149350000Y-71683333D01*
X149183333Y-71683333D01*
X149116666Y-71650000D01*
X149083333Y-71616666D01*
X149050000Y-71550000D01*
X149050000Y-71483333D01*
X149083333Y-71383333D01*
X149483333Y-70983333D01*
X149050000Y-70983333D01*
X143200000Y-70900000D02*
X142666666Y-70900000D01*
X142933333Y-70633333D02*
X142933333Y-71166666D01*
X142000000Y-71333333D02*
X142333333Y-71333333D01*
X142366666Y-71000000D01*
X142333333Y-71033333D01*
X142266666Y-71066666D01*
X142100000Y-71066666D01*
X142033333Y-71033333D01*
X142000000Y-71000000D01*
X141966666Y-70933333D01*
X141966666Y-70766666D01*
X142000000Y-70700000D01*
X142033333Y-70666666D01*
X142100000Y-70633333D01*
X142266666Y-70633333D01*
X142333333Y-70666666D01*
X142366666Y-70700000D01*
X157700000Y-69100000D02*
X157166666Y-69100000D01*
X156500000Y-69533333D02*
X156833333Y-69533333D01*
X156866666Y-69200000D01*
X156833333Y-69233333D01*
X156766666Y-69266666D01*
X156600000Y-69266666D01*
X156533333Y-69233333D01*
X156500000Y-69200000D01*
X156466666Y-69133333D01*
X156466666Y-68966666D01*
X156500000Y-68900000D01*
X156533333Y-68866666D01*
X156600000Y-68833333D01*
X156766666Y-68833333D01*
X156833333Y-68866666D01*
X156866666Y-68900000D01*
X144250000Y-93516666D02*
X143850000Y-93516666D01*
X144050000Y-93516666D02*
X144050000Y-92816666D01*
X143983333Y-92916666D01*
X143916666Y-92983333D01*
X143850000Y-93016666D01*
X139866666Y-92816666D02*
X140300000Y-92816666D01*
X140066666Y-93083333D01*
X140166666Y-93083333D01*
X140233333Y-93116666D01*
X140266666Y-93150000D01*
X140300000Y-93216666D01*
X140300000Y-93383333D01*
X140266666Y-93450000D01*
X140233333Y-93483333D01*
X140166666Y-93516666D01*
X139966666Y-93516666D01*
X139900000Y-93483333D01*
X139866666Y-93450000D01*
X150200000Y-69100000D02*
X149666666Y-69100000D01*
X149933333Y-68833333D02*
X149933333Y-69366666D01*
X149000000Y-69533333D02*
X149333333Y-69533333D01*
X149366666Y-69200000D01*
X149333333Y-69233333D01*
X149266666Y-69266666D01*
X149100000Y-69266666D01*
X149033333Y-69233333D01*
X149000000Y-69200000D01*
X148966666Y-69133333D01*
X148966666Y-68966666D01*
X149000000Y-68900000D01*
X149033333Y-68866666D01*
X149100000Y-68833333D01*
X149266666Y-68833333D01*
X149333333Y-68866666D01*
X149366666Y-68900000D01*
X152033333Y-71683333D02*
X151600000Y-71683333D01*
X151833333Y-71416666D01*
X151733333Y-71416666D01*
X151666666Y-71383333D01*
X151633333Y-71350000D01*
X151600000Y-71283333D01*
X151600000Y-71116666D01*
X151633333Y-71050000D01*
X151666666Y-71016666D01*
X151733333Y-70983333D01*
X151933333Y-70983333D01*
X152000000Y-71016666D01*
X152033333Y-71050000D01*
D11*
X134335714Y-93056577D02*
X134335714Y-92675625D01*
X134002380Y-92872053D02*
X134859523Y-92979196D01*
X134954761Y-92943482D01*
X135002380Y-92854196D01*
X135002380Y-92758958D01*
X135002380Y-92282767D02*
X134954761Y-92372053D01*
X134907142Y-92413720D01*
X134811904Y-92449434D01*
X134526190Y-92413720D01*
X134430952Y-92354196D01*
X134383333Y-92300625D01*
X134335714Y-92199434D01*
X134335714Y-92056577D01*
X134383333Y-91967291D01*
X134430952Y-91925625D01*
X134526190Y-91889910D01*
X134811904Y-91925625D01*
X134907142Y-91985148D01*
X134954761Y-92038720D01*
X135002380Y-92139910D01*
X135002380Y-92282767D01*
X134335714Y-91437529D02*
X135335714Y-91562529D01*
X134383333Y-91443482D02*
X134335714Y-91342291D01*
X134335714Y-91151815D01*
X134383333Y-91062529D01*
X134430952Y-91020863D01*
X134526190Y-90985148D01*
X134811904Y-91020863D01*
X134907142Y-91080386D01*
X134954761Y-91133958D01*
X135002380Y-91235148D01*
X135002380Y-91425625D01*
X134954761Y-91514910D01*
D10*
X153916666Y-69500000D02*
X153983333Y-69533333D01*
X154083333Y-69533333D01*
X154183333Y-69500000D01*
X154250000Y-69433333D01*
X154283333Y-69366666D01*
X154316666Y-69233333D01*
X154316666Y-69133333D01*
X154283333Y-69000000D01*
X154250000Y-68933333D01*
X154183333Y-68866666D01*
X154083333Y-68833333D01*
X154016666Y-68833333D01*
X153916666Y-68866666D01*
X153883333Y-68900000D01*
X153883333Y-69133333D01*
X154016666Y-69133333D01*
X138233333Y-93050000D02*
X138233333Y-93516666D01*
X138066666Y-92783333D02*
X137900000Y-93283333D01*
X138333333Y-93283333D01*
X139666666Y-70633333D02*
X140000000Y-70633333D01*
X140000000Y-71333333D01*
X139133333Y-71100000D02*
X139133333Y-70633333D01*
X139300000Y-71366666D02*
X139466666Y-70866666D01*
X139033333Y-70866666D01*
X137183333Y-71350000D02*
X137250000Y-71383333D01*
X137350000Y-71383333D01*
X137450000Y-71350000D01*
X137516666Y-71283333D01*
X137550000Y-71216666D01*
X137583333Y-71083333D01*
X137583333Y-70983333D01*
X137550000Y-70850000D01*
X137516666Y-70783333D01*
X137450000Y-70716666D01*
X137350000Y-70683333D01*
X137283333Y-70683333D01*
X137183333Y-70716666D01*
X137150000Y-70750000D01*
X137150000Y-70983333D01*
X137283333Y-70983333D01*
X136850000Y-70683333D02*
X136850000Y-71383333D01*
X136450000Y-70683333D01*
X136450000Y-71383333D01*
X136116666Y-70683333D02*
X136116666Y-71383333D01*
X135950000Y-71383333D01*
X135850000Y-71350000D01*
X135783333Y-71283333D01*
X135750000Y-71216666D01*
X135716666Y-71083333D01*
X135716666Y-70983333D01*
X135750000Y-70850000D01*
X135783333Y-70783333D01*
X135850000Y-70716666D01*
X135950000Y-70683333D01*
X136116666Y-70683333D01*
X129897380Y-88056266D02*
X130897380Y-87722933D01*
X129897380Y-87389600D01*
X130849761Y-86675314D02*
X130897380Y-86770552D01*
X130897380Y-86961028D01*
X130849761Y-87056266D01*
X130754523Y-87103885D01*
X130373571Y-87103885D01*
X130278333Y-87056266D01*
X130230714Y-86961028D01*
X130230714Y-86770552D01*
X130278333Y-86675314D01*
X130373571Y-86627695D01*
X130468809Y-86627695D01*
X130564047Y-87103885D01*
X130849761Y-85770552D02*
X130897380Y-85865790D01*
X130897380Y-86056266D01*
X130849761Y-86151504D01*
X130802142Y-86199123D01*
X130706904Y-86246742D01*
X130421190Y-86246742D01*
X130325952Y-86199123D01*
X130278333Y-86151504D01*
X130230714Y-86056266D01*
X130230714Y-85865790D01*
X130278333Y-85770552D01*
X130230714Y-85484838D02*
X130230714Y-85103885D01*
X129897380Y-85341980D02*
X130754523Y-85341980D01*
X130849761Y-85294361D01*
X130897380Y-85199123D01*
X130897380Y-85103885D01*
X130897380Y-84770552D02*
X130230714Y-84770552D01*
X130421190Y-84770552D02*
X130325952Y-84722933D01*
X130278333Y-84675314D01*
X130230714Y-84580076D01*
X130230714Y-84484838D01*
X130849761Y-83770552D02*
X130897380Y-83865790D01*
X130897380Y-84056266D01*
X130849761Y-84151504D01*
X130754523Y-84199123D01*
X130373571Y-84199123D01*
X130278333Y-84151504D01*
X130230714Y-84056266D01*
X130230714Y-83865790D01*
X130278333Y-83770552D01*
X130373571Y-83722933D01*
X130468809Y-83722933D01*
X130564047Y-84199123D01*
X130897380Y-83389600D02*
X130230714Y-82865790D01*
X130230714Y-83389600D02*
X130897380Y-82865790D01*
X130897380Y-81246742D02*
X130897380Y-81722933D01*
X129897380Y-81722933D01*
X130897380Y-80913409D02*
X130230714Y-80913409D01*
X129897380Y-80913409D02*
X129945000Y-80961028D01*
X129992619Y-80913409D01*
X129945000Y-80865790D01*
X129897380Y-80913409D01*
X129992619Y-80913409D01*
X130230714Y-80008647D02*
X131040238Y-80008647D01*
X131135476Y-80056266D01*
X131183095Y-80103885D01*
X131230714Y-80199123D01*
X131230714Y-80341980D01*
X131183095Y-80437219D01*
X130849761Y-80008647D02*
X130897380Y-80103885D01*
X130897380Y-80294361D01*
X130849761Y-80389600D01*
X130802142Y-80437219D01*
X130706904Y-80484838D01*
X130421190Y-80484838D01*
X130325952Y-80437219D01*
X130278333Y-80389600D01*
X130230714Y-80294361D01*
X130230714Y-80103885D01*
X130278333Y-80008647D01*
X130897380Y-79532457D02*
X129897380Y-79532457D01*
X130897380Y-79103885D02*
X130373571Y-79103885D01*
X130278333Y-79151504D01*
X130230714Y-79246742D01*
X130230714Y-79389600D01*
X130278333Y-79484838D01*
X130325952Y-79532457D01*
X130230714Y-78770552D02*
X130230714Y-78389600D01*
X129897380Y-78627695D02*
X130754523Y-78627695D01*
X130849761Y-78580076D01*
X130897380Y-78484838D01*
X130897380Y-78389600D01*
X130230714Y-78056266D02*
X131230714Y-78056266D01*
X130278333Y-78056266D02*
X130230714Y-77961028D01*
X130230714Y-77770552D01*
X130278333Y-77675314D01*
X130325952Y-77627695D01*
X130421190Y-77580076D01*
X130706904Y-77580076D01*
X130802142Y-77627695D01*
X130849761Y-77675314D01*
X130897380Y-77770552D01*
X130897380Y-77961028D01*
X130849761Y-78056266D01*
X130849761Y-76770552D02*
X130897380Y-76865790D01*
X130897380Y-77056266D01*
X130849761Y-77151504D01*
X130754523Y-77199123D01*
X130373571Y-77199123D01*
X130278333Y-77151504D01*
X130230714Y-77056266D01*
X130230714Y-76865790D01*
X130278333Y-76770552D01*
X130373571Y-76722933D01*
X130468809Y-76722933D01*
X130564047Y-77199123D01*
X130230714Y-76294361D02*
X130897380Y-76294361D01*
X130325952Y-76294361D02*
X130278333Y-76246742D01*
X130230714Y-76151504D01*
X130230714Y-76008647D01*
X130278333Y-75913409D01*
X130373571Y-75865790D01*
X130897380Y-75865790D01*
X131507380Y-86508647D02*
X132507380Y-86270552D01*
X131793095Y-86080076D01*
X132507380Y-85889600D01*
X131507380Y-85651504D01*
X132507380Y-85270552D02*
X131840714Y-85270552D01*
X131507380Y-85270552D02*
X131555000Y-85318171D01*
X131602619Y-85270552D01*
X131555000Y-85222933D01*
X131507380Y-85270552D01*
X131602619Y-85270552D01*
X131840714Y-84937219D02*
X131840714Y-84556266D01*
X131507380Y-84794361D02*
X132364523Y-84794361D01*
X132459761Y-84746742D01*
X132507380Y-84651504D01*
X132507380Y-84556266D01*
X132507380Y-84222933D02*
X131507380Y-84222933D01*
X132507380Y-83794361D02*
X131983571Y-83794361D01*
X131888333Y-83841980D01*
X131840714Y-83937219D01*
X131840714Y-84080076D01*
X131888333Y-84175314D01*
X131935952Y-84222933D01*
X131983571Y-82222933D02*
X132031190Y-82080076D01*
X132078809Y-82032457D01*
X132174047Y-81984838D01*
X132316904Y-81984838D01*
X132412142Y-82032457D01*
X132459761Y-82080076D01*
X132507380Y-82175314D01*
X132507380Y-82556266D01*
X131507380Y-82556266D01*
X131507380Y-82222933D01*
X131555000Y-82127695D01*
X131602619Y-82080076D01*
X131697857Y-82032457D01*
X131793095Y-82032457D01*
X131888333Y-82080076D01*
X131935952Y-82127695D01*
X131983571Y-82222933D01*
X131983571Y-82556266D01*
X131840714Y-81127695D02*
X132507380Y-81127695D01*
X131840714Y-81556266D02*
X132364523Y-81556266D01*
X132459761Y-81508647D01*
X132507380Y-81413409D01*
X132507380Y-81270552D01*
X132459761Y-81175314D01*
X132412142Y-81127695D01*
X131840714Y-80794361D02*
X131840714Y-80413409D01*
X131507380Y-80651504D02*
X132364523Y-80651504D01*
X132459761Y-80603885D01*
X132507380Y-80508647D01*
X132507380Y-80413409D01*
X131840714Y-80222933D02*
X131840714Y-79841980D01*
X131507380Y-80080076D02*
X132364523Y-80080076D01*
X132459761Y-80032457D01*
X132507380Y-79937219D01*
X132507380Y-79841980D01*
X132507380Y-79365790D02*
X132459761Y-79461028D01*
X132412142Y-79508647D01*
X132316904Y-79556266D01*
X132031190Y-79556266D01*
X131935952Y-79508647D01*
X131888333Y-79461028D01*
X131840714Y-79365790D01*
X131840714Y-79222933D01*
X131888333Y-79127695D01*
X131935952Y-79080076D01*
X132031190Y-79032457D01*
X132316904Y-79032457D01*
X132412142Y-79080076D01*
X132459761Y-79127695D01*
X132507380Y-79222933D01*
X132507380Y-79365790D01*
X131840714Y-78603885D02*
X132507380Y-78603885D01*
X131935952Y-78603885D02*
X131888333Y-78556266D01*
X131840714Y-78461028D01*
X131840714Y-78318171D01*
X131888333Y-78222933D01*
X131983571Y-78175314D01*
X132507380Y-78175314D01*
X132459761Y-77746742D02*
X132507380Y-77651504D01*
X132507380Y-77461028D01*
X132459761Y-77365790D01*
X132364523Y-77318171D01*
X132316904Y-77318171D01*
X132221666Y-77365790D01*
X132174047Y-77461028D01*
X132174047Y-77603885D01*
X132126428Y-77699123D01*
X132031190Y-77746742D01*
X131983571Y-77746742D01*
X131888333Y-77699123D01*
X131840714Y-77603885D01*
X131840714Y-77461028D01*
X131888333Y-77365790D01*
X154316666Y-71400000D02*
X154316666Y-70933333D01*
X154483333Y-71666666D02*
X154650000Y-71166666D01*
X154216666Y-71166666D01*
X145650000Y-93516666D02*
X145316666Y-93516666D01*
X145316666Y-92816666D01*
X146250000Y-92850000D02*
X146183333Y-92816666D01*
X146083333Y-92816666D01*
X145983333Y-92850000D01*
X145916666Y-92916666D01*
X145883333Y-92983333D01*
X145850000Y-93116666D01*
X145850000Y-93216666D01*
X145883333Y-93350000D01*
X145916666Y-93416666D01*
X145983333Y-93483333D01*
X146083333Y-93516666D01*
X146150000Y-93516666D01*
X146250000Y-93483333D01*
X146283333Y-93450000D01*
X146283333Y-93216666D01*
X146150000Y-93216666D01*
X146483333Y-92816666D02*
X146883333Y-92816666D01*
X146683333Y-93516666D02*
X146683333Y-92816666D01*
X146453200Y-76618266D02*
X146053200Y-76618266D01*
X146253200Y-76618266D02*
X146253200Y-75918266D01*
X146186533Y-76018266D01*
X146119866Y-76084933D01*
X146053200Y-76118266D01*
%TO.C,U1*%
X151902380Y-83369047D02*
X151902380Y-82702380D01*
X152902380Y-83130952D01*
X152235714Y-81892857D02*
X152902380Y-81892857D01*
X151854761Y-82130952D02*
X152569047Y-82369047D01*
X152569047Y-81750000D01*
X152902380Y-80892857D02*
X152902380Y-81369047D01*
X151902380Y-81369047D01*
X152854761Y-80607142D02*
X152902380Y-80464285D01*
X152902380Y-80226190D01*
X152854761Y-80130952D01*
X152807142Y-80083333D01*
X152711904Y-80035714D01*
X152616666Y-80035714D01*
X152521428Y-80083333D01*
X152473809Y-80130952D01*
X152426190Y-80226190D01*
X152378571Y-80416666D01*
X152330952Y-80511904D01*
X152283333Y-80559523D01*
X152188095Y-80607142D01*
X152092857Y-80607142D01*
X151997619Y-80559523D01*
X151950000Y-80511904D01*
X151902380Y-80416666D01*
X151902380Y-80178571D01*
X151950000Y-80035714D01*
X152902380Y-79083333D02*
X152902380Y-79654761D01*
X152902380Y-79369047D02*
X151902380Y-79369047D01*
X152045238Y-79464285D01*
X152140476Y-79559523D01*
X152188095Y-79654761D01*
X151902380Y-78750000D02*
X151902380Y-78130952D01*
X152283333Y-78464285D01*
X152283333Y-78321428D01*
X152330952Y-78226190D01*
X152378571Y-78178571D01*
X152473809Y-78130952D01*
X152711904Y-78130952D01*
X152807142Y-78178571D01*
X152854761Y-78226190D01*
X152902380Y-78321428D01*
X152902380Y-78607142D01*
X152854761Y-78702380D01*
X152807142Y-78750000D01*
X151997619Y-77750000D02*
X151950000Y-77702380D01*
X151902380Y-77607142D01*
X151902380Y-77369047D01*
X151950000Y-77273809D01*
X151997619Y-77226190D01*
X152092857Y-77178571D01*
X152188095Y-77178571D01*
X152330952Y-77226190D01*
X152902380Y-77797619D01*
X152902380Y-77178571D01*
%TO.C,C1*%
X133666666Y-95935714D02*
X133628571Y-95973809D01*
X133514285Y-96011904D01*
X133438095Y-96011904D01*
X133323809Y-95973809D01*
X133247619Y-95897619D01*
X133209523Y-95821428D01*
X133171428Y-95669047D01*
X133171428Y-95554761D01*
X133209523Y-95402380D01*
X133247619Y-95326190D01*
X133323809Y-95250000D01*
X133438095Y-95211904D01*
X133514285Y-95211904D01*
X133628571Y-95250000D01*
X133666666Y-95288095D01*
X134428571Y-96011904D02*
X133971428Y-96011904D01*
X134200000Y-96011904D02*
X134200000Y-95211904D01*
X134123809Y-95326190D01*
X134047619Y-95402380D01*
X133971428Y-95440476D01*
X135316666Y-95478571D02*
X135316666Y-96011904D01*
X135126190Y-95173809D02*
X134935714Y-95745238D01*
X135430952Y-95745238D01*
X135659523Y-95211904D02*
X136192857Y-95211904D01*
X135850000Y-96011904D01*
X136840476Y-95478571D02*
X136840476Y-96011904D01*
X136497619Y-95478571D02*
X136497619Y-95897619D01*
X136535714Y-95973809D01*
X136611904Y-96011904D01*
X136726190Y-96011904D01*
X136802380Y-95973809D01*
X136840476Y-95935714D01*
X137488095Y-95592857D02*
X137221428Y-95592857D01*
X137221428Y-96011904D02*
X137221428Y-95211904D01*
X137602380Y-95211904D01*
%TO.C,Q1*%
X147478571Y-101338095D02*
X147516666Y-101300000D01*
X147592857Y-101261904D01*
X147783333Y-101261904D01*
X147859523Y-101300000D01*
X147897619Y-101338095D01*
X147935714Y-101414285D01*
X147935714Y-101490476D01*
X147897619Y-101604761D01*
X147440476Y-102061904D01*
X147935714Y-102061904D01*
X148278571Y-102061904D02*
X148278571Y-101261904D01*
X148735714Y-102061904D01*
X148735714Y-101261904D01*
X149040476Y-101261904D02*
X149535714Y-101261904D01*
X149269047Y-101566666D01*
X149383333Y-101566666D01*
X149459523Y-101604761D01*
X149497619Y-101642857D01*
X149535714Y-101719047D01*
X149535714Y-101909523D01*
X149497619Y-101985714D01*
X149459523Y-102023809D01*
X149383333Y-102061904D01*
X149154761Y-102061904D01*
X149078571Y-102023809D01*
X149040476Y-101985714D01*
X149916666Y-102061904D02*
X150069047Y-102061904D01*
X150145238Y-102023809D01*
X150183333Y-101985714D01*
X150259523Y-101871428D01*
X150297619Y-101719047D01*
X150297619Y-101414285D01*
X150259523Y-101338095D01*
X150221428Y-101300000D01*
X150145238Y-101261904D01*
X149992857Y-101261904D01*
X149916666Y-101300000D01*
X149878571Y-101338095D01*
X149840476Y-101414285D01*
X149840476Y-101604761D01*
X149878571Y-101680952D01*
X149916666Y-101719047D01*
X149992857Y-101757142D01*
X150145238Y-101757142D01*
X150221428Y-101719047D01*
X150259523Y-101680952D01*
X150297619Y-101604761D01*
X150792857Y-101261904D02*
X150869047Y-101261904D01*
X150945238Y-101300000D01*
X150983333Y-101338095D01*
X151021428Y-101414285D01*
X151059523Y-101566666D01*
X151059523Y-101757142D01*
X151021428Y-101909523D01*
X150983333Y-101985714D01*
X150945238Y-102023809D01*
X150869047Y-102061904D01*
X150792857Y-102061904D01*
X150716666Y-102023809D01*
X150678571Y-101985714D01*
X150640476Y-101909523D01*
X150602380Y-101757142D01*
X150602380Y-101566666D01*
X150640476Y-101414285D01*
X150678571Y-101338095D01*
X150716666Y-101300000D01*
X150792857Y-101261904D01*
X151745238Y-101528571D02*
X151745238Y-102061904D01*
X151554761Y-101223809D02*
X151364285Y-101795238D01*
X151859523Y-101795238D01*
%TO.C,C2*%
X152566666Y-96485714D02*
X152528571Y-96523809D01*
X152414285Y-96561904D01*
X152338095Y-96561904D01*
X152223809Y-96523809D01*
X152147619Y-96447619D01*
X152109523Y-96371428D01*
X152071428Y-96219047D01*
X152071428Y-96104761D01*
X152109523Y-95952380D01*
X152147619Y-95876190D01*
X152223809Y-95800000D01*
X152338095Y-95761904D01*
X152414285Y-95761904D01*
X152528571Y-95800000D01*
X152566666Y-95838095D01*
X152871428Y-95838095D02*
X152909523Y-95800000D01*
X152985714Y-95761904D01*
X153176190Y-95761904D01*
X153252380Y-95800000D01*
X153290476Y-95838095D01*
X153328571Y-95914285D01*
X153328571Y-95990476D01*
X153290476Y-96104761D01*
X152833333Y-96561904D01*
X153328571Y-96561904D01*
X154642857Y-96561904D02*
X154185714Y-96561904D01*
X154414285Y-96561904D02*
X154414285Y-95761904D01*
X154338095Y-95876190D01*
X154261904Y-95952380D01*
X154185714Y-95990476D01*
X155138095Y-95761904D02*
X155214285Y-95761904D01*
X155290476Y-95800000D01*
X155328571Y-95838095D01*
X155366666Y-95914285D01*
X155404761Y-96066666D01*
X155404761Y-96257142D01*
X155366666Y-96409523D01*
X155328571Y-96485714D01*
X155290476Y-96523809D01*
X155214285Y-96561904D01*
X155138095Y-96561904D01*
X155061904Y-96523809D01*
X155023809Y-96485714D01*
X154985714Y-96409523D01*
X154947619Y-96257142D01*
X154947619Y-96066666D01*
X154985714Y-95914285D01*
X155023809Y-95838095D01*
X155061904Y-95800000D01*
X155138095Y-95761904D01*
X155747619Y-96028571D02*
X155747619Y-96561904D01*
X155747619Y-96104761D02*
X155785714Y-96066666D01*
X155861904Y-96028571D01*
X155976190Y-96028571D01*
X156052380Y-96066666D01*
X156090476Y-96142857D01*
X156090476Y-96561904D01*
X156738095Y-96142857D02*
X156471428Y-96142857D01*
X156471428Y-96561904D02*
X156471428Y-95761904D01*
X156852380Y-95761904D01*
D12*
%TO.C,J1*%
X148132800Y-77368400D02*
X148132800Y-78232000D01*
X127759600Y-70866000D02*
X129159000Y-70866000D01*
X133059000Y-91440000D02*
X129159000Y-91440000D01*
X149060507Y-76028200D02*
X149060507Y-76528200D01*
X148132800Y-89738200D02*
X148132800Y-88366600D01*
X133059000Y-76276200D02*
X133070600Y-87553800D01*
X129159000Y-70866000D02*
X129159000Y-92964000D01*
X129159000Y-72390000D02*
X133059000Y-72390000D01*
X129184400Y-89738200D02*
X148132800Y-89738200D01*
X148132800Y-80010000D02*
X148132800Y-80975200D01*
X133059000Y-89738200D02*
X133059000Y-91440000D01*
X149060507Y-76528200D02*
X148627494Y-76278200D01*
X148132800Y-82804000D02*
X148132800Y-83769200D01*
X127759600Y-92964000D02*
X129159000Y-92964000D01*
X148132800Y-86512400D02*
X148132800Y-85547200D01*
X133059000Y-74091800D02*
X133059000Y-72390000D01*
X127759600Y-70866000D02*
X127759600Y-92964000D01*
X148131600Y-74091800D02*
X148132800Y-75311000D01*
X148627494Y-76278200D02*
X149060507Y-76028200D01*
X129184400Y-74091800D02*
X148131600Y-74091800D01*
%TO.C,U1*%
X151490000Y-92580000D02*
X153140000Y-92580000D01*
X156790000Y-92580000D02*
X156790000Y-74680000D01*
X155140000Y-92580000D02*
X156790000Y-92580000D01*
X151490000Y-74680000D02*
X151490000Y-92580000D01*
X156790000Y-74680000D02*
X151490000Y-74680000D01*
X155140000Y-92580000D02*
G75*
G03*
X153140000Y-92580000I-1000000J0D01*
G01*
%TO.C,C1*%
X140520000Y-98900000D02*
G75*
G03*
X140520000Y-98900000I-2620000J0D01*
G01*
X139901000Y-99940000D02*
X139901000Y-100553000D01*
X138781000Y-96472000D02*
X138781000Y-97860000D01*
X139781000Y-97115000D02*
X139781000Y-97860000D01*
X138220000Y-99940000D02*
X138220000Y-101461000D01*
X138941000Y-99940000D02*
X138941000Y-101265000D01*
X139781000Y-99940000D02*
X139781000Y-100685000D01*
X140381000Y-98095000D02*
X140381000Y-99705000D01*
X139181000Y-99940000D02*
X139181000Y-101147000D01*
X138901000Y-96518000D02*
X138901000Y-97860000D01*
X139261000Y-99940000D02*
X139261000Y-101100000D01*
X140181000Y-97649000D02*
X140181000Y-100151000D01*
X140261000Y-97802000D02*
X140261000Y-99998000D01*
X137900000Y-99940000D02*
X137900000Y-101480000D01*
X138220000Y-96339000D02*
X138220000Y-97860000D01*
X139021000Y-96571000D02*
X139021000Y-97860000D01*
X139181000Y-96653000D02*
X139181000Y-97860000D01*
X140221000Y-97722000D02*
X140221000Y-100078000D01*
X135345225Y-97175000D02*
X135345225Y-97675000D01*
X138300000Y-96350000D02*
X138300000Y-97860000D01*
X139861000Y-97201000D02*
X139861000Y-97860000D01*
X139341000Y-99940000D02*
X139341000Y-101049000D01*
X139021000Y-99940000D02*
X139021000Y-101229000D01*
X140101000Y-97517000D02*
X140101000Y-100283000D01*
X139581000Y-96929000D02*
X139581000Y-97860000D01*
X137940000Y-96320000D02*
X137940000Y-97860000D01*
X140141000Y-97581000D02*
X140141000Y-100219000D01*
X138380000Y-99940000D02*
X138380000Y-101436000D01*
X137900000Y-96320000D02*
X137900000Y-97860000D01*
X139261000Y-96700000D02*
X139261000Y-97860000D01*
X139821000Y-97157000D02*
X139821000Y-97860000D01*
X139141000Y-96632000D02*
X139141000Y-97860000D01*
X139741000Y-97074000D02*
X139741000Y-97860000D01*
X138380000Y-96364000D02*
X138380000Y-97860000D01*
X140061000Y-97457000D02*
X140061000Y-100343000D01*
X138180000Y-99940000D02*
X138180000Y-101465000D01*
X138901000Y-99940000D02*
X138901000Y-101282000D01*
X139101000Y-96610000D02*
X139101000Y-97860000D01*
X138300000Y-99940000D02*
X138300000Y-101450000D01*
X138420000Y-99940000D02*
X138420000Y-101428000D01*
X139701000Y-97036000D02*
X139701000Y-97860000D01*
X139341000Y-96751000D02*
X139341000Y-97860000D01*
X140421000Y-98223000D02*
X140421000Y-99577000D01*
X139421000Y-96805000D02*
X139421000Y-97860000D01*
X140461000Y-98382000D02*
X140461000Y-99418000D01*
X137980000Y-99940000D02*
X137980000Y-101479000D01*
X138340000Y-99940000D02*
X138340000Y-101443000D01*
X138621000Y-96420000D02*
X138621000Y-97860000D01*
X139381000Y-99940000D02*
X139381000Y-101022000D01*
X138701000Y-96445000D02*
X138701000Y-97860000D01*
X138741000Y-99940000D02*
X138741000Y-101342000D01*
X138260000Y-99940000D02*
X138260000Y-101456000D01*
X139701000Y-99940000D02*
X139701000Y-100764000D01*
X138420000Y-96372000D02*
X138420000Y-97860000D01*
X138540000Y-96399000D02*
X138540000Y-97860000D01*
X138540000Y-99940000D02*
X138540000Y-101401000D01*
X138580000Y-96409000D02*
X138580000Y-97860000D01*
X139381000Y-96778000D02*
X139381000Y-97860000D01*
X139541000Y-96896000D02*
X139541000Y-97860000D01*
X139861000Y-99940000D02*
X139861000Y-100599000D01*
X139461000Y-96835000D02*
X139461000Y-97860000D01*
X139101000Y-99940000D02*
X139101000Y-101190000D01*
X139061000Y-96590000D02*
X139061000Y-97860000D01*
X137940000Y-99940000D02*
X137940000Y-101480000D01*
X138701000Y-99940000D02*
X138701000Y-101355000D01*
X138661000Y-99940000D02*
X138661000Y-101368000D01*
X138981000Y-96552000D02*
X138981000Y-97860000D01*
X139981000Y-97346000D02*
X139981000Y-100454000D01*
X139221000Y-99940000D02*
X139221000Y-101124000D01*
X139061000Y-99940000D02*
X139061000Y-101210000D01*
X139621000Y-99940000D02*
X139621000Y-100837000D01*
X138460000Y-99940000D02*
X138460000Y-101420000D01*
X140501000Y-98616000D02*
X140501000Y-99184000D01*
X140341000Y-97985000D02*
X140341000Y-99815000D01*
X140021000Y-97400000D02*
X140021000Y-100400000D01*
X135095225Y-97425000D02*
X135595225Y-97425000D01*
X138060000Y-96324000D02*
X138060000Y-97860000D01*
X138861000Y-96502000D02*
X138861000Y-97860000D01*
X138460000Y-96380000D02*
X138460000Y-97860000D01*
X138180000Y-96335000D02*
X138180000Y-97860000D01*
X139501000Y-96865000D02*
X139501000Y-97860000D01*
X138821000Y-99940000D02*
X138821000Y-101314000D01*
X139461000Y-99940000D02*
X139461000Y-100965000D01*
X138580000Y-99940000D02*
X138580000Y-101391000D01*
X139821000Y-99940000D02*
X139821000Y-100643000D01*
X138060000Y-99940000D02*
X138060000Y-101476000D01*
X138020000Y-99940000D02*
X138020000Y-101478000D01*
X138340000Y-96357000D02*
X138340000Y-97860000D01*
X138821000Y-96486000D02*
X138821000Y-97860000D01*
X138941000Y-96535000D02*
X138941000Y-97860000D01*
X140301000Y-97889000D02*
X140301000Y-99911000D01*
X138100000Y-99940000D02*
X138100000Y-101473000D01*
X139301000Y-96725000D02*
X139301000Y-97860000D01*
X139141000Y-99940000D02*
X139141000Y-101168000D01*
X139661000Y-99940000D02*
X139661000Y-100801000D01*
X138020000Y-96322000D02*
X138020000Y-97860000D01*
X138100000Y-96327000D02*
X138100000Y-97860000D01*
X138140000Y-99940000D02*
X138140000Y-101469000D01*
X138661000Y-96432000D02*
X138661000Y-97860000D01*
X138140000Y-96331000D02*
X138140000Y-97860000D01*
X138981000Y-99940000D02*
X138981000Y-101248000D01*
X139501000Y-99940000D02*
X139501000Y-100935000D01*
X139901000Y-97247000D02*
X139901000Y-97860000D01*
X139741000Y-99940000D02*
X139741000Y-100726000D01*
X139581000Y-99940000D02*
X139581000Y-100871000D01*
X138741000Y-96458000D02*
X138741000Y-97860000D01*
X138781000Y-99940000D02*
X138781000Y-101328000D01*
X138260000Y-96344000D02*
X138260000Y-97860000D01*
X139221000Y-96676000D02*
X139221000Y-97860000D01*
X139941000Y-97295000D02*
X139941000Y-100505000D01*
X139421000Y-99940000D02*
X139421000Y-100995000D01*
X138621000Y-99940000D02*
X138621000Y-101380000D01*
X138861000Y-99940000D02*
X138861000Y-101298000D01*
X139541000Y-99940000D02*
X139541000Y-100904000D01*
X139621000Y-96963000D02*
X139621000Y-97860000D01*
X138500000Y-96389000D02*
X138500000Y-97860000D01*
X138500000Y-99940000D02*
X138500000Y-101411000D01*
X139301000Y-99940000D02*
X139301000Y-101075000D01*
X137980000Y-96321000D02*
X137980000Y-97860000D01*
X139661000Y-96999000D02*
X139661000Y-97860000D01*
%TO.C,Q1*%
X147700000Y-100960000D02*
X151300000Y-100960000D01*
X151338478Y-100948478D02*
G75*
G03*
X149500000Y-96510000I-1838478J1838478D01*
G01*
X149500000Y-96509999D02*
G75*
G03*
X147661522Y-100948478I0J-2600001D01*
G01*
%TO.C,C2*%
X152630000Y-93280000D02*
X155870000Y-93280000D01*
X152630000Y-95520000D02*
X155870000Y-95520000D01*
X155870000Y-95455000D02*
X155870000Y-95520000D01*
X155870000Y-93280000D02*
X155870000Y-93345000D01*
X152630000Y-95455000D02*
X152630000Y-95520000D01*
X152630000Y-93280000D02*
X152630000Y-93345000D01*
%TO.C,F1*%
D11*
X140474930Y-81510864D02*
X139935347Y-81510864D01*
X138657437Y-80905511D01*
X138376545Y-80772535D01*
X138114823Y-80648794D01*
X137879355Y-80537626D01*
X137677223Y-80442368D01*
X137515512Y-80366356D01*
X137401304Y-80312929D01*
X137341683Y-80285422D01*
X137335306Y-80282646D01*
X137318327Y-80291436D01*
X137306015Y-80338347D01*
X137297779Y-80431003D01*
X137293028Y-80577031D01*
X137291169Y-80784058D01*
X137291086Y-80852622D01*
X137291086Y-81440112D01*
X136725069Y-81440112D01*
X136725069Y-79565181D01*
X136981546Y-79567231D01*
X137238022Y-79569281D01*
X138564624Y-80197134D01*
X139891225Y-80824986D01*
X139900867Y-80195084D01*
X139910510Y-79565181D01*
X140474930Y-79565181D01*
X140474930Y-81510864D01*
G36*
X136733774Y-83306198D02*
G01*
X136741500Y-83043629D01*
X136751244Y-82840958D01*
X136763999Y-82687338D01*
X136780758Y-82571924D01*
X136802513Y-82483869D01*
X136811461Y-82457589D01*
X136903731Y-82291144D01*
X137045363Y-82135139D01*
X137215493Y-82008626D01*
X137386501Y-81932533D01*
X137588928Y-81895501D01*
X137819650Y-81885318D01*
X138044337Y-81902040D01*
X138184687Y-81931229D01*
X138321390Y-81990989D01*
X138465642Y-82085757D01*
X138596286Y-82198471D01*
X138692166Y-82312064D01*
X138720155Y-82363132D01*
X138760121Y-82458184D01*
X139431801Y-82196640D01*
X139649512Y-82111975D01*
X139857314Y-82031364D01*
X140041487Y-81960113D01*
X140188310Y-81903531D01*
X140284061Y-81866925D01*
X140289206Y-81864980D01*
X140474930Y-81794865D01*
X140474930Y-82450555D01*
X138900696Y-83021953D01*
X138890003Y-83203874D01*
X138879311Y-83385794D01*
X140474930Y-83385794D01*
X140474930Y-83987187D01*
X136717565Y-83987187D01*
X136731879Y-83385794D01*
X137255710Y-83385794D01*
X138430611Y-83385794D01*
X138417868Y-83105174D01*
X138405444Y-82941298D01*
X138382978Y-82828394D01*
X138345994Y-82746898D01*
X138330828Y-82724881D01*
X138195487Y-82592127D01*
X138026847Y-82517358D01*
X137838850Y-82496339D01*
X137625499Y-82519165D01*
X137462809Y-82589294D01*
X137348495Y-82709209D01*
X137280268Y-82881391D01*
X137255841Y-83108320D01*
X137255710Y-83128766D01*
X137255710Y-83385794D01*
X136731879Y-83385794D01*
X136733774Y-83306198D01*
G37*
G36*
X133611978Y-76876602D02*
G01*
X143623398Y-76876602D01*
X143623398Y-86888022D01*
X133611978Y-86888022D01*
X133611978Y-85400621D01*
X134903203Y-85400621D01*
X135099379Y-85596797D01*
X138597090Y-85596797D01*
X139171844Y-85596773D01*
X139680048Y-85596644D01*
X140125902Y-85596328D01*
X140513607Y-85595742D01*
X140847365Y-85594803D01*
X141131377Y-85593427D01*
X141369845Y-85591532D01*
X141566968Y-85589033D01*
X141726949Y-85585849D01*
X141853989Y-85581896D01*
X141952289Y-85577090D01*
X142026050Y-85571350D01*
X142079473Y-85564591D01*
X142116760Y-85556730D01*
X142142112Y-85547685D01*
X142159730Y-85537372D01*
X142173442Y-85526045D01*
X142241894Y-85449541D01*
X142281306Y-85384541D01*
X142285321Y-85339916D01*
X142289039Y-85229397D01*
X142292429Y-85057842D01*
X142295461Y-84830107D01*
X142298105Y-84551050D01*
X142300331Y-84225529D01*
X142302109Y-83858401D01*
X142303409Y-83454523D01*
X142304202Y-83018753D01*
X142304456Y-82555948D01*
X142304142Y-82070966D01*
X142303662Y-81768137D01*
X142296796Y-78222486D01*
X142198708Y-78124405D01*
X142100620Y-78026323D01*
X135099379Y-78026323D01*
X135001291Y-78124411D01*
X134903203Y-78222500D01*
X134903203Y-85400621D01*
X133611978Y-85400621D01*
X133611978Y-76876602D01*
G37*
%TD*%
%LPC*%
D13*
%TO.C,J1*%
X147574000Y-76352400D03*
D14*
X147574000Y-79122400D03*
X147574000Y-81892400D03*
X147574000Y-84662400D03*
X147574000Y-87432400D03*
X144734000Y-77737400D03*
X144734000Y-80507400D03*
X144734000Y-83277400D03*
X144734000Y-86047400D03*
%TD*%
D15*
%TO.C,REF3*%
X155930400Y-64750000D03*
%TD*%
D16*
%TO.C,J3*%
X155635400Y-70280000D03*
X153095400Y-70280000D03*
X150555400Y-70280000D03*
X148015400Y-70280000D03*
X156905400Y-72820000D03*
X154420400Y-72820000D03*
X151825400Y-72820000D03*
X149285400Y-72820000D03*
D17*
X146745400Y-72820000D03*
%TD*%
%TO.C,U1*%
X157950000Y-91250000D03*
D18*
X157950000Y-88710000D03*
X157950000Y-86170000D03*
X157950000Y-83630000D03*
X157950000Y-81090000D03*
X157950000Y-78550000D03*
X157950000Y-76010000D03*
X150330000Y-76010000D03*
X150330000Y-78550000D03*
X150330000Y-81090000D03*
X150330000Y-83630000D03*
X150330000Y-86170000D03*
X150330000Y-88710000D03*
X150330000Y-91250000D03*
%TD*%
D19*
%TO.C,REF5*%
X139505000Y-65500000D03*
%TD*%
D20*
%TO.C,J4*%
X138050000Y-91600000D03*
D21*
X140050000Y-91600000D03*
X142050000Y-91600000D03*
X144050000Y-91600000D03*
X146050000Y-91600000D03*
X148050000Y-91600000D03*
%TD*%
D15*
%TO.C,REF6*%
X131526800Y-64750000D03*
%TD*%
D16*
%TO.C,C1*%
X138900000Y-98900000D03*
D17*
X136900000Y-98900000D03*
%TD*%
D19*
%TO.C,REF\u002A\u002A*%
X148005000Y-65500000D03*
%TD*%
D22*
%TO.C,J2*%
X142549500Y-72650000D03*
D16*
X139554500Y-72650000D03*
X136550500Y-72650000D03*
%TD*%
D15*
%TO.C,REF1*%
X131526800Y-99010800D03*
%TD*%
D23*
%TO.C,Q1*%
X148230000Y-99110000D03*
D24*
X149500000Y-99110000D03*
X150770000Y-99110000D03*
%TD*%
D16*
%TO.C,C2*%
X153000000Y-94400000D03*
X155500000Y-94400000D03*
%TD*%
D25*
%TO.C,REF7*%
X143763900Y-98250000D03*
%TD*%
D15*
%TO.C,REF2*%
X155930400Y-99010800D03*
%TD*%
D26*
%TO.C,R1*%
X153000000Y-85500000D03*
D27*
X153000000Y-90580000D03*
%TD*%
%TO.C,R3*%
X154300000Y-82540000D03*
D26*
X154300000Y-77460000D03*
%TD*%
D27*
%TO.C,R2*%
X155500000Y-90580000D03*
D26*
X155500000Y-85500000D03*
%TD*%
M02*
